<svg xmlns="http://www.w3.org/2000/svg" width="214.22" height="309.41" fill="none" viewBox="0 0 214.22 309.41"><path fill="#E9AC1D" d="M0 0h214.63v27.079H0z"/><path fill="#E9AC1D" d="M214.629 0H0v16.792h214.629z"/><path fill="#D08000" d="M214.629 16.792H0v9.6h214.629z"/><g clip-path="url(#speakers-lg-balustrade-left_a)"><path fill="#B26E00" d="M82.132 213.739H42.53a3.247 3.247 0 0 0-3.248 3.247v.004a3.25 3.25 0 0 0 3.248 3.248h39.6a3.25 3.25 0 0 0 3.248-3.248v-.004a3.25 3.25 0 0 0-3.247-3.247"/><path fill="#B26E00" d="M81.557 215.161H43.11a2.064 2.064 0 1 1 0-4.128 146.5 146.5 0 0 1 38.443 0c1.133 0 2.064.93 2.064 2.064a2.07 2.07 0 0 1-2.064 2.064zM91.742 30.754H32.704a5.19 5.19 0 0 0-5.188 5.188v.005a5.19 5.19 0 0 0 5.188 5.188h59.038a5.19 5.19 0 0 0 5.188-5.188v-.005a5.19 5.19 0 0 0-5.188-5.188"/><path fill="#D08000" d="M86.55 30.754H32.704a5.19 5.19 0 0 0-5.188 5.188v.005a5.19 5.19 0 0 0 5.188 5.188H86.55a5.19 5.19 0 0 0 5.188-5.188v-.005a5.19 5.19 0 0 0-5.188-5.188"/><path fill="#B26E00" d="M87.621 143.492c-1.783-4.791-6.309-15.188-9.846-30.98-.513-2.288-.803-3.574-1.088-5.262-1.35-7.96-1.759-19.656 2.87-34.724v-3.885h-.012a5.185 5.185 0 0 0 .902-10.057 25 25 0 0 1 3.484-6.388c2.54-3.392 5.515-5.68 7.658-7.079v-3.98h-58.72v3.98c2.144 1.399 5.118 3.687 7.659 7.079 1.779 2.379 2.838 4.613 3.483 6.388a5.19 5.19 0 0 0-3.562 4.923 5.19 5.19 0 0 0 4.464 5.134H44.9v3.885c4.629 15.068 4.22 26.764 2.87 34.724-.285 1.688-.574 2.974-1.087 5.262-3.538 15.796-8.064 26.189-9.847 30.98-1.237 3.322-10.591 28.443-2.242 48.781 4.327 10.546 14.393 22.184 27.628 22.184s23.3-11.638 27.628-22.184c8.353-20.338-1.005-45.459-2.242-48.781z"/><path fill="#E9AC1D" d="M85.853 172.071c-.041-.641-.083-1.1-.124-1.543-.451-5.006-1.552-11.886-8.784-32.187-.4-1.13-.322-.894-.434-1.217-1.655-4.745-4.886-15.497-3.967-36.804a188 188 0 0 1 3.255-27.566l-2.767-4.055h1.382c.5-.02 2.221-.161 3.67-1.518a5.64 5.64 0 0 0 1.518-2.437c.016-.083.037-.207.05-.36.074-1.022-.419-1.816-.621-2.126-.53-.824-1.266-1.303-2.02-1.688-1.857-.948-3.603-1.217-4.898-1.382-3.698-.472-6.359-.373-6.363-.439 0-.058 1.99-.215 10.62-.657a54 54 0 0 1 1.9-5.515 52 52 0 0 1 2.763-5.772c1.08-1.948 2.391-3.918 3.914-5.668h-52.08v3.98c2.144 1.399 5.119 3.687 7.659 7.079a24.9 24.9 0 0 1 3.487 6.392 5.1 5.1 0 0 0-2.043 1.25c-1.486 1.485-1.519 3.322-1.519 3.67a5.19 5.19 0 0 0 4.464 5.133h-.012v3.885c4.63 15.068 4.22 26.764 2.871 34.724-.285 1.688-.575 2.974-1.088 5.262-3.537 15.796-8.063 26.189-9.846 30.98-1.238 3.322-10.592 28.443-2.243 48.781 3.64 8.866 11.336 18.506 21.563 21.348 2.338.232 6.078.286 10.215-1.183 7.633-2.71 11.493-8.787 13.595-12.097 7-11.022 6.21-23.235 5.883-28.274z"/><path fill="url(#speakers-lg-balustrade-left_b)" d="M44.005 58.571v.009a5.1 5.1 0 0 0-2.043 1.249c-1.486 1.485-1.519 3.322-1.519 3.67a5.19 5.19 0 0 0 4.464 5.134h-.012v.033h29.833c.712-.07 2.127-.347 3.356-1.498a5.64 5.64 0 0 0 1.518-2.437c.016-.082.037-.206.05-.36.074-1.021-.418-1.816-.621-2.126-.53-.823-1.266-1.303-2.02-1.688-1.857-.947-3.603-1.216-4.897-1.382-3.112-.397-4.68-.496-6.364-.438-4.046.14-11.476.053-21.749-.166z"/><path fill="#B26E00" d="M83.932 52.193c2.54-3.393 5.515-5.68 7.658-7.08H32.866c2.144 1.4 5.118 3.687 7.658 7.08 1.78 2.379 2.838 4.613 3.484 6.387h36.436a25 25 0 0 1 3.484-6.387z"/><path fill="#E9AC1D" d="M87.548 41.137H32.866v3.98h54.686v-3.98z"/><path fill="#B26E00" d="M83.932 52.193c2.54-3.393 5.515-5.68 7.658-7.08H32.866c2.144 1.4 5.118 3.687 7.658 7.08 1.78 2.379 2.838 4.613 3.484 6.387h36.436a25 25 0 0 1 3.484-6.387z"/><path fill="url(#speakers-lg-balustrade-left_c)" d="M40.524 52.196q.336.446.633.885c.116.17.22.331.327.497.079.124.166.248.244.368.096.149.178.294.265.439.083.136.17.273.244.41.075.127.137.251.207.375.083.15.17.298.244.443.095.182.182.356.27.534.04.087.09.174.127.256q.155.324.29.633.031.065.058.129c.107.24.203.476.298.707a26 26 0 0 1 .273.703q10.871.08 21.749.166l10.62-.658a54 54 0 0 1 1.9-5.515 52 52 0 0 1 2.763-5.771c.31-.563.65-1.125.997-1.688H32.866c2.144 1.398 5.118 3.686 7.658 7.079z"/><path fill="#D08000" d="M76.879 213.526c-.104-1.733-3.277-2.701-3.538-2.78l-.29-.078c-2.519-.65-4.968-.782-5.936-.828-2.946-.136-4.779-.083-4.779-.083-7.14 0-13.595.522-19.221 1.266a2.065 2.065 0 0 0 0 4.129h29.904c.434-.012 3.55-.111 3.847-1.34.025-.108.02-.186.017-.294z"/><path fill="#B26E00" d="M96.048 27.08H28.405a5.19 5.19 0 0 0-5.188 5.188v.004a5.19 5.19 0 0 0 5.188 5.188h67.643a5.19 5.19 0 0 0 5.188-5.188v-.004a5.19 5.19 0 0 0-5.188-5.188"/><path fill="#E9AC1D" d="M90.227 27.08H28.405a5.19 5.19 0 0 0-5.188 5.188v.004a5.19 5.19 0 0 0 5.188 5.188h61.822a5.19 5.19 0 0 0 5.188-5.188v-.004a5.19 5.19 0 0 0-5.188-5.188"/><path fill="#B26E00" d="M79.744 228.704c-1.295-1.56-2.118-2.569-2.271-3.781-.426-3.364 4.849-5.085 5.325-5.234h-3.612c-.5.174-5.974 2.131-6.852 5.767-.302 1.254.042 2.28.58 3.823.6 1.717 1.729 4.059 3.971 6.376h10.852c-4.013-2.623-6.503-5.16-7.993-6.951"/><path fill="#E9AC1D" d="M72.333 225.447c.877-3.637 6.35-5.594 6.851-5.768H41.73c.476.149 5.75 1.87 5.325 5.234-.154 1.212-.977 2.222-2.276 3.781-1.485 1.788-3.98 4.324-7.993 6.947h40.098c-2.243-2.317-3.372-4.659-3.972-6.376-.538-1.543-.881-2.569-.58-3.823z"/><path fill="#B26E00" d="M93.468 246.025H31.054c-.935 0-1.34-.889-.914-1.965l2.726-6.843c.348-.877 1.291-1.572 2.106-1.572h54.574c.819 0 1.758.695 2.106 1.572l2.726 6.843c.426 1.072.025 1.965-.914 1.965z"/><path fill="url(#speakers-lg-balustrade-left_d)" d="M86.771 246.025H30.944c-.836 0-1.2-.889-.815-1.965l2.437-6.843c.31-.877 1.154-1.572 1.886-1.572h48.815c.733 0 1.572.695 1.887 1.572l2.437 6.843c.38 1.072.02 1.965-.816 1.965z"/><path fill="#E9AC1D" d="M81.069 216.705c-.381-2.184-7.456-2.817-9.371-2.966H42.53a3.248 3.248 0 0 0 0 6.495h19.06q.336 0 .65-.066 8.468-.25 16.937-.493c.583-.364 1.775-1.232 1.89-2.552 0 0 .03-.236 0-.422z"/><path fill="#B26E00" d="M98.892 244.724H25.78a2.454 2.454 0 0 0-2.454 2.454v23.263a2.454 2.454 0 0 0 2.454 2.454h73.112a2.454 2.454 0 0 0 2.454-2.454v-23.263a2.454 2.454 0 0 0-2.454-2.454"/><path fill="#E9AC1D" d="M92.964 244.724H25.78a2.454 2.454 0 0 0-2.454 2.454v23.263a2.454 2.454 0 0 0 2.454 2.454h67.184a2.454 2.454 0 0 0 2.453-2.454v-23.263a2.454 2.454 0 0 0-2.453-2.454"/></g><g clip-path="url(#speakers-lg-balustrade-left_e)"><path fill="#B26E00" d="M195.426 213.739h-39.601a3.25 3.25 0 0 0-3.248 3.247v.005a3.25 3.25 0 0 0 3.248 3.247h39.601a3.25 3.25 0 0 0 3.248-3.247v-.005a3.25 3.25 0 0 0-3.248-3.247"/><path fill="#B26E00" d="M194.841 215.162h-38.447a2.065 2.065 0 0 1 0-4.129 146.5 146.5 0 0 1 38.443 0c1.134 0 2.064.931 2.064 2.064a2.07 2.07 0 0 1-2.064 2.065zm10.193-184.408h-59.038a5.19 5.19 0 0 0-5.188 5.189v.004a5.19 5.19 0 0 0 5.188 5.188h59.038a5.19 5.19 0 0 0 5.188-5.188v-.005a5.19 5.19 0 0 0-5.188-5.188"/><path fill="#D08000" d="M199.842 30.754h-53.846a5.19 5.19 0 0 0-5.188 5.189v.004a5.19 5.19 0 0 0 5.188 5.188h53.846a5.19 5.19 0 0 0 5.188-5.188v-.005a5.19 5.19 0 0 0-5.188-5.188"/><path fill="#B26E00" d="M200.905 143.492c-1.783-4.791-6.309-15.188-9.846-30.98-.513-2.287-.803-3.574-1.088-5.262-1.349-7.96-1.759-19.656 2.871-34.724v-3.885h-.012a5.185 5.185 0 0 0 4.464-5.134 5.19 5.19 0 0 0-3.563-4.923 25 25 0 0 1 3.484-6.388c2.54-3.392 5.515-5.68 7.658-7.079v-3.98h-58.719v3.98c2.143 1.399 5.117 3.687 7.658 7.08 1.779 2.378 2.838 4.612 3.483 6.387a5.19 5.19 0 0 0-3.562 4.923 5.19 5.19 0 0 0 4.464 5.134h-.012v3.885c4.629 15.068 4.22 26.764 2.871 34.724-.286 1.688-.575 2.975-1.088 5.262-3.538 15.796-8.064 26.189-9.847 30.98-1.237 3.322-10.591 28.443-2.242 48.781 4.327 10.546 14.393 22.184 27.628 22.184s23.301-11.638 27.628-22.184c8.353-20.338-1.005-45.459-2.242-48.781z"/><path fill="#E9AC1D" d="M199.137 172.072a50 50 0 0 0-.124-1.544c-.451-5.006-1.551-11.886-8.783-32.187-.402-1.13-.323-.894-.435-1.216-1.655-4.746-4.886-15.498-3.967-36.805a188 188 0 0 1 3.256-27.566l-2.768-4.055h1.382c.5-.02 2.221-.16 3.669-1.518a5.65 5.65 0 0 0 1.519-2.437c.016-.082.037-.207.049-.36.075-1.022-.417-1.816-.62-2.126-.53-.824-1.266-1.303-2.019-1.688-1.858-.948-3.604-1.217-4.899-1.382-3.698-.472-6.358-.372-6.363-.439 0-.058 1.99-.215 10.621-.657a53.4 53.4 0 0 1 4.662-11.287c1.08-1.948 2.392-3.918 3.914-5.668h-52.079v3.98c2.143 1.399 5.118 3.687 7.658 7.08a24.9 24.9 0 0 1 3.488 6.391 5.1 5.1 0 0 0-2.044 1.25c-1.485 1.485-1.519 3.322-1.519 3.67a5.19 5.19 0 0 0 4.464 5.133h-.012v3.885c4.63 15.068 4.22 26.764 2.871 34.724-.285 1.688-.575 2.975-1.088 5.262-3.537 15.796-8.063 26.189-9.846 30.98-1.237 3.322-10.592 28.443-2.243 48.781 3.641 8.867 11.336 18.506 21.563 21.348 2.338.232 6.078.286 10.215-1.183 7.633-2.71 11.493-8.787 13.595-12.097 7-11.021 6.21-23.234 5.883-28.274z"/><path fill="url(#speakers-lg-balustrade-left_f)" d="M157.292 58.571v.009a5.14 5.14 0 0 0-2.044 1.25c-1.485 1.484-1.518 3.321-1.518 3.669a5.19 5.19 0 0 0 4.464 5.134h-.013v.033h29.834c.711-.07 2.126-.347 3.355-1.498a5.63 5.63 0 0 0 1.518-2.436c.017-.083.038-.207.05-.36.075-1.022-.418-1.816-.621-2.127-.529-.823-1.265-1.303-2.018-1.688-1.858-.947-3.604-1.216-4.899-1.382-3.111-.397-4.679-.496-6.363-.438-4.046.14-11.477.054-21.749-.166z"/><path fill="#B26E00" d="M197.216 52.193c2.54-3.393 5.515-5.68 7.658-7.079h-58.723c2.143 1.398 5.117 3.686 7.658 7.079 1.779 2.379 2.838 4.613 3.483 6.388h36.436a25 25 0 0 1 3.484-6.388z"/><path fill="#E9AC1D" d="M200.832 41.137h-54.681v3.98h54.685v-3.98z"/><path fill="#B26E00" d="M197.216 52.193c2.54-3.393 5.515-5.68 7.658-7.079h-58.723c2.143 1.398 5.117 3.686 7.658 7.079 1.779 2.379 2.838 4.613 3.483 6.388h36.436a25 25 0 0 1 3.484-6.388z"/><path fill="url(#speakers-lg-balustrade-left_g)" d="M153.809 52.196q.335.446.633.885c.115.17.219.331.326.497.079.124.166.248.244.368.096.149.178.294.265.439.083.136.17.273.244.41.075.127.137.252.207.376.083.149.17.297.244.442.095.182.182.356.269.534.042.087.091.174.128.257q.155.323.29.632.032.065.058.129c.108.24.203.476.298.707a27 27 0 0 1 .273.703q10.871.08 21.749.166l10.62-.658a54 54 0 0 1 1.899-5.515 52 52 0 0 1 2.764-5.771c.31-.563.65-1.125.997-1.688h-49.166c2.143 1.398 5.117 3.686 7.658 7.079z"/><path fill="#D08000" d="M190.163 213.526c-.104-1.733-3.277-2.701-3.538-2.78l-.289-.078c-2.52-.65-4.969-.782-5.937-.828-2.946-.136-4.779-.083-4.779-.083-7.14 0-13.594.522-19.221 1.266a2.066 2.066 0 0 0 0 4.129h29.904c.434-.012 3.549-.111 3.847-1.34.025-.108.021-.186.017-.294z"/><path fill="#B26E00" d="M209.338 27.08h-67.644a5.19 5.19 0 0 0-5.188 5.188v.004a5.19 5.19 0 0 0 5.188 5.188h67.644a5.19 5.19 0 0 0 5.188-5.188v-.004a5.19 5.19 0 0 0-5.188-5.188"/><path fill="#E9AC1D" d="M203.517 27.08h-61.823a5.19 5.19 0 0 0-5.188 5.188v.004a5.19 5.19 0 0 0 5.188 5.188h61.823a5.19 5.19 0 0 0 5.188-5.188v-.004a5.19 5.19 0 0 0-5.188-5.188"/><path fill="#B26E00" d="M193.026 228.704c-1.295-1.56-2.118-2.569-2.271-3.781-.426-3.364 4.849-5.085 5.324-5.234h-3.611c-.501.174-5.974 2.131-6.852 5.767-.302 1.254.042 2.28.58 3.823.6 1.717 1.729 4.059 3.971 6.376h10.852c-4.013-2.623-6.503-5.159-7.993-6.951"/><path fill="#E9AC1D" d="M185.612 225.447c.877-3.637 6.35-5.594 6.851-5.768h-37.454c.476.149 5.751 1.87 5.325 5.234-.153 1.212-.977 2.222-2.276 3.781-1.485 1.788-3.98 4.324-7.993 6.947h40.098c-2.243-2.317-3.372-4.659-3.972-6.376-.538-1.543-.881-2.569-.579-3.822z"/><path fill="#B26E00" d="M206.755 246.025h-62.414c-.935 0-1.341-.889-.914-1.965l2.726-6.843c.348-.877 1.291-1.572 2.106-1.572h54.574c.819 0 1.758.695 2.106 1.572l2.726 6.843c.426 1.072.025 1.965-.914 1.965z"/><path fill="url(#speakers-lg-balustrade-left_h)" d="M200.058 246.025h-55.827c-.836 0-1.2-.889-.815-1.965l2.436-6.843c.311-.877 1.155-1.572 1.887-1.572h48.815c.732 0 1.572.695 1.886 1.572l2.437 6.843c.381 1.072.021 1.965-.815 1.965z"/><path fill="#E9AC1D" d="M194.363 216.705c-.381-2.184-7.456-2.817-9.371-2.966h-29.167a3.248 3.248 0 1 0 0 6.495h19.06q.337 0 .649-.066c5.648-.166 11.291-.331 16.938-.492.583-.364 1.775-1.233 1.891-2.553 0 0 .029-.236 0-.422z"/><path fill="#B26E00" d="M212.181 244.725h-73.112a2.454 2.454 0 0 0-2.454 2.453v23.263a2.454 2.454 0 0 0 2.454 2.454h73.112a2.454 2.454 0 0 0 2.454-2.454v-23.263a2.454 2.454 0 0 0-2.454-2.453"/><path fill="#E9AC1D" d="M206.253 244.725h-67.184a2.454 2.454 0 0 0-2.454 2.453v23.263a2.454 2.454 0 0 0 2.454 2.454h67.184a2.454 2.454 0 0 0 2.453-2.454v-23.263a2.453 2.453 0 0 0-2.453-2.453"/></g><path fill="#E9AC1D" d="M0 272.891h214.63v37.11H0z"/><path fill="#D08000" d="M214.629 272.891H0v4.901h214.629z"/><path fill="#E9AC1D" d="M214.629 277.792H0v4.901h214.629z"/><path fill="#D08000" d="M214.629 282.693H0v4.902h214.629z"/><defs><linearGradient id="speakers-lg-balustrade-left_b" x1="40.447" x2="79.664" y1="63.619" y2="63.619" gradientUnits="userSpaceOnUse"><stop offset=".16" stop-color="#D08000"/><stop offset=".86" stop-color="#E9AC1D"/></linearGradient><linearGradient id="speakers-lg-balustrade-left_c" x1="57.45" x2="57.45" y1="58.745" y2="45.117" gradientUnits="userSpaceOnUse"><stop offset=".05" stop-color="#E9AC1D"/><stop offset="1" stop-color="#D08000"/></linearGradient><linearGradient id="speakers-lg-balustrade-left_d" x1="58.895" x2="58.858" y1="246.205" y2="235.645" gradientUnits="userSpaceOnUse"><stop stop-color="#FFD268"/><stop offset=".514" stop-color="#E9AC1D"/><stop offset="1" stop-color="#D08000"/></linearGradient><linearGradient id="speakers-lg-balustrade-left_f" x1="153.734" x2="192.95" y1="63.619" y2="63.619" gradientUnits="userSpaceOnUse"><stop offset=".16" stop-color="#D08000"/><stop offset=".86" stop-color="#E9AC1D"/></linearGradient><linearGradient id="speakers-lg-balustrade-left_g" x1="170.734" x2="170.734" y1="58.745" y2="45.117" gradientUnits="userSpaceOnUse"><stop offset=".05" stop-color="#E9AC1D"/><stop offset="1" stop-color="#D08000"/></linearGradient><linearGradient id="speakers-lg-balustrade-left_h" x1="172.181" x2="172.144" y1="246.205" y2="235.645" gradientUnits="userSpaceOnUse"><stop stop-color="#FFD268"/><stop offset=".514" stop-color="#E9AC1D"/><stop offset="1" stop-color="#D08000"/></linearGradient><clipPath id="speakers-lg-balustrade-left_a"><path fill="#fff" d="M23.217 27.08h78.123v245.81H23.217z"/></clipPath><clipPath id="speakers-lg-balustrade-left_e"><path fill="#fff" d="M136.506 27.08h78.123v245.812h-78.123z"/></clipPath></defs></svg>