<svg width="23" height="23" viewBox="0 0 23 23" fill="none" xmlns="http://www.w3.org/2000/svg">
<path d="M12.4151 0.538025C13.6266 0.541256 14.2415 0.547717 14.7725 0.562794L14.9814 0.570332C15.2226 0.578948 15.4606 0.589717 15.7481 0.60264C16.894 0.656485 17.6758 0.837407 18.3618 1.10341C19.0726 1.37694 19.6713 1.7474 20.2701 2.34509C20.8179 2.88326 21.2417 3.53451 21.5118 4.25338C21.7778 4.93938 21.9587 5.72122 22.0126 6.86813C22.0255 7.15459 22.0363 7.39259 22.0449 7.63489L22.0513 7.84382C22.0675 8.37366 22.0739 8.98857 22.0761 10.2001L22.0772 11.0035V12.4142C22.0798 13.1997 22.0715 13.9853 22.0524 14.7705L22.0459 14.9795C22.0373 15.2218 22.0266 15.4598 22.0136 15.7462C21.9598 16.8931 21.7767 17.6739 21.5118 18.361C21.2417 19.0798 20.8179 19.7311 20.2701 20.2693C19.7319 20.8171 19.0807 21.2408 18.3618 21.5109C17.6758 21.7769 16.894 21.9579 15.7481 22.0117L14.9814 22.044L14.7725 22.0505C14.2415 22.0656 13.6266 22.0731 12.4151 22.0752L11.6117 22.0763H10.202C9.41617 22.0791 8.63031 22.0708 7.84467 22.0515L7.63575 22.0451C7.3801 22.0354 7.12451 22.0243 6.86899 22.0117C5.72315 21.9579 4.94131 21.7769 4.25424 21.5109C3.53575 21.2407 2.88488 20.8169 2.34702 20.2693C1.79881 19.7312 1.37468 19.0799 1.10426 18.361C0.838264 17.675 0.657342 16.8931 0.603496 15.7462L0.571189 14.9795L0.565805 14.7705C0.545953 13.9853 0.536978 13.1998 0.538882 12.4142V10.2001C0.535901 9.4146 0.543799 8.6291 0.562574 7.84382L0.570112 7.63489C0.578727 7.39259 0.589497 7.15459 0.60242 6.86813C0.656265 5.72122 0.837187 4.94045 1.10318 4.25338C1.37424 3.53422 1.79911 2.88294 2.3481 2.34509C2.88564 1.79753 3.53614 1.37379 4.25424 1.10341C4.94131 0.837407 5.72207 0.656485 6.86899 0.60264C7.15545 0.589717 7.39452 0.578948 7.63575 0.570332L7.84467 0.563871C8.62995 0.544737 9.41545 0.53648 10.201 0.539102L12.4151 0.538025ZM11.308 5.9226C9.87995 5.9226 8.51036 6.4899 7.50056 7.4997C6.49076 8.50951 5.92346 9.8791 5.92346 11.3072C5.92346 12.7353 6.49076 14.1048 7.50056 15.1146C8.51036 16.1244 9.87995 16.6917 11.308 16.6917C12.7361 16.6917 14.1057 16.1244 15.1155 15.1146C16.1253 14.1048 16.6926 12.7353 16.6926 11.3072C16.6926 9.8791 16.1253 8.50951 15.1155 7.4997C14.1057 6.4899 12.7361 5.9226 11.308 5.9226ZM11.308 8.07643C11.7323 8.07636 12.1524 8.15985 12.5444 8.32215C12.9364 8.48444 13.2926 8.72236 13.5927 9.02231C13.8927 9.32226 14.1308 9.67838 14.2932 10.0703C14.4556 10.4623 14.5392 10.8824 14.5393 11.3066C14.5394 11.7309 14.4559 12.151 14.2936 12.543C14.1313 12.935 13.8934 13.2912 13.5934 13.5913C13.2935 13.8913 12.9374 14.1294 12.5454 14.2918C12.1535 14.4542 11.7334 14.5378 11.3091 14.5379C10.4523 14.5379 9.63051 14.1975 9.02462 13.5917C8.41874 12.9858 8.07836 12.164 8.07836 11.3072C8.07836 10.4503 8.41874 9.62857 9.02462 9.02269C9.63051 8.41681 10.4523 8.07643 11.3091 8.07643M16.9629 4.30723C16.6059 4.30723 16.2635 4.44905 16.011 4.7015C15.7586 4.95395 15.6168 5.29635 15.6168 5.65337C15.6168 6.01039 15.7586 6.35279 16.011 6.60524C16.2635 6.85769 16.6059 6.99951 16.9629 6.99951C17.3199 6.99951 17.6623 6.85769 17.9148 6.60524C18.1672 6.35279 18.309 6.01039 18.309 5.65337C18.309 5.29635 18.1672 4.95395 17.9148 4.7015C17.6623 4.44905 17.3199 4.30723 16.9629 4.30723Z" fill="#F9FAED"/>
</svg>
