<svg width="23" height="23" viewBox="0 0 23 23" fill="none" xmlns="http://www.w3.org/2000/svg">
<path d="M20.0684 0.538208C20.7031 0.538208 21.3118 0.790342 21.7606 1.23914C22.2094 1.68794 22.4615 2.29665 22.4615 2.93135V19.6834C22.4615 20.3181 22.2094 20.9268 21.7606 21.3756C21.3118 21.8244 20.7031 22.0765 20.0684 22.0765H3.31636C2.68166 22.0765 2.07295 21.8244 1.62415 21.3756C1.17535 20.9268 0.923218 20.3181 0.923218 19.6834V2.93135C0.923218 2.29665 1.17535 1.68794 1.62415 1.23914C2.07295 0.790342 2.68166 0.538208 3.31636 0.538208H20.0684ZM19.4701 19.0851V12.7432C19.4701 11.7087 19.0591 10.7165 18.3276 9.98494C17.596 9.2534 16.6038 8.84242 15.5693 8.84242C14.5522 8.84242 13.3676 9.46463 12.7932 10.398V9.06977H9.45477V19.0851H12.7932V13.186C12.7932 12.2646 13.5351 11.5108 14.4564 11.5108C14.9007 11.5108 15.3268 11.6873 15.641 12.0014C15.9552 12.3156 16.1316 12.7417 16.1316 13.186V19.0851H19.4701ZM5.56592 7.19115C6.09907 7.19115 6.61038 6.97936 6.98737 6.60236C7.36437 6.22537 7.57616 5.71406 7.57616 5.18091C7.57616 4.06809 6.67873 3.1587 5.56592 3.1587C5.02959 3.1587 4.51524 3.37175 4.136 3.75099C3.75676 4.13023 3.54371 4.64458 3.54371 5.18091C3.54371 6.29372 4.4531 7.19115 5.56592 7.19115ZM7.22915 19.0851V9.06977H3.91465V19.0851H7.22915Z" fill="#F9FAED"/>
</svg>
