<svg width="1512" height="181" viewBox="0 0 1512 181" fill="none" xmlns="http://www.w3.org/2000/svg">
<g clip-path="url(#clip0_60_652)">
<path d="M2386.15 181H-1019C-754.058 165.321 -470.113 145.817 -213.48 122.269C300.399 75.1201 493.623 31.1409 570.109 0H833.757C863.792 28.644 996.127 74.2924 1536.77 122.956C1806.07 147.201 2112.49 166.414 2386.22 181H2386.15Z" fill="#FBF7F3"/>
<path d="M2530 181H-875.154C-610.212 165.321 -326.267 145.817 -69.6343 122.269C444.245 75.1201 637.469 31.1409 713.886 0H977.535C1007.57 28.644 1139.91 74.2924 1680.55 122.956C1949.85 147.201 2256.27 166.414 2530 181Z" fill="#FBF7F3"/>
<path d="M2339.3 181H-827.751C-581.334 165.321 -317.277 145.817 -78.5568 122.269C399.429 75.1201 579.099 31.1409 650.204 0H895.395C923.32 28.644 1046.46 74.2924 1549.24 122.956C1799.74 147.201 2084.71 166.414 2339.3 181Z" fill="#333333"/>
<path d="M915.11 181H595C610.665 169.639 626.398 158.281 642.063 146.919H886.845L915.11 181Z" fill="#FBF7F3"/>
<path d="M858.688 126.635H653C663.08 118.79 673.16 110.946 683.24 103.105H840.503C846.564 110.949 852.626 118.794 858.62 126.635H858.688Z" fill="#FBF7F3"/>
<path d="M814.147 86.4713H697C702.721 81.1958 708.51 75.9238 714.231 70.6484H803.794L814.147 86.4713Z" fill="#FBF7F3"/>
<path d="M798.294 56.8519H712C716.223 53.201 720.445 49.5501 724.668 45.8992H790.665C793.185 49.5501 795.773 53.201 798.294 56.8519Z" fill="#FBF7F3"/>
<path d="M787.226 33.3219H723C726.133 30.6154 729.266 27.9125 732.467 25.2061H781.573C783.48 27.9125 785.319 30.6154 787.226 33.3219Z" fill="#FBF7F3"/>
<path d="M777.679 15.8779H733C735.179 13.7141 737.359 11.5504 739.607 9.3866H773.797C775.091 11.5504 776.453 13.7141 777.747 15.8779H777.679Z" fill="#FBF7F3"/>
<path d="M771.079 4.46488H739C740.566 3.01551 742.133 1.56613 743.7 0.11676H768.219C769.172 1.56613 770.126 3.01551 771.079 4.46488Z" fill="#FBF7F3"/>
</g>
<defs>
<clipPath id="clip0_60_652">
<rect width="3549" height="181" fill="white" transform="translate(-1019)"/>
</clipPath>
</defs>
</svg>
