<svg width="1512" height="1109" viewBox="0 0 1512 1109" fill="none" xmlns="http://www.w3.org/2000/svg">
<path d="M-0.899742 26.2505H1515.3L1565 1052.5L-46.5 1109L-0.899742 26.2505Z" fill="#02877F"/>
<path d="M174.975 34.4651C62.835 36.5651 -12.45 107.44 -36.075 142.615L-63 1092.5L1527.38 1069V142.615C1489.58 111.815 1360.11 42.3401 1144.65 10.8401C875.325 -28.5349 711.525 50.2151 547.725 74.3651C383.925 98.5151 315.15 31.8401 174.975 34.4651Z" fill="#096862"/>
<path d="M174.918 82.7248C62.8047 84.8407 -12.4626 156.25 -36.082 191.69V1099L732.5 1035.5L1527 1062.5V191.69C1489.21 160.658 1359.77 90.6592 1144.37 58.9218C875.104 19.2501 711.342 98.5935 547.581 122.926C383.819 147.258 315.06 80.0801 174.918 82.7248Z" fill="#045954"/>
<rect x="-0.00488281" y="377.188" width="142.721" height="439.059" fill="#13766C"/>
<rect x="118.748" y="448.005" width="102.411" height="375.869" fill="#13766C"/>
<rect x="406.369" y="420.767" width="142.721" height="439.059" fill="#13766C"/>
<rect x="1133.05" y="437.111" width="142.721" height="376.959" fill="#13766C"/>
<rect x="1381.45" y="381.546" width="142.721" height="394.39" fill="#13766C"/>
<path d="M1133.05 384.273L1275.77 437.113H1133.05V384.273Z" fill="#13766C"/>
<rect x="5.44214" y="355.4" width="78.4422" height="21.7895" fill="#13766C"/>
<rect x="2.17432" y="371.741" width="137.274" height="21.7895" fill="#13766C"/>
<rect x="165.596" y="437.111" width="47.9369" height="21.7895" fill="#13766C"/>
<rect x="416.175" y="415.32" width="123.111" height="10.8948" fill="#13766C"/>
<rect x="441.233" y="389.174" width="71.9054" height="31.5948" fill="#13766C"/>
<rect x="456.486" y="363.027" width="41.4001" height="52.2948" fill="#13766C"/>
<rect x="470.648" y="336.878" width="13.0737" height="52.2948" fill="#13766C"/>
<rect x="172.132" y="426.217" width="34.8632" height="21.7895" fill="#13766C"/>
<rect x="11.9783" y="344.505" width="66.458" height="21.7895" fill="#13766C"/>
<rect x="15.2476" y="339.058" width="59.9212" height="21.7895" fill="#13766C"/>
<line x1="1483.32" y1="383.727" x2="1483.32" y2="351.042" stroke="#13766C" stroke-width="3.26843"/>
<line x1="1494.21" y1="383.727" x2="1494.21" y2="314" stroke="#13766C" stroke-width="3.26843"/>
<line x1="1506.19" y1="395.712" x2="1506.19" y2="325.986" stroke="#13766C" stroke-width="3.26843"/>
<rect x="88.2427" y="380.457" width="7.62633" height="10.8948" fill="#158075"/>
<rect x="99.137" y="380.457" width="7.62633" height="10.8948" fill="#158075"/>
<rect x="110.031" y="380.457" width="7.62633" height="10.8948" fill="#158075"/>
<rect x="120.927" y="380.457" width="7.62633" height="10.8948" fill="#158075"/>
<rect x="131.821" y="380.457" width="7.62633" height="10.8948" fill="#158075"/>
<rect x="99.137" y="394.621" width="7.62633" height="10.8948" fill="#158075"/>
<rect x="110.031" y="394.621" width="7.62633" height="10.8948" fill="#158075"/>
<rect x="120.927" y="394.621" width="7.62633" height="10.8948" fill="#158075"/>
<rect x="131.821" y="394.621" width="7.62633" height="10.8948" fill="#158075"/>
<rect x="110.031" y="408.784" width="7.62633" height="10.8948" fill="#158075"/>
<rect x="120.927" y="408.784" width="7.62633" height="10.8948" fill="#158075"/>
<rect x="131.821" y="408.784" width="7.62633" height="10.8948" fill="#158075"/>
<rect x="120.927" y="422.948" width="7.62633" height="10.8948" fill="#158075"/>
<rect x="131.822" y="422.948" width="7.62633" height="10.8948" fill="#158075"/>
<rect x="131.821" y="437.111" width="7.62633" height="10.8948" fill="#158075"/>
<line x1="477.186" y1="343.416" x2="477.186" y2="323.806" stroke="#13766C" stroke-width="2.17895"/>
<rect x="221.159" y="511.195" width="154.706" height="269.1" fill="#13766C"/>
<path d="M574.148 523.181H689.633V769.402H574.148V523.181Z" fill="#13766C"/>
<path d="M1019.74 458.9H1135.23V780.295H1019.74V458.9Z" fill="#13766C"/>
<path d="M1271.41 502.479H1386.9V823.874H1271.41V502.479Z" fill="#13766C"/>
<path d="M882.471 524.27H997.955V845.665H882.471V524.27Z" fill="#13766C"/>
<rect x="229.874" y="475.243" width="134.005" height="39.2211" fill="#13766C"/>
<rect x="250.575" y="448.005" width="91.516" height="39.2211" fill="#13766C"/>
<rect x="591.58" y="499.21" width="80.6212" height="32.6843" fill="#13766C"/>
<rect x="597.028" y="487.227" width="69.7264" height="32.6843" fill="#13766C"/>
<rect x="924.96" y="485.049" width="65.3685" height="39.2211" fill="#13766C"/>
<rect x="944.571" y="468.705" width="41.4001" height="39.2211" fill="#13766C"/>
<rect x="1032.82" y="419.679" width="45.758" height="39.2211" fill="#13766C"/>
<rect x="1053.52" y="388.085" width="17.4316" height="39.2211" fill="#13766C"/>
<rect x="1296.47" y="463.258" width="45.758" height="39.2211" fill="#13766C"/>
<rect x="-27.2417" y="747.609" width="1568.84" height="129.648" fill="#0D685F"/>
<rect x="-27.2417" y="580.921" width="145.99" height="291.979" fill="#0D685F"/>
<rect x="118.749" y="613.604" width="117.663" height="259.295" fill="#0D685F"/>
<rect x="290.886" y="613.604" width="117.663" height="259.295" fill="#0D685F"/>
<rect x="406.371" y="662.631" width="107.858" height="210.269" fill="#0D685F"/>
<rect x="569.791" y="681.152" width="87.1581" height="191.748" fill="#0D685F"/>
<rect x="656.949" y="669.167" width="87.1581" height="203.732" fill="#0D685F"/>
<rect x="776.792" y="629.946" width="87.1581" height="242.953" fill="#0D685F"/>
<rect x="861.771" y="572.205" width="93.6949" height="259.295" fill="#0D685F"/>
<rect x="1305.19" y="598.352" width="93.6949" height="274.548" fill="#0D685F"/>
<rect x="1214.76" y="629.946" width="93.6949" height="242.953" fill="#0D685F"/>
<rect x="1416.31" y="572.205" width="125.29" height="300.695" fill="#0D685F"/>
<line x1="-30.5098" y1="577.108" x2="122.017" y2="577.108" stroke="#0D685F" stroke-width="7.62633"/>
<line x1="287.617" y1="611.97" x2="411.817" y2="611.97" stroke="#0D685F" stroke-width="3.26843"/>
<line x1="772.433" y1="627.222" x2="868.307" y2="627.222" stroke="#0D685F" stroke-width="5.44738"/>
<line x1="1209.31" y1="627.222" x2="1305.19" y2="627.222" stroke="#0D685F" stroke-width="5.44738"/>
<rect x="1317.17" y="539.52" width="69.7264" height="66.458" fill="#0D685F"/>
<rect x="1344.41" y="511.193" width="15.2527" height="66.458" fill="#0D685F"/>
<rect x="1352.03" y="486.135" width="1.08948" height="66.458" fill="#0D685F"/>
<circle cx="1085.66" cy="630.489" r="85.5238" stroke="#0D685F" stroke-width="2.17895"/>
<circle cx="1085.66" cy="630.491" r="59.3764" stroke="#0D685F" stroke-width="2.17895"/>
<path d="M1086.75 529.712L1086.75 731.265" stroke="#0D685F" stroke-width="2.17895" stroke-linecap="round"/>
<circle cx="1086.75" cy="526.989" r="8.17107" fill="#0D685F"/>
<circle cx="1086.75" cy="733.989" r="8.17107" fill="#0D685F"/>
<path d="M1048.18 537.384L1125.31 723.595" stroke="#0D685F" stroke-width="2.17895" stroke-linecap="round"/>
<circle cx="1047.14" cy="534.869" r="8.17107" transform="rotate(-22.5 1047.14 534.869)" fill="#0D685F"/>
<circle cx="1126.35" cy="726.111" r="8.17107" transform="rotate(-22.5 1126.35 726.111)" fill="#0D685F"/>
<path d="M1125.31 537.384L1048.18 723.594" stroke="#0D685F" stroke-width="2.17895" stroke-linecap="round"/>
<circle cx="1126.35" cy="534.867" r="8.17107" transform="rotate(22.5 1126.35 534.867)" fill="#0D685F"/>
<circle cx="1047.14" cy="726.11" r="8.17107" transform="rotate(22.5 1047.14 726.11)" fill="#0D685F"/>
<path d="M993.642 591.923L1179.85 669.054" stroke="#0D685F" stroke-width="2.17895" stroke-linecap="round"/>
<circle cx="991.126" cy="590.881" r="8.17107" transform="rotate(-67.5 991.126 590.881)" fill="#0D685F"/>
<circle cx="1182.37" cy="670.097" r="8.17107" transform="rotate(-67.5 1182.37 670.097)" fill="#0D685F"/>
<path d="M1179.85 591.923L993.642 669.054" stroke="#0D685F" stroke-width="2.17895" stroke-linecap="round"/>
<circle cx="1182.37" cy="590.881" r="8.17107" transform="rotate(67.5 1182.37 590.881)" fill="#0D685F"/>
<circle cx="991.125" cy="670.097" r="8.17107" transform="rotate(67.5 991.125 670.097)" fill="#0D685F"/>
<path d="M985.972 630.487L1187.52 630.487" stroke="#0D685F" stroke-width="2.17895" stroke-linecap="round"/>
<circle cx="983.247" cy="630.488" r="8.17107" transform="rotate(-90 983.247 630.488)" fill="#0D685F"/>
<circle cx="1190.25" cy="630.488" r="8.17107" transform="rotate(-90 1190.25 630.488)" fill="#0D685F"/>
<path d="M1015.49 559.228L1158.01 701.748" stroke="#0D685F" stroke-width="2.17895" stroke-linecap="round"/>
<circle cx="1013.56" cy="557.304" r="8.17107" transform="rotate(-45 1013.56 557.304)" fill="#0D685F"/>
<circle cx="1159.93" cy="703.675" r="8.17107" transform="rotate(-45 1159.93 703.675)" fill="#0D685F"/>
<path d="M1158.01 559.231L1015.49 701.751" stroke="#0D685F" stroke-width="2.17895" stroke-linecap="round"/>
<circle cx="1159.93" cy="557.304" r="8.17107" transform="rotate(45 1159.93 557.304)" fill="#0D685F"/>
<circle cx="1013.56" cy="703.675" r="8.17107" transform="rotate(45 1013.56 703.675)" fill="#0D685F"/>
<line x1="1087.15" y1="634.84" x2="992.366" y2="801.53" stroke="#0D685F" stroke-width="2.17895"/>
<line x1="1087.15" y1="633.768" x2="1180.85" y2="800.457" stroke="#0D685F" stroke-width="2.17895"/>
<rect x="1421.76" y="549.323" width="56.6527" height="33.7737" fill="#0D685F"/>
<rect x="1426.12" y="531.893" width="47.9369" height="33.7737" fill="#0D685F"/>
<rect x="1491.49" y="548.234" width="19.6106" height="33.7737" fill="#0D685F"/>
<rect x="1429.39" y="527.534" width="41.4001" height="33.7737" fill="#0D685F"/>
<rect x="299.601" y="593.994" width="50.1159" height="19.6106" fill="#0D685F"/>
<rect x="1222.39" y="637.573" width="5.44738" height="14.1632" fill="#0F786E"/>
<rect x="868.307" y="582.01" width="5.44738" height="14.1632" fill="#0F786E"/>
<rect x="879.203" y="582.01" width="5.44738" height="14.1632" fill="#0F786E"/>
<rect x="868.307" y="600.53" width="5.44738" height="14.1632" fill="#0F786E"/>
<rect x="868.307" y="619.051" width="5.44738" height="14.1632" fill="#0F786E"/>
<rect x="879.203" y="600.53" width="5.44738" height="14.1632" fill="#0F786E"/>
<rect x="890.097" y="582.01" width="5.44738" height="14.1632" fill="#0F786E"/>
<rect x="1240.91" y="637.573" width="5.44738" height="14.1632" fill="#0F786E"/>
<rect x="1259.43" y="637.573" width="5.44738" height="14.1632" fill="#0F786E"/>
<rect x="1277.95" y="637.573" width="5.44738" height="14.1632" fill="#0F786E"/>
<rect x="1296.47" y="637.573" width="5.44738" height="14.1632" fill="#0F786E"/>
<rect x="1222.39" y="662.631" width="5.44738" height="14.1632" fill="#0F786E"/>
<rect x="1240.91" y="662.631" width="5.44738" height="14.1632" fill="#0F786E"/>
<rect x="1259.43" y="662.631" width="5.44738" height="14.1632" fill="#0F786E"/>
<rect x="1277.95" y="662.631" width="5.44738" height="14.1632" fill="#0F786E"/>
<rect x="1296.47" y="662.631" width="5.44738" height="14.1632" fill="#0F786E"/>
<rect x="1222.39" y="687.688" width="5.44738" height="14.1632" fill="#0F786E"/>
<rect x="1240.91" y="687.688" width="5.44738" height="14.1632" fill="#0F786E"/>
<rect x="1259.43" y="687.688" width="5.44738" height="14.1632" fill="#0F786E"/>
<rect x="1277.95" y="687.688" width="5.44738" height="14.1632" fill="#0F786E"/>
<rect x="1296.47" y="687.688" width="5.44738" height="14.1632" fill="#0F786E"/>
<rect x="1222.39" y="712.746" width="5.44738" height="14.1632" fill="#0F786E"/>
<rect x="1240.91" y="712.746" width="5.44738" height="14.1632" fill="#0F786E"/>
<rect x="1259.43" y="712.746" width="5.44738" height="14.1632" fill="#0F786E"/>
<rect x="1277.95" y="712.746" width="5.44738" height="14.1632" fill="#0F786E"/>
<rect x="1296.47" y="712.746" width="5.44738" height="14.1632" fill="#0F786E"/>
<rect x="124.196" y="620.143" width="4.3579" height="18.5211" fill="#0F786E"/>
<rect x="133.457" y="620.143" width="4.3579" height="18.5211" fill="#0F786E"/>
<rect x="142.716" y="620.143" width="4.3579" height="18.5211" fill="#0F786E"/>
<rect x="151.977" y="620.143" width="4.3579" height="18.5211" fill="#0F786E"/>
<rect x="161.238" y="620.143" width="4.3579" height="18.5211" fill="#0F786E"/>
<rect x="170.499" y="620.143" width="4.3579" height="18.5211" fill="#0F786E"/>
<rect x="179.759" y="620.143" width="4.3579" height="18.5211" fill="#0F786E"/>
<rect x="189.019" y="620.143" width="4.3579" height="18.5211" fill="#0F786E"/>
<rect x="198.28" y="620.143" width="4.3579" height="18.5211" fill="#0F786E"/>
<rect x="207.541" y="620.143" width="4.3579" height="18.5211" fill="#0F786E"/>
<rect x="216.801" y="620.143" width="4.3579" height="18.5211" fill="#0F786E"/>
<rect x="226.062" y="620.143" width="4.3579" height="18.5211" fill="#0F786E"/>
<rect x="124.196" y="641.931" width="4.3579" height="18.5211" fill="#0F786E"/>
<rect x="133.457" y="641.931" width="4.3579" height="18.5211" fill="#0F786E"/>
<rect x="142.716" y="641.931" width="4.3579" height="18.5211" fill="#0F786E"/>
<rect x="151.977" y="641.931" width="4.3579" height="18.5211" fill="#0F786E"/>
<rect x="161.238" y="641.931" width="4.3579" height="18.5211" fill="#0F786E"/>
<rect x="170.499" y="641.931" width="4.3579" height="18.5211" fill="#0F786E"/>
<rect x="179.759" y="641.931" width="4.3579" height="18.5211" fill="#0F786E"/>
<rect x="189.019" y="641.931" width="4.3579" height="18.5211" fill="#0F786E"/>
<rect x="198.28" y="641.931" width="4.3579" height="18.5211" fill="#0F786E"/>
<rect x="207.541" y="641.931" width="4.3579" height="18.5211" fill="#0F786E"/>
<rect x="216.801" y="641.931" width="4.3579" height="18.5211" fill="#0F786E"/>
<rect x="226.062" y="641.931" width="4.3579" height="18.5211" fill="#0F786E"/>
<rect x="124.196" y="663.72" width="4.3579" height="18.5211" fill="#0F786E"/>
<rect x="133.457" y="663.72" width="4.3579" height="18.5211" fill="#0F786E"/>
<rect x="142.716" y="663.72" width="4.3579" height="18.5211" fill="#0F786E"/>
<rect x="151.977" y="663.72" width="4.3579" height="18.5211" fill="#0F786E"/>
<rect x="161.238" y="663.72" width="4.3579" height="18.5211" fill="#0F786E"/>
<rect x="170.499" y="663.72" width="4.3579" height="18.5211" fill="#0F786E"/>
<rect x="179.759" y="663.72" width="4.3579" height="18.5211" fill="#0F786E"/>
<rect x="189.019" y="663.72" width="4.3579" height="18.5211" fill="#0F786E"/>
<rect x="198.28" y="663.72" width="4.3579" height="18.5211" fill="#0F786E"/>
<rect x="207.541" y="663.72" width="4.3579" height="18.5211" fill="#0F786E"/>
<rect x="216.801" y="663.72" width="4.3579" height="18.5211" fill="#0F786E"/>
<rect x="226.062" y="663.72" width="4.3579" height="18.5211" fill="#0F786E"/>
<rect x="124.196" y="685.511" width="4.3579" height="18.5211" fill="#0F786E"/>
<rect x="133.457" y="685.511" width="4.3579" height="18.5211" fill="#0F786E"/>
<rect x="142.716" y="685.511" width="4.3579" height="18.5211" fill="#0F786E"/>
<rect x="151.977" y="685.511" width="4.3579" height="18.5211" fill="#0F786E"/>
<rect x="161.238" y="685.511" width="4.3579" height="18.5211" fill="#0F786E"/>
<rect x="170.499" y="685.511" width="4.3579" height="18.5211" fill="#0F786E"/>
<rect x="179.759" y="685.511" width="4.3579" height="18.5211" fill="#0F786E"/>
<rect x="189.019" y="685.511" width="4.3579" height="18.5211" fill="#0F786E"/>
<rect x="198.28" y="685.511" width="4.3579" height="18.5211" fill="#0F786E"/>
<rect x="207.541" y="685.511" width="4.3579" height="18.5211" fill="#0F786E"/>
<rect x="216.801" y="685.511" width="4.3579" height="18.5211" fill="#0F786E"/>
<rect x="226.062" y="685.511" width="4.3579" height="18.5211" fill="#0F786E"/>
<rect x="161.238" y="707.299" width="4.3579" height="18.5211" fill="#0F786E"/>
<rect x="170.499" y="707.299" width="4.3579" height="18.5211" fill="#0F786E"/>
<rect x="179.759" y="707.299" width="4.3579" height="18.5211" fill="#0F786E"/>
<rect x="189.019" y="707.299" width="4.3579" height="18.5211" fill="#0F786E"/>
<rect x="198.28" y="707.299" width="4.3579" height="18.5211" fill="#0F786E"/>
<rect x="207.541" y="707.299" width="4.3579" height="18.5211" fill="#0F786E"/>
<rect x="216.801" y="707.299" width="4.3579" height="18.5211" fill="#0F786E"/>
<rect x="226.062" y="707.299" width="4.3579" height="18.5211" fill="#0F786E"/>
<rect x="170.499" y="729.09" width="4.3579" height="18.5211" fill="#0F786E"/>
<rect x="179.759" y="729.09" width="4.3579" height="18.5211" fill="#0F786E"/>
<rect x="189.019" y="729.09" width="4.3579" height="18.5211" fill="#0F786E"/>
<rect x="198.28" y="729.09" width="4.3579" height="18.5211" fill="#0F786E"/>
<rect x="207.541" y="729.09" width="4.3579" height="18.5211" fill="#0F786E"/>
<rect x="216.801" y="729.09" width="4.3579" height="18.5211" fill="#0F786E"/>
<rect x="226.062" y="729.09" width="4.3579" height="18.5211" fill="#0F786E"/>
<rect x="-27.2422" y="639.752" width="66.458" height="237.506" fill="#045954"/>
<rect x="39.2158" y="709.478" width="51.2054" height="167.779" fill="#045954"/>
<rect x="118.748" y="748.699" width="65.3685" height="128.558" fill="#045954"/>
<rect x="184.116" y="709.478" width="65.3685" height="167.779" fill="#045954"/>
<rect x="249.485" y="789.012" width="65.3685" height="88.2475" fill="#045954"/>
<rect x="314.853" y="677.884" width="61.0106" height="199.374" fill="#045954"/>
<rect x="375.864" y="733.447" width="61.0106" height="143.811" fill="#045954"/>
<rect x="436.874" y="800.995" width="43.579" height="76.2633" fill="#045954"/>
<rect x="480.453" y="760.685" width="43.579" height="116.574" fill="#045954"/>
<rect x="552.359" y="800.995" width="43.579" height="76.2633" fill="#045954"/>
<rect x="595.938" y="733.447" width="81.7107" height="143.811" fill="#045954"/>
<rect x="677.648" y="818.426" width="57.7422" height="58.8317" fill="#045954"/>
<rect x="735.391" y="774.846" width="117.663" height="102.411" fill="#045954"/>
<rect x="870.485" y="748.699" width="76.2633" height="128.558" fill="#045954"/>
<rect x="965.271" y="677.884" width="76.2633" height="199.374" fill="#045954"/>
<rect x="1069.86" y="748.699" width="120.932" height="128.558" fill="#045954"/>
<rect x="1219.12" y="760.685" width="37.0422" height="116.574" fill="#045954"/>
<rect x="1256.16" y="677.884" width="98.0528" height="199.374" fill="#045954"/>
<rect x="1354.21" y="789.012" width="98.0528" height="88.2475" fill="#045954"/>
<rect x="1441.37" y="639.752" width="100.232" height="237.506" fill="#045954"/>
<rect x="1028.46" y="789.012" width="67.5475" height="76.2633" fill="#045954"/>
<rect x="836.712" y="800.995" width="67.5475" height="64.2791" fill="#045954"/>
<rect x="-27.2422" y="854.38" width="1568.84" height="22.879" fill="#045954"/>
<line x1="375.864" y1="730.723" x2="441.233" y2="730.723" stroke="#045954" stroke-width="5.44738"/>
<line x1="477.185" y1="757.961" x2="527.301" y2="757.961" stroke="#045954" stroke-width="5.44738"/>
<line x1="591.579" y1="730.723" x2="683.095" y2="730.723" stroke="#045954" stroke-width="5.44738"/>
<line x1="867.218" y1="745.976" x2="950.018" y2="745.976" stroke="#045954" stroke-width="5.44738"/>
<line x1="962.001" y1="675.161" x2="1044.8" y2="675.161" stroke="#045954" stroke-width="5.44738"/>
<line x1="965.271" y1="671.892" x2="1040.44" y2="671.892" stroke="#045954" stroke-width="5.44738"/>
<line x1="1009.94" y1="663.176" x2="1037.17" y2="663.176" stroke="#045954" stroke-width="11.9842"/>
<line x1="1326.98" y1="671.892" x2="1354.21" y2="671.892" stroke="#045954" stroke-width="11.9842"/>
<line x1="1437.01" y1="633.76" x2="1545.96" y2="633.76" stroke="#045954" stroke-width="11.9842"/>
<rect x="321.389" y="670.257" width="18.5211" height="10.8948" fill="#045954"/>
<rect x="483.722" y="747.611" width="18.5211" height="10.8948" fill="#045954"/>
<line x1="1508.92" y1="639.752" x2="1508.92" y2="598.352" stroke="#045954" stroke-width="2.17895"/>
<line x1="1340.59" y1="669.168" x2="1340.59" y2="646.289" stroke="#045954" stroke-width="1.08948"/>
<path d="M135.09 782.474L177.548 857.647H92.6315L135.09 782.474Z" fill="#045954"/>
<path d="M946.749 793.37L989.207 868.544H904.291L946.749 793.37Z" fill="#045954"/>
<path d="M1219.12 760.685L1274.07 856.559H1189.16L1219.12 760.685Z" fill="#045954"/>
<path d="M851.965 726.366V774.848H735.391L851.965 726.366Z" fill="#045954"/>
<line x1="737.57" y1="826.053" x2="737.57" y2="767.221" stroke="#045954" stroke-width="4.3579"/>
<line x1="850.874" y1="780.296" x2="850.874" y2="721.464" stroke="#045954" stroke-width="4.3579"/>
<line x1="794.223" y1="800.995" x2="794.223" y2="742.164" stroke="#045954" stroke-width="4.3579"/>
<line x1="765.897" y1="812.978" x2="765.897" y2="754.147" stroke="#045954" stroke-width="4.3579"/>
<line x1="822.549" y1="789.012" x2="822.549" y2="730.18" stroke="#045954" stroke-width="4.3579"/>
<rect x="970.718" y="683.33" width="3.26843" height="10.8948" fill="#046762"/>
<rect x="991.417" y="683.33" width="3.26843" height="10.8948" fill="#046762"/>
<rect x="1012.12" y="683.33" width="3.26843" height="10.8948" fill="#046762"/>
<rect x="1032.82" y="683.33" width="3.26843" height="10.8948" fill="#046762"/>
<rect x="970.718" y="699.673" width="3.26843" height="10.8948" fill="#046762"/>
<rect x="991.417" y="699.673" width="3.26843" height="10.8948" fill="#046762"/>
<rect x="1012.12" y="699.673" width="3.26843" height="10.8948" fill="#046762"/>
<rect x="1032.82" y="699.673" width="3.26843" height="10.8948" fill="#046762"/>
<rect x="970.718" y="716.015" width="3.26843" height="10.8948" fill="#046762"/>
<rect x="991.417" y="716.015" width="3.26843" height="10.8948" fill="#046762"/>
<rect x="1012.12" y="716.015" width="3.26843" height="10.8948" fill="#046762"/>
<rect x="1032.82" y="716.015" width="3.26843" height="10.8948" fill="#046762"/>
<rect x="970.718" y="732.356" width="3.26843" height="10.8948" fill="#046762"/>
<rect x="991.417" y="732.356" width="3.26843" height="10.8948" fill="#046762"/>
<rect x="1012.12" y="732.356" width="3.26843" height="10.8948" fill="#046762"/>
<rect x="1032.82" y="732.356" width="3.26843" height="10.8948" fill="#046762"/>
<rect x="970.718" y="748.697" width="3.26843" height="10.8948" fill="#046762"/>
<rect x="991.417" y="748.697" width="3.26843" height="10.8948" fill="#046762"/>
<rect x="1012.12" y="748.697" width="3.26843" height="10.8948" fill="#046762"/>
<rect x="1032.82" y="748.697" width="3.26843" height="10.8948" fill="#046762"/>
<rect x="970.718" y="765.041" width="3.26843" height="10.8948" fill="#046762"/>
<rect x="991.417" y="765.041" width="3.26843" height="10.8948" fill="#046762"/>
<rect x="1012.12" y="765.041" width="3.26843" height="10.8948" fill="#046762"/>
<rect x="1032.82" y="765.041" width="3.26843" height="10.8948" fill="#046762"/>
<rect x="970.718" y="781.383" width="3.26843" height="10.8948" fill="#046762"/>
<rect x="991.417" y="781.383" width="3.26843" height="10.8948" fill="#046762"/>
<rect x="1012.12" y="781.383" width="3.26843" height="10.8948" fill="#046762"/>
<rect x="1032.82" y="781.383" width="3.26843" height="10.8948" fill="#046762"/>
<rect x="970.718" y="797.724" width="3.26843" height="10.8948" fill="#046762"/>
<rect x="991.417" y="797.724" width="3.26843" height="10.8948" fill="#046762"/>
<rect x="1012.12" y="797.724" width="3.26843" height="10.8948" fill="#046762"/>
<rect x="1032.82" y="797.724" width="3.26843" height="10.8948" fill="#046762"/>
<rect x="970.718" y="814.068" width="3.26843" height="10.8948" fill="#046762"/>
<rect x="991.417" y="814.068" width="3.26843" height="10.8948" fill="#046762"/>
<rect x="1012.12" y="814.068" width="3.26843" height="10.8948" fill="#046762"/>
<rect x="970.718" y="830.409" width="3.26843" height="10.8948" fill="#046762"/>
<rect x="991.417" y="830.409" width="3.26843" height="10.8948" fill="#046762"/>
<rect x="1012.12" y="830.409" width="3.26843" height="10.8948" fill="#046762"/>
<rect x="1032.82" y="814.068" width="3.26843" height="10.8948" fill="#046762"/>
<rect x="748.465" y="778.117" width="6.53685" height="10.8948" fill="#046762"/>
<rect x="776.792" y="778.117" width="6.53685" height="10.8948" fill="#046762"/>
<rect x="805.117" y="778.117" width="6.53685" height="10.8948" fill="#046762"/>
<rect x="833.444" y="778.117" width="6.53685" height="10.8948" fill="#046762"/>
<rect x="748.465" y="803.178" width="6.53685" height="10.8948" fill="#046762"/>
<rect x="776.792" y="803.178" width="6.53685" height="10.8948" fill="#046762"/>
<rect x="805.117" y="803.178" width="6.53685" height="10.8948" fill="#046762"/>
<rect x="833.444" y="803.178" width="6.53685" height="10.8948" fill="#046762"/>
<rect x="748.464" y="828.233" width="6.53685" height="10.8948" fill="#046762"/>
<rect x="776.792" y="828.233" width="6.53685" height="10.8948" fill="#046762"/>
<rect x="805.117" y="828.233" width="6.53685" height="10.8948" fill="#046762"/>
<rect x="833.444" y="828.233" width="6.53685" height="10.8948" fill="#046762"/>
<rect x="1449" y="646.291" width="6.53685" height="16.3421" fill="#046762"/>
<rect x="1458.8" y="646.291" width="5.44738" height="16.3421" fill="#046762"/>
<rect x="1467.52" y="646.291" width="4.3579" height="16.3421" fill="#046762"/>
<rect x="1261.61" y="683.332" width="5.44738" height="9.80528" fill="#046762"/>
<rect x="1276.86" y="683.332" width="4.3579" height="9.80528" fill="#046762"/>
<rect x="1291.02" y="683.332" width="3.26843" height="9.80528" fill="#046762"/>
<rect x="1304.1" y="683.332" width="2.17895" height="9.80528" fill="#046762"/>
<rect x="1316.08" y="683.332" width="1.08948" height="9.80528" fill="#046762"/>
<rect x="1261.61" y="699.673" width="5.44738" height="9.80528" fill="#046762"/>
<rect x="1276.86" y="699.673" width="4.3579" height="9.80528" fill="#046762"/>
<rect x="1291.02" y="699.673" width="3.26843" height="9.80528" fill="#046762"/>
<rect x="1304.1" y="699.673" width="2.17895" height="9.80528" fill="#046762"/>
<rect x="1316.08" y="699.673" width="1.08948" height="9.80528" fill="#046762"/>
<rect x="1261.61" y="716.017" width="5.44738" height="9.80528" fill="#046762"/>
<rect x="1276.86" y="716.017" width="4.3579" height="9.80528" fill="#046762"/>
<rect x="1291.02" y="716.017" width="3.26843" height="9.80528" fill="#046762"/>
<rect x="1304.1" y="716.017" width="2.17895" height="9.80528" fill="#046762"/>
<rect x="1316.08" y="716.017" width="1.08948" height="9.80528" fill="#046762"/>
<rect x="1261.61" y="732.358" width="5.44738" height="9.80528" fill="#046762"/>
<rect x="1276.86" y="732.358" width="4.3579" height="9.80528" fill="#046762"/>
<rect x="1291.02" y="732.358" width="3.26843" height="9.80528" fill="#046762"/>
<rect x="1304.1" y="732.358" width="2.17895" height="9.80528" fill="#046762"/>
<rect x="1316.08" y="732.358" width="1.08948" height="9.80528" fill="#046762"/>
<rect x="318.121" y="681.154" width="4.3579" height="6.53685" fill="#046762"/>
<rect x="324.658" y="681.154" width="4.3579" height="6.53685" fill="#046762"/>
<rect x="318.121" y="690.959" width="4.3579" height="6.53685" fill="#046762"/>
<rect x="318.121" y="700.762" width="4.3579" height="6.53685" fill="#046762"/>
<rect x="324.658" y="690.959" width="4.3579" height="6.53685" fill="#046762"/>
<rect x="331.196" y="681.154" width="4.3579" height="6.53685" fill="#046762"/>
<rect x="783.327" y="638.661" width="5.44738" height="8.71581" fill="#158075"/>
<rect x="793.132" y="638.661" width="5.44738" height="8.71581" fill="#158075"/>
<rect x="783.327" y="651.736" width="5.44738" height="8.71581" fill="#158075"/>
<rect x="783.327" y="664.808" width="5.44738" height="8.71581" fill="#158075"/>
<rect x="793.132" y="651.736" width="5.44738" height="8.71581" fill="#158075"/>
<rect x="802.938" y="638.661" width="5.44738" height="8.71581" fill="#158075"/>
<g clip-path="url(#clip0_1_2)">
<path d="M2386.15 934H-1019C-754.058 918.321 -470.113 898.817 -213.48 875.269C300.399 828.12 493.623 784.141 570.109 753H833.757C863.792 781.644 996.127 827.292 1536.77 875.956C1806.07 900.201 2112.49 919.414 2386.22 934H2386.15Z" fill="#FBF7F3"/>
<path d="M2530 934H-875.154C-610.212 918.321 -326.267 898.817 -69.6343 875.269C444.245 828.12 637.469 784.141 713.886 753H977.535C1007.57 781.644 1139.91 827.292 1680.55 875.956C1949.85 900.201 2256.27 919.414 2530 934Z" fill="#FBF7F3"/>
<path d="M2339.3 934H-827.751C-581.334 918.321 -317.277 898.817 -78.5568 875.269C399.429 828.12 579.099 784.141 650.204 753H895.395C923.32 781.644 1046.46 827.292 1549.24 875.956C1799.74 900.201 2084.71 919.414 2339.3 934Z" fill="#333333"/>
<path d="M915.11 934H595C610.665 922.639 626.398 911.281 642.063 899.919H886.845L915.11 934Z" fill="#FBF7F3"/>
<path d="M858.688 879.635H653C663.08 871.79 673.16 863.946 683.24 856.105H840.503C846.564 863.949 852.626 871.794 858.62 879.635H858.688Z" fill="#FBF7F3"/>
<path d="M814.147 839.471H697C702.721 834.196 708.51 828.924 714.231 823.648H803.794L814.147 839.471Z" fill="#FBF7F3"/>
<path d="M798.294 809.852H712C716.223 806.201 720.445 802.55 724.668 798.899H790.665C793.185 802.55 795.773 806.201 798.294 809.852Z" fill="#FBF7F3"/>
<path d="M787.226 786.322H723C726.133 783.615 729.266 780.912 732.467 778.206H781.573C783.48 780.912 785.319 783.615 787.226 786.322Z" fill="#FBF7F3"/>
<path d="M777.679 768.878H733C735.179 766.714 737.359 764.55 739.607 762.387H773.797C775.091 764.55 776.453 766.714 777.747 768.878H777.679Z" fill="#FBF7F3"/>
<path d="M771.079 757.465H739C740.566 756.016 742.133 754.566 743.7 753.117H768.219C769.172 754.566 770.126 756.016 771.079 757.465Z" fill="#FBF7F3"/>
</g>
<defs>
<clipPath id="clip0_1_2">
<rect width="3549" height="181" fill="white" transform="translate(-1019 753)"/>
</clipPath>
</defs>
</svg>
