<svg width="1514" height="1241" viewBox="0 0 1514 1241" fill="none" xmlns="http://www.w3.org/2000/svg">
<rect y="1.52588e-05" width="1514" height="1241" fill="#FBF7F2"/>
<mask id="mask0_210_12" style="mask-type:alpha" maskUnits="userSpaceOnUse" x="0" y="0" width="1514" height="1241">
<rect y="3.05176e-05" width="1514" height="1241" fill="#FBF7F2"/>
</mask>
<g mask="url(#mask0_210_12)">
<path d="M1363.68 282.449C1603.2 258.144 1886.57 -7.88669 1886.57 -7.88669L-191.335 -202L-241.123 330.957C-241.123 330.957 59.7342 484.222 262.969 467.487C521.383 446.209 553.224 161.186 810.919 134.53C1032.95 111.562 1141.59 304.986 1363.68 282.449Z" fill="#F2E6D7"/>
<path fill-rule="evenodd" clip-rule="evenodd" d="M1259.12 1011.94C1434.1 976.2 1612.64 879.262 1747.73 791L1815.24 1734.58C1685.09 1750.48 1589.36 1723.42 1492.59 1696.06C1397.56 1669.2 1301.53 1642.05 1170.91 1655.01C996.391 1672.34 899.203 1736.22 799.729 1801.61C708.555 1861.54 615.462 1922.73 459.149 1950.49C282.761 1981.81 69.7911 1970.4 -123.841 1944.97L-188.32 1043.76C-122.175 1036.55 -66.4967 1033.24 -11.3837 1029.97C101.616 1023.26 212.237 1016.69 405.809 976.884C568.628 943.404 700.632 968.854 832.682 994.314C964.54 1019.74 1096.44 1045.17 1259.12 1011.94ZM-111.574 2116.42L-111.55 2116.76L1832.64 1977.66L1832.61 1977.32L-111.574 2116.42Z" fill="#F2E6D7"/>
</g>
</svg>
