<svg width="319" height="92" viewBox="0 0 319 92" fill="none" xmlns="http://www.w3.org/2000/svg">
<rect x="216.485" y="53.5098" width="41.6828" height="37.424" fill="#083D3A"/>
<path d="M237.495 28.2324L258.168 53.51H216.485L237.495 28.2324Z" fill="#E75431"/>
<path d="M233.629 46.8626C233.629 44.9133 235.209 43.333 237.158 43.333C239.108 43.333 240.688 44.9133 240.688 46.8626V49.5703H233.629V46.8626Z" fill="#F3E7D7"/>
<rect x="225.561" y="63.3574" width="2.68921" height="2.95453" fill="#FFF8EF"/>
<rect x="229.259" y="63.3574" width="2.68921" height="2.95453" fill="#FFF8EF"/>
<rect x="229.259" y="67.2979" width="2.68921" height="4.59593" fill="#FFF8EF"/>
<rect x="225.561" y="67.2979" width="2.68921" height="4.59593" fill="#FFF8EF"/>
<rect x="242.705" y="63.3574" width="2.68921" height="2.95453" fill="#FFF8EF"/>
<rect x="246.403" y="63.3574" width="2.68921" height="2.95453" fill="#FFF8EF"/>
<rect x="246.403" y="67.2979" width="2.68921" height="4.59593" fill="#FFF8EF"/>
<rect x="242.705" y="67.2979" width="2.68921" height="4.59593" fill="#FFF8EF"/>
<rect x="225.561" y="76.4893" width="2.68921" height="2.95453" fill="#FFF8EF"/>
<rect x="229.259" y="76.4893" width="2.68921" height="2.95453" fill="#FFF8EF"/>
<rect x="229.259" y="80.4297" width="2.68921" height="4.59593" fill="#FFF8EF"/>
<rect x="225.561" y="80.4297" width="2.68921" height="4.59593" fill="#FFF8EF"/>
<rect x="242.705" y="76.4902" width="2.68921" height="2.95453" fill="#FFF8EF"/>
<rect x="246.403" y="76.4902" width="2.68921" height="2.95453" fill="#FFF8EF"/>
<rect x="246.403" y="80.4307" width="2.68921" height="4.59593" fill="#FFF8EF"/>
<rect x="242.705" y="80.4307" width="2.68921" height="4.59593" fill="#FFF8EF"/>
<path d="M120.323 29.5469L116.312 43.6629H151.608L147.598 29.5469H120.323Z" fill="#A3CDB8"/>
<rect x="116.312" y="43.6641" width="35.2959" height="47.6007" fill="#DCB889"/>
<rect x="123.372" y="62.0459" width="2.68921" height="2.95453" fill="#F8E576"/>
<rect x="127.07" y="62.0459" width="2.68921" height="2.95453" fill="#F8E576"/>
<rect x="127.07" y="65.9863" width="2.68921" height="4.59593" fill="#F8E576"/>
<rect x="123.372" y="65.9863" width="2.68921" height="4.59593" fill="#F8E576"/>
<rect x="138.498" y="62.0459" width="2.68921" height="2.95453" fill="#FFF8EF"/>
<rect x="142.196" y="62.0459" width="2.68921" height="2.95453" fill="#FFF8EF"/>
<rect x="142.196" y="65.9863" width="2.68921" height="4.59593" fill="#FFF8EF"/>
<rect x="138.498" y="65.9863" width="2.68921" height="4.59593" fill="#FFF8EF"/>
<rect x="123.372" y="50.8848" width="2.68921" height="2.95453" fill="#FFF8EF"/>
<rect x="127.069" y="50.8848" width="2.68921" height="2.95453" fill="#FFF8EF"/>
<rect x="127.069" y="54.8252" width="2.68921" height="4.59593" fill="#FFF8EF"/>
<rect x="123.372" y="54.8252" width="2.68921" height="4.59593" fill="#FFF8EF"/>
<rect x="138.498" y="50.8848" width="2.68921" height="2.95453" fill="#FFF8EF"/>
<rect x="142.196" y="50.8848" width="2.68921" height="2.95453" fill="#FFF8EF"/>
<rect x="142.196" y="54.8252" width="2.68921" height="4.59593" fill="#FFF8EF"/>
<rect x="138.498" y="54.8252" width="2.68921" height="4.59593" fill="#FFF8EF"/>
<rect x="123.372" y="79.7734" width="6.38688" height="10.1767" fill="#5A978C"/>
<path d="M179.035 7.22168L176.82 17.0701H196.317L194.101 7.22168H179.035Z" fill="#F8C687"/>
<rect x="176.82" y="17.0703" width="19.4968" height="73.8632" fill="#628948"/>
<rect x="174.131" y="86.666" width="24.5391" height="4.26765" fill="#333333"/>
<rect x="183.207" y="24.9492" width="2.68921" height="2.95453" fill="#FFF8EF"/>
<rect x="186.904" y="24.9492" width="2.68921" height="2.95453" fill="#FFF8EF"/>
<rect x="186.904" y="28.8896" width="2.68921" height="4.59593" fill="#FFF8EF"/>
<rect x="183.207" y="28.8896" width="2.68921" height="4.59593" fill="#FFF8EF"/>
<rect x="183.208" y="41.0352" width="2.68921" height="2.95453" fill="#FFF8EF"/>
<rect x="186.905" y="41.0352" width="2.68921" height="2.95453" fill="#FFF8EF"/>
<rect x="186.905" y="44.9756" width="2.68921" height="4.59593" fill="#FFF8EF"/>
<rect x="183.208" y="44.9756" width="2.68921" height="4.59593" fill="#FFF8EF"/>
<rect x="183.207" y="58.4336" width="2.68921" height="2.95453" fill="#FFF8EF"/>
<rect x="186.905" y="58.4336" width="2.68921" height="2.95453" fill="#FFF8EF"/>
<rect x="186.904" y="62.374" width="2.68921" height="4.59593" fill="#FFF8EF"/>
<rect x="183.207" y="62.374" width="2.68921" height="4.59593" fill="#FFF8EF"/>
<rect x="181.526" width="3.36152" height="7.22218" fill="#F8C687"/>
<rect x="182.198" y="0.657227" width="2.01691" height="1.6414" fill="#333333"/>
<path d="M65.5231 38.0791L61.856 52.1952H94.1265L90.4594 38.0791H65.5231Z" fill="#F3E7D7"/>
<rect x="61.856" y="52.1953" width="32.2706" height="39.0654" fill="#E75431"/>
<rect x="72.9487" y="61.7148" width="5.04227" height="6.56561" fill="#FFF8EF"/>
<path d="M77.8054 61.879C77.8042 61.8904 77.8029 61.9021 77.8016 61.9142C77.7682 62.2214 77.7104 62.7544 77.5581 63.4007C77.3577 64.251 77.0011 65.2494 76.3513 66.0426C75.5341 67.0403 74.7786 67.3933 74.1813 67.5801C74.0299 67.6274 73.8879 67.6643 73.7538 67.6988C73.7472 67.7005 73.7405 67.7022 73.7339 67.7039C73.6087 67.7361 73.4878 67.7671 73.3788 67.8024C73.2861 67.8324 73.1959 67.8672 73.1129 67.9125V61.879H77.8054Z" fill="#FFBE6C" stroke="#FFBE6C" stroke-width="0.328282"/>
<rect width="5.04227" height="6.56561" transform="matrix(-1 0 0 1 84.042 61.7148)" fill="#FFF8EF"/>
<path d="M79.1853 61.879C79.1866 61.8904 79.1878 61.9021 79.1891 61.9142C79.2225 62.2214 79.2803 62.7544 79.4326 63.4007C79.633 64.251 79.9896 65.2494 80.6394 66.0426C81.4566 67.0403 82.2122 67.3933 82.8094 67.5801C82.9608 67.6274 83.1029 67.6643 83.2369 67.6988C83.2436 67.7005 83.2502 67.7022 83.2569 67.7039C83.3821 67.7361 83.5029 67.7671 83.6119 67.8024C83.7046 67.8324 83.7948 67.8672 83.8779 67.9125V61.879H79.1853Z" fill="#FFBE6C" stroke="#FFBE6C" stroke-width="0.328282"/>
<rect x="72.9487" y="76.4883" width="5.04227" height="6.56561" fill="#FFF8EF"/>
<path d="M77.8054 76.6524C77.8042 76.6638 77.8029 76.6756 77.8016 76.6877C77.7682 76.9949 77.7104 77.5279 77.5581 78.1741C77.3577 79.0245 77.0011 80.0229 76.3513 80.8161C75.5341 81.8137 74.7786 82.1668 74.1813 82.3535C74.0299 82.4009 73.8879 82.4378 73.7538 82.4722C73.7472 82.4739 73.7405 82.4757 73.7339 82.4774C73.6087 82.5095 73.4878 82.5406 73.3788 82.5759C73.2861 82.6059 73.1959 82.6407 73.1129 82.6859V76.6524H77.8054Z" fill="#FFBE6C" stroke="#FFBE6C" stroke-width="0.328282"/>
<rect width="5.04227" height="6.56561" transform="matrix(-1 0 0 1 84.042 76.4883)" fill="#FFF8EF"/>
<path d="M79.1853 76.6524C79.1866 76.6638 79.1878 76.6756 79.1891 76.6877C79.2225 76.9949 79.2803 77.5279 79.4326 78.1741C79.633 79.0245 79.9896 80.0229 80.6394 80.8161C81.4566 81.8137 82.2122 82.1668 82.8094 82.3535C82.9608 82.4009 83.1029 82.4378 83.2369 82.4722C83.2436 82.4739 83.2502 82.4757 83.2569 82.4774C83.3821 82.5095 83.5029 82.5406 83.6119 82.5759C83.7046 82.6059 83.7948 82.6407 83.8779 82.6859V76.6524H79.1853Z" fill="#FFBE6C" stroke="#FFBE6C" stroke-width="0.328282"/>
<path d="M287.246 15.7578L280.355 30.038H316.996L311.113 15.7578H287.246Z" fill="#FFC780"/>
<rect x="280.355" y="30.0381" width="13.7822" height="61.0602" fill="#5AA57F"/>
<rect x="294.137" y="30.0381" width="22.8583" height="61.0602" fill="#A3CDB8"/>
<path d="M287.246 15.7578L294.137 30.038H280.355L287.246 15.7578Z" fill="#5AA57F"/>
<rect x="302.877" y="38.5742" width="3.69767" height="6.56561" fill="#FFF8EF"/>
<path d="M306.363 38.7384C306.341 38.8058 306.311 38.8889 306.274 38.9873C306.189 39.2088 306.068 39.4926 305.918 39.8186C305.617 40.4703 305.198 41.2857 304.709 42.1008C304.096 43.1207 303.678 43.6903 303.378 44.0867C303.345 44.1305 303.313 44.1725 303.282 44.2129C303.193 44.3301 303.113 44.4346 303.042 44.5352V38.7384H306.363Z" fill="#EC765A" stroke="#EC765A" stroke-width="0.328282"/>
<rect width="3.69767" height="6.56561" transform="matrix(-1 0 0 1 311.282 38.5742)" fill="#FFF8EF"/>
<path d="M307.796 38.7384C307.818 38.8058 307.848 38.8889 307.886 38.9873C307.971 39.2088 308.091 39.4926 308.242 39.8186C308.542 40.4703 308.961 41.2857 309.45 42.1008C310.063 43.1207 310.481 43.6903 310.781 44.0867C310.814 44.1305 310.846 44.1725 310.877 44.2129C310.966 44.3301 311.046 44.4346 311.118 44.5352V38.7384H307.796Z" fill="#EC765A" stroke="#EC765A" stroke-width="0.328282"/>
<rect x="302.878" y="48.749" width="3.69767" height="6.56561" fill="#FFF8EF"/>
<path d="M306.363 48.9132C306.341 48.9806 306.312 49.0637 306.274 49.1621C306.189 49.3836 306.069 49.6675 305.918 49.9934C305.617 50.6451 305.199 51.4605 304.709 52.2756C304.097 53.2955 303.679 53.8651 303.379 54.2615C303.346 54.3053 303.314 54.3473 303.283 54.3877C303.194 54.5049 303.114 54.6094 303.042 54.71V48.9132H306.363Z" fill="#EC765A" stroke="#EC765A" stroke-width="0.328282"/>
<rect width="3.69767" height="6.56561" transform="matrix(-1 0 0 1 311.281 48.749)" fill="#FFF8EF"/>
<path d="M307.796 48.9132C307.818 48.9806 307.847 49.0637 307.885 49.1621C307.97 49.3836 308.091 49.6675 308.241 49.9934C308.542 50.6451 308.96 51.4605 309.45 52.2756C310.063 53.2955 310.48 53.8651 310.78 54.2615C310.814 54.3053 310.846 54.3473 310.876 54.3877C310.966 54.5049 311.045 54.6094 311.117 54.71V48.9132H307.796Z" fill="#EC765A" stroke="#EC765A" stroke-width="0.328282"/>
<rect x="302.877" y="58.9268" width="3.69767" height="6.56561" fill="#FFF8EF"/>
<path d="M306.363 59.0909C306.341 59.1584 306.311 59.2414 306.274 59.3398C306.189 59.5613 306.068 59.8452 305.918 60.1711C305.617 60.8229 305.198 61.6383 304.709 62.4533C304.096 63.4732 303.678 64.0428 303.378 64.4392C303.345 64.483 303.313 64.525 303.282 64.5655C303.193 64.6826 303.113 64.7871 303.042 64.8877V59.0909H306.363Z" fill="#EC765A" stroke="#EC765A" stroke-width="0.328282"/>
<rect width="3.69767" height="6.56561" transform="matrix(-1 0 0 1 311.281 58.9268)" fill="#FFF8EF"/>
<path d="M307.796 59.0909C307.818 59.1584 307.847 59.2414 307.885 59.3398C307.97 59.5613 308.091 59.8452 308.241 60.1711C308.542 60.8229 308.96 61.6383 309.45 62.4533C310.063 63.4732 310.48 64.0428 310.78 64.4392C310.814 64.483 310.846 64.525 310.876 64.5655C310.966 64.6826 311.045 64.7871 311.117 64.8877V59.0909H307.796Z" fill="#EC765A" stroke="#EC765A" stroke-width="0.328282"/>
<rect x="294.137" y="84.5332" width="24.2029" height="6.56561" fill="#FBF7F1"/>
<rect x="284.725" y="76.3252" width="5.37843" height="14.7726" fill="#333333"/>
<path d="M36.1369 43.333L44.0396 52.1966H2.02061L8.76677 43.333H36.1369Z" fill="#FFBE6C"/>
<rect width="15.7991" height="38.7371" transform="matrix(-1 0 0 1 44.0396 52.1963)" fill="#79B6CA"/>
<rect width="26.2198" height="38.7371" transform="matrix(-1 0 0 1 28.2407 52.1963)" fill="#F5AE55"/>
<path d="M36.14 43.333L28.2404 52.1966H44.0396L36.14 43.333Z" fill="#79B6CA"/>
<rect width="27.9006" height="3.93937" transform="matrix(-1 0 0 1 28.2407 86.9941)" fill="#A3CDB8"/>
<rect width="6.05073" height="11.4898" transform="matrix(-1 0 0 1 38.9971 79.4434)" fill="#333333"/>
<rect x="5.71826" y="57.7773" width="2.68921" height="2.95453" fill="#FFF8EF"/>
<rect x="9.41553" y="57.7773" width="2.68921" height="2.95453" fill="#FFF8EF"/>
<rect x="9.41553" y="61.7178" width="2.68921" height="4.59593" fill="#FFF8EF"/>
<rect x="5.71826" y="61.7178" width="2.68921" height="4.59593" fill="#FFF8EF"/>
<rect x="15.8027" y="57.7773" width="2.68921" height="2.95453" fill="#FFF8EF"/>
<rect x="19.5005" y="57.7773" width="2.68921" height="2.95453" fill="#FFF8EF"/>
<rect x="19.5005" y="61.7168" width="2.68921" height="4.59593" fill="#FFF8EF"/>
<rect x="15.8027" y="61.7168" width="2.68921" height="4.59593" fill="#FFF8EF"/>
<rect x="5.71777" y="73.2061" width="2.68921" height="2.95453" fill="#FFF8EF"/>
<rect x="9.41504" y="73.2061" width="2.68921" height="2.95453" fill="#FFF8EF"/>
<rect x="9.41504" y="77.1465" width="2.68921" height="4.59593" fill="#FFF8EF"/>
<rect x="5.71777" y="77.1465" width="2.68921" height="4.59593" fill="#FFF8EF"/>
<rect x="15.8027" y="73.2061" width="2.68921" height="2.95453" fill="#FFF8EF"/>
<rect x="19.5005" y="73.2061" width="2.68921" height="2.95453" fill="#FFF8EF"/>
<rect x="19.5005" y="77.1465" width="2.68921" height="4.59593" fill="#FFF8EF"/>
<rect x="15.8027" y="77.1465" width="2.68921" height="4.59593" fill="#FFF8EF"/>
<ellipse cx="36.8124" cy="57.2842" rx="2.18499" ry="2.13383" fill="#FFF8EF"/>
</svg>
