<svg width="253" height="301" viewBox="0 0 253 301" fill="none" xmlns="http://www.w3.org/2000/svg">
<path fill-rule="evenodd" clip-rule="evenodd" d="M140.685 0H178.396C178.574 7.43679 184.658 13.4107 192.138 13.4107C199.618 13.4107 205.702 7.43679 205.88 0H253V41.0199C245.755 41.4074 240 47.4047 240 54.7462C240 62.0877 245.755 68.0849 253 68.4725V104.554C245.755 104.942 240 110.939 240 118.281C240 125.622 245.755 131.62 253 132.007V168.087C245.755 168.475 240 174.472 240 181.814C240 189.155 245.755 195.152 253 195.54V231.62C245.755 232.008 240 238.005 240 245.347C240 252.688 245.755 258.685 253 259.073V301H206.53C206.532 300.916 206.532 300.831 206.532 300.746C206.532 293.154 200.378 287 192.786 287C185.194 287 179.04 293.154 179.04 300.746C179.04 300.831 179.041 300.916 179.042 301H141.335C141.337 300.916 141.337 300.831 141.337 300.746C141.337 293.154 135.183 287 127.591 287C119.999 287 113.845 293.154 113.845 300.746C113.845 300.831 113.846 300.916 113.847 301H76.1382L76.1394 300.919C76.1399 300.878 76.1402 300.837 76.1404 300.797L76.1404 300.746C76.1404 293.154 69.9861 287 62.3942 287C54.8024 287 48.648 293.154 48.648 300.746C48.648 300.831 48.6488 300.916 48.6503 301H0V259.286C7.5387 259.224 13.6308 253.093 13.6308 245.54C13.6308 237.987 7.5387 231.856 0 231.794V195.753C7.5387 195.691 13.6308 189.56 13.6308 182.007C13.6308 174.454 7.5387 168.323 0 168.261V132.22C7.5387 132.158 13.6308 126.027 13.6308 118.474C13.6308 110.921 7.5387 104.79 0 104.728V68.6853C7.5387 68.6233 13.6308 62.4929 13.6308 54.9396C13.6308 47.3862 7.5387 41.2558 0 41.1938V0H48.004C48.1821 7.43688 54.2665 13.4109 61.7462 13.4109C69.2259 13.4109 75.3103 7.43688 75.4884 0H113.201C113.379 7.43679 119.463 13.4107 126.943 13.4107C134.423 13.4107 140.507 7.43679 140.685 0Z" fill="#C6E0D3"/>
</svg>
