<svg xmlns="http://www.w3.org/2000/svg" fill="none" viewBox="0 522.732 1515.5576470588237 1262.3799999999999" style="max-height: 500px" width="1515.5576470588237" height="1262.3799999999999">
<g filter="url(#filter0_i_97_187)">
<path stroke-width="169.05" stroke="#444545" d="M3172.16 146.369C3084.98 231.427 2685.35 2.26244 2515.73 119.347C2290.01 275.157 2326.58 556.216 2145.25 659.048C1976.98 754.474 1842.14 555.118 1601.11 648.632C1360.08 742.145 1472.43 1056.34 1276.47 1113.53C1071.33 1173.4 892.129 909.802 654.333 1045.72C428.023 1175.08 478.584 1526.4 252.488 1660.03C26.3909 1793.66 -529.691 1504.12 -614.62 1075.01"/>
</g>
<path stroke-dasharray="56.38 56.38" stroke-width="9.39684" stroke="white" d="M3172.16 146.369C3084.98 231.427 2685.35 2.26244 2515.73 119.347C2290.01 275.157 2326.58 556.216 2145.25 659.048C1976.98 754.474 1842.14 555.118 1601.11 648.632C1360.08 742.145 1472.43 1056.34 1276.47 1113.53C1071.33 1173.4 892.129 909.802 654.333 1045.72C428.023 1175.08 478.584 1526.4 252.488 1660.03C26.3909 1793.66 -529.691 1504.12 -614.62 1075.01"/>
<defs>
<filter color-interpolation-filters="sRGB" filterUnits="userSpaceOnUse" height="1776.66" width="3928.72" y="0.746826" x="-697.537" id="filter0_i_97_187">
<feFlood result="BackgroundImageFix" flood-opacity="0"/>
<feBlend result="shape" in2="BackgroundImageFix" in="SourceGraphic" mode="normal"/>
<feColorMatrix result="hardAlpha" values="0 0 0 0 0 0 0 0 0 0 0 0 0 0 0 0 0 0 127 0" type="matrix" in="SourceAlpha"/>
<feOffset dy="9.45" dx="14.7"/>
<feComposite k3="1" k2="-1" operator="arithmetic" in2="hardAlpha"/>
<feColorMatrix values="0 0 0 0 0 0 0 0 0 0 0 0 0 0 0 0 0 0 0.1 0" type="matrix"/>
<feBlend result="effect1_innerShadow_97_187" in2="shape" mode="normal"/>
</filter>
</defs>
</svg>