<svg width="1512" height="510" viewBox="0 0 1512 510" fill="none" xmlns="http://www.w3.org/2000/svg">
<path d="M42.4845 69.5194C-24.4975 75.0702 -45.5211 141.964 -47.6602 174.717C-48.5895 223.606 -71.8988 313.014 1.37578 347.39C67.8275 378.565 233.395 377.391 367.792 367.435C501.21 357.551 530.999 358.117 617.072 359.754L618.975 359.79C699.291 361.317 930.579 378.133 987.426 379.213L1176.16 382.801C1271.43 384.612 1463.18 391.101 1539.38 361.272C1615.59 331.443 1591.01 278.089 1588.26 213.208C1585.51 148.326 1567.31 118.977 1479.58 96.8374C1391.86 74.6973 1126.43 85.5422 1026.38 83.6405C960.264 82.3839 770.48 89.0867 677.25 87.3145C577.971 85.4273 383.568 76.0031 285.791 74.1444C130.598 71.1943 126.212 62.5808 42.4845 69.5194Z" fill="#84AF67"/>
<path d="M90.4936 81.1653C28.645 86.2907 9.23259 148.058 7.25744 178.301C6.39934 223.443 -15.1236 305.998 52.5354 337.74C113.894 366.526 266.773 365.442 390.87 356.249C514.967 347.056 554.94 343.031 635.775 344.568C709.936 345.977 909.31 360.895 961.8 361.893C1014.29 362.89 1074.82 369.25 1137.28 370.437C1225.25 372.11 1402.31 378.101 1472.67 350.558C1543.03 323.016 1520.34 273.75 1517.8 213.841C1515.27 153.933 1498.45 126.833 1417.45 106.39C1336.45 85.9464 1094.63 93.6181 1002.23 93.6178C915.6 93.6175 804.3 105.833 674.1 101.493C548.1 97.293 405.437 87.1521 315.153 85.4358C171.854 82.7118 167.804 74.7584 90.4936 81.1653Z" fill="#F3E7D7"/>
<path d="M356.84 207.74C356.18 192.807 345.78 179.998 330.418 172.645C330.508 172.566 330.598 172.487 330.672 172.409C330.79 172.269 330.877 172.13 330.963 171.976C342.797 165.234 350.175 155.055 349.682 143.927C348.844 124.979 325.511 110.55 297.585 111.671L297.353 111.68C297.462 110.651 297.494 109.611 297.447 108.543C296.663 90.8282 275.28 77.2999 249.665 78.3282C246.316 78.4627 243.055 78.8346 239.928 79.4422C240.067 78.367 240.111 77.2655 240.063 76.1677C239.304 59.0094 215.802 46.0331 187.551 47.1673C180.728 47.4412 174.236 48.5153 168.363 50.2424C166.561 47.4374 164.119 44.8992 161.042 42.763C145.432 31.9103 118.488 34.4985 97.7104 47.9719C88.911 41.4858 76.1448 37.6747 62.0966 38.2386C46.6529 38.8586 33.2077 44.6258 25.159 52.9935C24.1925 52.5653 23.1957 52.1534 22.184 51.7571C-2.75796 42.0323 -31.5898 46.5492 -42.2366 61.8455C-45.6392 66.7425 -46.7512 72.1502 -45.9063 77.5546C-46.151 77.6397 -46.3951 77.7399 -46.6386 77.8552L-46.7444 77.9197C-53.7188 76.1659 -61.5688 75.3361 -69.8334 75.6679C-97.6818 76.7859 -119.719 90.581 -119.138 106.511C-125.162 104.825 -131.846 104.023 -138.839 104.304C-164.439 105.332 -184.565 120.527 -183.781 138.241C-183.328 148.497 -175.962 157.331 -164.88 162.746C-181.01 168.576 -191.713 179.43 -191.184 191.4C-190.794 200.213 -184.379 207.924 -174.423 213.174C-183.858 221.447 -189.373 232.304 -188.856 243.988C-187.781 268.29 -160.921 286.946 -128.886 285.66C-124.808 285.496 -120.853 285.021 -117.035 284.25C-116.911 284.245 -116.788 284.21 -116.681 284.176C-116.724 284.253 -116.783 284.33 -116.81 284.407C-124.997 298.776 -123.273 313.877 -110.676 322.636C-96.428 332.549 -72.7343 331.266 -52.9157 320.694C-52.8207 320.735 -52.725 320.791 -52.63 320.833C-52.0303 331.926 -42.6813 342.759 -27.3422 348.199C-7.12721 355.357 16.2267 350.608 26.5405 337.615C26.3451 337.412 26.1956 337.192 26.0157 336.989C26.342 336.99 26.6682 336.992 26.9939 336.979C26.8326 337.197 26.7024 337.413 26.5405 337.615C30.8483 342.293 36.9423 346.267 44.4859 348.947C63.3279 355.617 84.9115 351.933 96.104 340.894C96.3251 340.975 96.5616 341.056 96.7834 341.153C123.311 350.558 152.095 346.706 161.207 332.54C161.127 332.483 161.047 332.426 160.967 332.369C161.091 332.364 161.213 332.329 161.352 332.309C161.323 332.355 161.31 332.401 161.281 332.447C161.282 332.477 161.237 332.509 161.222 332.525C170.762 338.544 184.944 342.058 200.605 341.429C228.531 340.308 250.612 326.451 249.904 310.465C249.756 307.112 248.621 303.934 246.643 301.015C247.111 300.695 247.515 300.347 247.871 299.971C253.066 300.833 258.597 301.213 264.35 300.982C292.601 299.848 314.872 285.019 314.113 267.876C313.88 262.597 311.489 257.707 307.45 253.5C336.258 249.843 357.871 230.326 356.871 207.723L356.84 207.74Z" fill="#6D8045"/>
<path d="M190.035 311.134C188.388 310.778 186.801 310.36 185.257 309.879C186.123 309.423 186.987 308.951 187.836 308.48C188.651 309.336 189.388 310.21 190.035 311.134Z" fill="#7B8A4B"/>
<path d="M190.035 311.134C188.388 310.778 186.801 310.36 185.257 309.879C186.123 309.423 186.987 308.951 187.836 308.48C188.651 309.336 189.388 310.21 190.035 311.134Z" fill="#7B8A4B"/>
<path d="M102.689 222.446C119.185 213.365 125.483 195.658 116.691 181.222C110.845 171.608 99.6804 165.701 87.4227 164.566C86.9552 165.232 86.4405 165.886 85.8942 166.525C85.3027 165.796 84.681 165.083 84.0593 164.37C85.1789 164.4 86.2998 164.461 87.4227 164.566C92.6312 157.324 93.6492 148.744 89.2269 141.467C81.8576 129.369 62.2227 125.428 45.3652 132.656L45.2284 132.721C44.9181 132.026 44.5619 131.347 44.1591 130.671C37.2748 119.351 19.1685 115.56 3.69793 122.19C1.67056 123.054 -0.210618 124.063 -1.91661 125.171C-2.22827 124.446 -2.58647 123.722 -3.0215 123.017C-9.68834 112.05 -28.9066 109.101 -45.9616 116.427C-50.077 118.189 -53.7067 120.398 -56.7178 122.898C-58.8457 121.492 -61.2696 120.415 -63.9553 119.74C-77.5248 116.339 -93.2475 124.289 -101.219 137.877C-109.003 135.719 -118.268 136.211 -126.743 139.85C-136.071 143.854 -142.289 150.73 -144.249 158.037C-144.996 157.992 -145.775 157.948 -146.537 157.933C-165.476 157.428 -181.667 167.069 -182.717 179.49C-183.053 183.479 -181.783 187.254 -179.291 190.572C-179.456 190.699 -179.606 190.841 -179.739 190.982C-184.671 191.481 -189.802 192.771 -194.771 194.898C-211.582 202.109 -220.216 216.19 -214.095 226.396C-218.43 226.706 -222.857 227.742 -227.079 229.553C-242.534 236.182 -249.484 250.738 -242.6 262.057C-238.614 268.599 -230.872 272.626 -222.056 273.567C-229.922 281.111 -232.622 290.647 -227.965 298.306C-224.547 303.937 -217.791 307.446 -209.729 308.538C-212.562 316.106 -212.053 324.444 -207.514 331.912C-198.067 347.437 -174.729 353.292 -155.387 345.001C-152.933 343.953 -150.642 342.717 -148.576 341.324C-148.5 341.29 -148.44 341.243 -148.38 341.195C-148.377 341.255 -148.375 341.316 -148.372 341.376C-148.248 352.605 -141.727 362.012 -130.765 364.765C-118.42 367.869 -104.286 361.563 -95.8453 350.156C-95.7213 350.151 -95.5972 350.146 -95.4887 350.141C-91.0777 357.163 -81.4213 361.986 -70.023 361.95C-54.9451 361.887 -42.2296 353.365 -40.5349 342.529C-40.5659 342.53 -40.5827 342.501 -40.6144 342.487C-40.5834 342.486 -40.5531 342.47 -40.5227 342.453C-40.5214 342.483 -40.5201 342.514 -40.5194 342.529C-36.1588 344.552 -30.9665 345.714 -25.3294 345.699C-11.2761 345.647 0.742485 338.222 3.66405 328.436C3.83459 328.429 4.0058 328.437 4.177 328.446C23.945 328.375 40.3425 319.178 40.8829 307.876C40.8829 307.876 40.9132 307.86 40.9125 307.845C48.9854 309.524 59.0044 308.504 68.4388 304.451C85.2962 297.224 93.9268 283.082 87.7125 272.865C86.2047 270.38 83.9404 268.348 81.1231 266.804C79.8584 267.006 78.6066 267.146 77.3677 267.226C77.7947 266.697 78.221 266.153 78.6318 265.609C79.5173 265.965 80.3421 266.354 81.1224 266.789C85.1489 266.176 89.2296 265.033 93.2075 263.322C110.263 256.012 118.677 241.186 112.011 230.234C109.951 226.853 106.714 224.242 102.705 222.46L102.689 222.446Z" fill="#7B8A4B"/>
<path d="M439.385 207.005C439.743 192.545 423.806 180.731 403.803 180.608L403.639 180.605C403.759 179.82 403.841 179.026 403.868 178.224C404.19 164.692 389.594 153.644 371.259 153.534C368.867 153.52 366.516 153.693 364.257 154.042C364.408 153.234 364.5 152.402 364.516 151.549C364.821 138.445 348.691 127.748 328.469 127.615C323.578 127.589 318.891 128.179 314.608 129.293C313.463 127.09 311.851 125.066 309.758 123.33C299.154 114.517 279.78 115.547 264.284 125.083C258.32 119.831 249.401 116.48 239.344 116.412C228.291 116.342 218.391 120.279 212.229 126.359C211.553 125.995 210.864 125.65 210.157 125.31C192.827 117.022 172.019 119.463 163.65 130.75C160.874 134.492 159.815 138.733 160.272 143.034C161.809 143.532 163.278 144.133 164.663 144.767C163.368 145.142 162.081 145.55 160.815 145.973C160.547 144.981 160.39 144.002 160.272 143.034C155.234 141.32 149.435 140.355 143.256 140.314C123.309 140.199 106.895 149.93 106.514 162.093C102.3 160.591 97.56 159.758 92.5574 159.718C74.222 159.609 59.0844 170.473 58.7625 184.006C58.5677 191.832 63.387 198.827 71.0377 203.344C59.2265 207.227 51.0469 215.114 50.8104 224.258C50.649 230.98 54.8427 237.088 61.698 241.441C54.5527 247.41 50.0547 255.504 49.8401 264.413C49.391 282.98 67.6364 298.117 90.5777 298.271C93.495 298.29 96.3436 298.074 99.1026 297.61C99.1894 297.593 99.2763 297.576 99.3631 297.559C99.322 297.621 99.2809 297.682 99.2571 297.739C92.6875 308.394 93.1731 319.964 101.729 327.085C111.25 334.992 127.837 334.963 142.344 327.973C142.644 328.021 142.961 328.066 143.275 328.094C143.322 336.457 149.424 344.868 159.954 349.482C174.024 355.657 190.95 352.836 198.955 343.302C198.948 343.268 198.923 343.237 198.902 343.223C198.937 343.217 198.975 343.227 199.014 343.237C199 343.258 198.969 343.281 198.959 343.319C201.804 347.033 205.961 350.281 211.213 352.572C224.339 358.311 239.929 356.263 248.476 348.234C248.637 348.309 248.798 348.384 248.955 348.442C267.418 356.527 288.175 354.61 295.38 344.133C295.335 344.088 295.289 344.044 295.23 344.02C295.316 344.003 295.403 343.986 295.49 343.97C295.463 344.01 295.453 344.048 295.425 344.088C295.425 344.088 295.398 344.129 295.384 344.149C301.89 349.066 311.842 352.252 323.055 352.308C343.058 352.431 359.512 342.639 359.796 330.441C359.871 327.683 359.063 325.026 357.595 322.584C357.807 322.473 357.997 322.347 358.187 322.222C362.043 323.156 366.212 323.693 370.581 323.731C390.8 323.847 407.463 313.342 407.768 300.238C407.857 296.202 406.403 292.395 403.729 289.055C424.481 287.28 440.889 273.16 441.314 255.909C441.588 244.421 434.705 234.233 423.978 228.117C423.151 228.56 422.278 228.96 421.397 229.325C421.269 228.394 421.141 227.463 420.978 226.539C422.006 227.03 423.008 227.562 423.995 228.113C433.152 223.418 439.207 215.748 439.41 207.035L439.385 207.005Z" fill="#98AB53"/>
<path d="M538.688 272.904C539.69 264.194 530.71 256.234 518.639 255.122L518.541 255.112C518.656 254.644 518.749 254.169 518.808 253.686C519.738 245.534 511.526 238.107 500.462 237.089C499.018 236.956 497.589 236.939 496.207 237.032C496.342 236.552 496.443 236.055 496.498 235.541C497.395 227.646 488.237 220.351 476.035 219.221C473.083 218.952 470.222 219.065 467.575 219.515C467.004 218.126 466.14 216.82 464.971 215.664C459.048 209.793 447.294 209.41 437.419 214.362C434.104 210.882 428.901 208.397 422.833 207.834C416.163 207.218 409.972 209.081 405.921 212.431C405.533 212.176 405.135 211.933 404.727 211.69C394.714 205.788 382.018 206.182 376.352 212.561C374.472 214.676 373.603 217.181 373.645 219.802C374.546 220.182 375.4 220.621 376.201 221.076C375.4 221.235 374.6 221.415 373.813 221.604C373.705 220.991 373.663 220.392 373.645 219.802C370.696 218.506 367.247 217.622 363.519 217.277C351.481 216.172 341.042 221.195 340.151 228.518C337.688 227.393 334.872 226.644 331.854 226.36C320.789 225.343 311.059 231.116 310.129 239.269C309.586 243.983 312.116 248.456 316.489 251.58C309.147 253.311 303.78 257.648 303.14 263.156C302.677 267.206 304.877 271.111 308.78 274.094C304.141 277.327 300.985 281.98 300.372 287.348C299.091 298.533 309.285 308.617 323.128 309.901C324.888 310.064 326.62 310.081 328.311 309.944C328.364 309.939 328.417 309.933 328.471 309.927C328.443 309.962 328.414 309.997 328.397 310.031C323.851 316.122 323.516 323.132 328.294 327.875C333.613 333.142 343.629 333.985 352.768 330.519C352.947 330.563 353.136 330.607 353.324 330.64C352.898 335.691 356.125 341.085 362.232 344.417C370.391 348.875 380.764 348.051 386.116 342.71C386.113 342.689 386.1 342.669 386.088 342.66C386.109 342.658 386.132 342.666 386.154 342.674C386.145 342.686 386.125 342.698 386.117 342.72C387.633 345.11 389.966 347.286 393.013 348.942C400.626 353.088 410.15 352.661 415.747 348.257C415.84 348.311 415.933 348.364 416.025 348.407C426.732 354.247 439.369 354.166 444.289 348.215C444.264 348.186 444.239 348.157 444.204 348.139C444.258 348.134 444.311 348.128 444.364 348.122C444.345 348.146 444.337 348.168 444.319 348.191C444.319 348.191 444.3 348.214 444.29 348.225C447.952 351.531 453.787 353.971 460.554 354.587C472.624 355.699 483.091 350.641 483.926 343.292C484.121 341.631 483.777 339.985 483.024 338.435C483.158 338.378 483.279 338.313 483.401 338.247C485.678 339.011 488.166 339.551 490.802 339.801C503.003 340.92 513.635 335.443 514.532 327.548C514.805 325.116 514.134 322.743 512.701 320.587C525.327 320.593 536.001 312.92 537.195 302.527C537.985 295.607 534.383 289.099 528.238 284.85C527.715 285.075 527.166 285.271 526.615 285.446C526.588 284.877 526.561 284.308 526.513 283.742C527.107 284.092 527.683 284.464 528.249 284.849C534.033 282.489 538.106 278.173 538.702 272.924L538.688 272.904Z" fill="#98AB53"/>
<path d="M169.099 165.744C171.357 141.188 155.948 119.643 134.684 117.622C113.419 115.602 94.3507 133.871 92.0933 158.427C89.8359 182.984 105.244 204.529 126.509 206.549C147.773 208.57 166.842 190.301 169.099 165.744Z" fill="#98AB53"/>
<path d="M267.891 156.986C283.678 136.665 283.057 110.419 266.504 98.3645C249.951 86.3095 223.734 93.0103 207.947 113.331C192.159 133.652 192.78 159.897 209.334 171.952C225.887 184.007 252.104 177.307 267.891 156.986Z" fill="#98AB53"/>
<path d="M117.867 238.327C121.137 223.708 102.312 207.22 75.8195 201.499C49.3272 195.779 25.2 202.992 21.9299 217.611C18.6598 232.229 37.485 248.718 63.9773 254.438C90.4695 260.159 114.597 252.946 117.867 238.327Z" fill="#98AB53"/>
<path d="M364.301 175.881C379.889 155.38 380.651 130.296 366.003 119.855C351.355 109.414 326.845 117.57 311.257 138.071C295.669 158.572 294.908 183.656 309.555 194.097C324.203 204.538 348.714 196.382 364.301 175.881Z" fill="#98AB53"/>
<path d="M490.816 346.557C511.369 347.16 528.077 341.163 528.135 333.161C528.193 325.159 511.578 318.183 491.025 317.579C470.472 316.976 453.764 322.973 453.706 330.975C453.648 338.977 470.263 345.953 490.816 346.557Z" fill="#98AB53"/>
<path d="M459.441 230.867C458.983 213.899 436.505 200.459 409.235 200.848C381.964 201.237 360.228 215.308 360.685 232.276C361.143 249.244 383.621 262.685 410.892 262.296C438.162 261.907 459.898 247.836 459.441 230.867Z" fill="#98AB53"/>
<path d="M224.285 140.52C223.932 127.336 206.449 116.891 185.235 117.19C164.021 117.489 147.11 128.419 147.463 141.603C147.816 154.787 165.3 165.232 186.514 164.933C207.727 164.634 224.638 153.704 224.285 140.52Z" fill="#98AB53"/>
<path d="M274.076 166.951C285.641 164.142 297.935 163.229 309.359 167.641C315.962 170.279 322.407 173.633 325.002 181.264C327.574 189.041 320.781 196.642 314.175 199.476L310.943 191.583C332.803 188.361 356.012 189.288 376.53 197.816C384.252 201.2 394.351 207.667 392.589 217.178C391.635 221.588 388.227 224.863 384.63 227.332L384.18 226.752C397.878 215.924 388.502 205.585 375.089 201.213C363.164 197.093 350.23 196.18 337.651 196.603C323.184 196.766 304.07 202.155 289.968 205.412L309.547 192.105C312.232 189.869 315.596 187.499 314.766 184.18C313.579 181.143 308.795 178.692 305.38 177.22C301.266 175.534 294.79 173.751 290.468 172.282C285.242 170.57 279.775 169.696 274.132 168.417L274.08 166.968L274.076 166.951Z" fill="#859F49"/>
<path d="M1711.83 183.316C1711.17 198.249 1700.77 211.058 1685.41 218.411C1685.5 218.49 1685.59 218.569 1685.67 218.647C1685.78 218.788 1685.87 218.927 1685.96 219.081C1697.79 225.823 1705.17 236.001 1704.68 247.129C1703.84 266.077 1680.5 280.507 1652.58 279.386L1652.35 279.376C1652.46 280.405 1652.49 281.446 1652.44 282.514C1651.66 300.229 1630.27 313.757 1604.66 312.729C1601.31 312.594 1598.05 312.222 1594.92 311.615C1595.06 312.69 1595.1 313.792 1595.06 314.889C1594.3 332.048 1570.8 345.024 1542.54 343.89C1535.72 343.616 1529.23 342.542 1523.36 340.815C1521.55 343.62 1519.11 346.158 1516.04 348.294C1500.43 359.147 1473.48 356.559 1452.7 343.086C1443.9 349.572 1431.14 353.383 1417.09 352.819C1401.65 352.199 1388.2 346.432 1380.15 338.064C1379.19 338.493 1378.19 338.905 1377.18 339.301C1352.24 349.026 1323.4 344.509 1312.76 329.213C1309.35 324.316 1308.24 318.908 1309.09 313.503C1308.84 313.418 1308.6 313.318 1308.36 313.203L1308.25 313.138C1301.28 314.892 1293.43 315.722 1285.16 315.39C1257.31 314.272 1235.28 300.477 1235.86 284.547C1229.83 286.233 1223.15 287.035 1216.16 286.754C1190.56 285.726 1170.43 270.532 1171.21 252.817C1171.67 242.561 1179.03 233.727 1190.11 228.312C1173.98 222.482 1163.28 211.628 1163.81 199.657C1164.2 190.845 1170.62 183.133 1180.57 177.884C1171.14 169.611 1165.62 158.754 1166.14 147.069C1167.21 122.768 1194.07 104.111 1226.11 105.397C1230.19 105.561 1234.14 106.036 1237.96 106.807C1238.08 106.812 1238.21 106.847 1238.31 106.881C1238.27 106.804 1238.21 106.727 1238.18 106.65C1230 92.2812 1231.72 77.1803 1244.32 68.4211C1258.57 58.508 1282.26 59.7905 1302.08 70.3631C1302.17 70.3217 1302.27 70.2653 1302.36 70.2239C1302.96 59.1302 1312.31 48.2973 1327.65 42.857C1347.87 35.6992 1371.22 40.448 1381.54 53.4411C1381.34 53.6442 1381.19 53.8642 1381.01 54.0679C1381.34 54.0659 1381.66 54.0639 1381.99 54.077C1381.83 53.8596 1381.7 53.6435 1381.54 53.4411C1385.84 48.7632 1391.94 44.7897 1399.48 42.1097C1418.32 35.4391 1439.91 39.1226 1451.1 50.1624C1451.32 50.0809 1451.56 50.0001 1451.78 49.9035C1478.31 40.4984 1507.09 44.3504 1516.2 58.5155C1516.12 58.5725 1516.04 58.6296 1515.96 58.6866C1516.09 58.6916 1516.21 58.7267 1516.35 58.7473C1516.32 58.701 1516.3 58.6552 1516.28 58.6088C1516.28 58.5788 1516.23 58.5468 1516.22 58.5311C1525.76 52.5116 1539.94 48.9983 1555.6 49.627C1583.52 50.748 1605.61 64.6051 1604.9 80.5905C1604.75 83.944 1603.62 87.1223 1601.64 90.0408C1602.1 90.3609 1602.51 90.7085 1602.86 91.0844C1608.06 90.2233 1613.59 89.8428 1619.34 90.0737C1647.6 91.2078 1669.87 106.037 1669.11 123.18C1668.87 128.458 1666.48 133.349 1662.44 137.555C1691.25 141.213 1712.86 160.73 1711.86 183.333L1711.83 183.316Z" fill="#6D8045"/>
<path d="M1330.2 313.198C1331.84 312.842 1333.43 312.424 1334.97 311.944C1334.11 311.487 1333.24 311.016 1332.4 310.545C1331.58 311.401 1330.84 312.275 1330.2 313.198Z" fill="#7B8A4B"/>
<path d="M1330.2 313.198C1331.84 312.842 1333.43 312.424 1334.97 311.944C1334.11 311.487 1333.24 311.016 1332.4 310.545C1331.58 311.401 1330.84 312.275 1330.2 313.198Z" fill="#7B8A4B"/>
<path d="M1417.54 224.508C1401.05 215.427 1394.75 197.72 1403.54 183.284C1409.39 173.67 1420.55 167.762 1432.81 166.628C1433.28 167.294 1433.79 167.947 1434.34 168.587C1434.93 167.858 1435.55 167.145 1436.17 166.432C1435.05 166.462 1433.93 166.522 1432.81 166.628C1427.6 159.386 1426.58 150.806 1431 143.529C1438.37 131.43 1458.01 127.489 1474.87 134.717L1475 134.783C1475.31 134.088 1475.67 133.409 1476.07 132.732C1482.96 121.413 1501.06 117.621 1516.53 124.251C1518.56 125.116 1520.44 126.125 1522.15 127.232C1522.46 126.507 1522.82 125.783 1523.25 125.078C1529.92 114.111 1549.14 111.162 1566.19 118.488C1570.31 120.25 1573.94 122.459 1576.95 124.959C1579.08 123.554 1581.5 122.476 1584.19 121.801C1597.76 118.4 1613.48 126.35 1621.45 139.938C1629.23 137.78 1638.5 138.273 1646.97 141.911C1656.3 145.915 1662.52 152.791 1664.48 160.098C1665.23 160.053 1666.01 160.009 1666.77 159.994C1685.71 159.489 1701.9 169.13 1702.95 181.551C1703.28 185.54 1702.01 189.315 1699.52 192.633C1699.69 192.76 1699.84 192.902 1699.97 193.043C1704.9 193.542 1710.03 194.832 1715 196.959C1731.81 204.17 1740.45 218.251 1734.33 228.457C1738.66 228.767 1743.09 229.803 1747.31 231.614C1762.76 238.243 1769.71 252.799 1762.83 264.119C1758.84 270.66 1751.1 274.687 1742.29 275.628C1750.15 283.173 1752.85 292.709 1748.19 300.368C1744.78 305.999 1738.02 309.508 1729.96 310.6C1732.79 318.168 1732.28 326.506 1727.74 333.974C1718.3 349.498 1694.96 355.354 1675.62 347.062C1673.16 346.015 1670.87 344.779 1668.81 343.386C1668.73 343.352 1668.67 343.305 1668.61 343.257C1668.61 343.317 1668.6 343.377 1668.6 343.438C1668.48 354.667 1661.96 364.074 1650.99 366.827C1638.65 369.931 1624.52 363.626 1616.08 352.218C1615.95 352.213 1615.83 352.208 1615.72 352.203C1611.31 359.225 1601.65 364.048 1590.25 364.012C1575.18 363.949 1562.46 355.427 1560.77 344.591C1560.8 344.593 1560.81 344.563 1560.84 344.549C1560.81 344.548 1560.78 344.532 1560.75 344.516C1560.75 344.546 1560.75 344.576 1560.75 344.591C1556.39 346.615 1551.2 347.777 1545.56 347.761C1531.51 347.709 1519.49 340.284 1516.57 330.498C1516.4 330.492 1516.22 330.5 1516.05 330.508C1496.29 330.437 1479.89 321.24 1479.35 309.939C1479.35 309.939 1479.32 309.922 1479.32 309.907C1471.25 311.586 1461.23 310.567 1451.79 306.514C1434.93 299.286 1426.3 285.145 1432.52 274.927C1434.03 272.443 1436.29 270.41 1439.11 268.867C1440.37 269.068 1441.62 269.209 1442.86 269.289C1442.44 268.759 1442.01 268.215 1441.6 267.672C1440.71 268.028 1439.89 268.416 1439.11 268.852C1435.08 268.238 1431 267.096 1427.02 265.385C1409.97 258.074 1401.55 243.248 1408.22 232.296C1410.28 228.915 1413.52 226.304 1417.53 224.522L1417.54 224.508Z" fill="#7B8A4B"/>
<path d="M1043.1 228.386C1043.85 213.93 1060.63 203.296 1080.57 204.625L1080.74 204.633C1080.67 203.842 1080.65 203.043 1080.69 202.241C1081.39 188.712 1096.78 178.746 1115.06 179.967C1117.45 180.126 1119.78 180.469 1122 180.982C1121.91 180.164 1121.88 179.327 1121.93 178.475C1122.62 165.375 1139.51 155.87 1159.68 157.205C1164.56 157.534 1169.18 158.463 1173.37 159.886C1174.67 157.77 1176.43 155.867 1178.65 154.287C1189.89 146.261 1209.12 148.695 1223.84 159.337C1230.18 154.528 1239.33 151.832 1249.36 152.493C1260.38 153.226 1269.95 157.874 1275.63 164.389C1276.33 164.074 1277.04 163.78 1277.77 163.492C1295.67 156.478 1316.23 160.425 1323.71 172.296C1326.19 176.232 1326.93 180.542 1326.14 184.801C1324.58 185.187 1323.07 185.68 1321.64 186.212C1322.9 186.68 1324.15 187.182 1325.38 187.695C1325.72 186.724 1325.95 185.759 1326.14 184.801C1331.3 183.456 1337.15 182.915 1343.31 183.322C1363.2 184.655 1378.82 195.557 1378.28 207.724C1382.59 206.531 1387.38 206.044 1392.37 206.368C1410.65 207.589 1424.91 219.531 1424.21 233.059C1423.81 240.884 1418.47 247.516 1410.5 251.469C1421.98 256.201 1429.53 264.666 1429.08 273.809C1428.73 280.529 1424.08 286.321 1416.92 290.167C1423.59 296.644 1427.46 305.048 1426.99 313.955C1426.03 332.517 1406.7 346.299 1383.82 344.789C1380.91 344.596 1378.09 344.173 1375.37 343.51C1375.29 343.487 1375.2 343.464 1375.12 343.441C1375.16 343.505 1375.19 343.568 1375.21 343.628C1380.95 354.738 1379.59 366.25 1370.52 372.736C1360.43 379.936 1343.9 378.703 1329.97 370.674C1329.67 370.701 1329.35 370.722 1329.04 370.727C1328.35 379.07 1321.63 387.021 1310.79 390.862C1296.3 396.004 1279.64 391.96 1272.39 381.863C1272.4 381.83 1272.42 381.801 1272.44 381.789C1272.41 381.78 1272.37 381.787 1272.33 381.795C1272.34 381.816 1272.37 381.842 1272.38 381.88C1269.26 385.38 1264.87 388.32 1259.46 390.226C1245.95 395.001 1230.56 391.825 1222.65 383.191C1222.49 383.254 1222.32 383.318 1222.16 383.364C1203.15 390.093 1182.6 386.673 1176.22 375.694C1176.27 375.653 1176.32 375.612 1176.38 375.593C1176.29 375.569 1176.21 375.546 1176.12 375.523C1176.15 375.566 1176.15 375.604 1176.18 375.647C1176.18 375.647 1176.2 375.689 1176.21 375.71C1169.36 380.145 1159.2 382.602 1148.02 381.845C1128.07 380.515 1112.41 369.548 1113.06 357.355C1113.19 354.597 1114.2 352.003 1115.85 349.673C1115.64 349.546 1115.46 349.407 1115.28 349.268C1111.37 349.92 1107.17 350.154 1102.82 349.874C1082.66 348.523 1066.85 336.829 1067.54 323.729C1067.75 319.695 1069.49 316.001 1072.41 312.862C1051.86 309.584 1036.58 294.301 1037.47 277.053C1038.07 265.569 1045.7 255.9 1056.86 250.575C1057.65 251.078 1058.49 251.539 1059.34 251.968C1059.54 251.048 1059.73 250.128 1059.97 249.218C1058.9 249.633 1057.87 250.091 1056.84 250.57C1048.07 245.219 1042.62 237.125 1043.08 228.415L1043.1 228.386Z" fill="#98AB53"/>
<path d="M961.989 284.094C961.717 277.028 969.417 271.152 979.182 270.964L979.262 270.961C979.198 270.579 979.152 270.191 979.134 269.799C978.885 263.186 985.936 257.693 994.886 257.523C996.054 257.5 997.203 257.57 998.308 257.726C998.228 257.332 998.178 256.926 998.165 256.509C997.927 250.105 1005.73 244.774 1015.6 244.58C1017.99 244.536 1020.28 244.795 1022.38 245.312C1022.92 244.227 1023.7 243.228 1024.71 242.366C1029.82 237.991 1039.29 238.371 1046.92 242.933C1049.79 240.328 1054.12 238.633 1059.03 238.536C1064.43 238.431 1069.29 240.292 1072.34 243.225C1072.67 243.043 1073 242.87 1073.34 242.699C1081.75 238.537 1091.92 239.598 1096.08 245.062C1097.46 246.873 1098.01 248.939 1097.82 251.045C1097.07 251.298 1096.36 251.601 1095.68 251.92C1096.32 252.095 1096.95 252.286 1097.57 252.485C1097.69 251.998 1097.76 251.519 1097.82 251.045C1100.26 250.175 1103.09 249.666 1106.1 249.607C1115.84 249.423 1123.92 254.075 1124.19 260.018C1126.24 259.257 1128.54 258.82 1130.99 258.769C1139.94 258.598 1147.4 263.813 1147.65 270.425C1147.8 274.25 1145.49 277.7 1141.79 279.957C1147.58 281.779 1151.63 285.583 1151.8 290.051C1151.93 293.336 1149.92 296.348 1146.6 298.519C1150.13 301.392 1152.38 305.32 1152.55 309.673C1152.89 318.746 1144.09 326.262 1132.89 326.483C1131.47 326.511 1130.07 326.424 1128.72 326.214C1128.68 326.207 1128.64 326.199 1128.6 326.191C1128.62 326.221 1128.64 326.251 1128.65 326.279C1131.93 331.445 1131.77 337.104 1127.64 340.639C1123.05 344.565 1114.95 344.657 1107.82 341.332C1107.67 341.358 1107.52 341.382 1107.37 341.397C1107.4 345.486 1104.48 349.636 1099.37 351.958C1092.54 355.067 1084.26 353.796 1080.29 349.186C1080.29 349.169 1080.3 349.154 1080.31 349.147C1080.29 349.144 1080.28 349.15 1080.26 349.155C1080.26 349.165 1080.28 349.176 1080.28 349.194C1078.92 351.028 1076.91 352.642 1074.36 353.796C1068 356.685 1060.37 355.783 1056.14 351.913C1056.07 351.95 1055.99 351.988 1055.91 352.017C1046.95 356.087 1036.81 355.282 1033.22 350.207C1033.24 350.185 1033.26 350.163 1033.29 350.151C1033.25 350.143 1033.21 350.136 1033.16 350.128C1033.18 350.148 1033.18 350.166 1033.2 350.186C1033.2 350.186 1033.21 350.205 1033.22 350.215C1030.07 352.66 1025.24 354.281 1019.76 354.38C1010 354.567 1001.9 349.886 1001.68 343.925C1001.62 342.577 1002 341.273 1002.7 340.07C1002.6 340.017 1002.5 339.957 1002.41 339.897C1000.53 340.378 998.501 340.667 996.368 340.713C986.499 340.899 978.293 335.87 978.055 329.467C977.985 327.495 978.669 325.624 979.952 323.975C969.809 323.239 961.703 316.442 961.379 308.012C961.167 302.398 964.458 297.374 969.654 294.316C970.061 294.528 970.49 294.717 970.922 294.89C970.978 294.434 971.035 293.978 971.108 293.526C970.609 293.772 970.124 294.038 969.646 294.314C965.143 292.077 962.136 288.367 961.978 284.109L961.989 284.094Z" fill="#98AB53"/>
<path d="M1355.95 175.848C1355.59 151.207 1372.63 130.833 1394.01 130.34C1415.39 129.847 1433.01 149.423 1433.37 174.063C1433.73 198.703 1416.7 219.077 1395.32 219.57C1373.94 220.063 1356.31 200.488 1355.95 175.848Z" fill="#98AB53"/>
<path d="M1258.12 159.894C1243.93 138.486 1246.56 112.349 1263.98 101.516C1281.41 90.6826 1307.04 99.2552 1321.23 120.663C1335.42 142.071 1332.79 168.208 1315.36 179.041C1297.93 189.874 1272.3 181.302 1258.12 159.894Z" fill="#98AB53"/>
<path d="M1401.58 251.966C1399.44 237.169 1419.48 222.091 1446.34 218.288C1473.2 214.486 1496.71 223.399 1498.84 238.196C1500.98 252.993 1480.94 268.071 1454.08 271.873C1427.22 275.676 1403.72 266.763 1401.58 251.966Z" fill="#98AB53"/>
<path d="M1172.96 180.157C1158.98 158.583 1160.14 133.505 1175.55 124.144C1190.95 114.783 1214.77 124.684 1228.75 146.258C1242.72 167.833 1241.56 192.911 1226.16 202.272C1210.75 211.633 1186.93 201.732 1172.96 180.157Z" fill="#98AB53"/>
<path d="M970.03 353.061C944.503 354.424 923.556 347.434 923.244 337.447C922.932 327.46 943.373 318.258 968.9 316.895C994.427 315.531 1015.37 322.522 1015.69 332.509C1016 342.496 995.558 351.697 970.03 353.061Z" fill="#98AB53"/>
<path d="M1225.46 181.189C1211.48 159.614 1212.64 134.536 1228.05 125.175C1243.45 115.814 1267.27 125.715 1281.25 147.29C1295.22 168.864 1294.06 193.942 1278.66 203.303C1263.25 212.664 1239.43 202.763 1225.46 181.189Z" fill="#98AB53"/>
<path d="M1061.56 219.584C1063.3 202.683 1086.72 190.906 1113.86 193.28C1141.01 195.653 1161.61 211.278 1159.87 228.179C1158.13 245.08 1134.71 256.857 1107.56 254.483C1080.41 252.11 1059.82 236.485 1061.56 219.584Z" fill="#98AB53"/>
<path d="M1302.89 146.625C1304.24 133.494 1322.45 124.342 1343.57 126.185C1364.69 128.028 1380.72 140.167 1379.37 153.299C1378.02 166.431 1359.8 175.582 1338.68 173.739C1317.57 171.897 1301.54 159.757 1302.89 146.625Z" fill="#98AB53"/>
<path d="M1246.16 169.013C1234.59 166.204 1222.3 165.292 1210.87 169.704C1204.27 172.341 1197.82 175.695 1195.23 183.327C1192.66 191.104 1199.45 198.705 1206.06 201.538L1209.29 193.646C1187.43 190.424 1164.22 191.351 1143.7 199.879C1135.98 203.263 1125.88 209.73 1127.64 219.241C1128.6 223.651 1132 226.926 1135.6 229.395L1136.05 228.815C1122.35 217.987 1131.73 207.648 1145.14 203.276C1157.07 199.156 1170 198.243 1182.58 198.666C1197.05 198.829 1216.16 204.218 1230.26 207.475L1210.68 194.167C1208 191.932 1204.64 189.562 1205.46 186.243C1206.65 183.206 1211.44 180.755 1214.85 179.283C1218.97 177.597 1225.44 175.814 1229.76 174.345C1234.99 172.632 1240.46 171.758 1246.1 170.48L1246.15 169.03L1246.16 169.013Z" fill="#859F49"/>
</svg>
