<svg width="1517" height="1787" viewBox="0 0 1517 1787" fill="none" xmlns="http://www.w3.org/2000/svg">
<g clip-path="url(#clip0_192_381)">
<rect width="1516.2" height="1786.05" fill="white"/>
<rect x="0.100098" y="0.250488" width="1516.2" height="1786.05" fill="#02877F"/>
<path d="M175.975 8.46509C63.835 10.5651 -11.45 81.4401 -35.075 116.615L-65 1726.79H1528.37V116.615C1490.57 85.8151 1361.11 16.3401 1145.65 -15.1599C876.325 -54.5349 712.525 24.2151 548.725 48.3651C384.925 72.5151 316.15 5.84009 175.975 8.46509Z" fill="#096862"/>
<path d="M175.975 56.7649C63.835 58.8649 -11.45 129.74 -35.075 164.915L-65 1775.09H1528.38V164.915C1490.58 134.115 1361.11 64.64 1145.65 33.14C876.325 -6.23505 712.525 72.5149 548.725 96.6649C384.925 120.815 316.15 54.1399 175.975 56.7649Z" fill="#045954"/>
<path d="M196.66 150.398L198.733 194.487L221.058 156.412L202.404 196.414L239.867 173.075L204.76 199.826L248.777 196.57L205.259 203.942L245.749 221.515L203.789 207.819L231.474 242.195L200.686 210.568L209.224 253.873L196.66 211.561L184.096 253.873L192.634 210.568L161.846 242.195L189.531 207.819L147.572 221.515L188.061 203.942L144.543 196.57L188.561 199.826L153.454 173.075L190.916 196.414L172.262 156.412L194.587 194.487L196.66 150.398Z" fill="#FFD198" fill-opacity="0.5"/>
<path d="M1284.46 150.398L1286.53 194.487L1308.86 156.412L1290.2 196.414L1327.67 173.075L1292.56 199.826L1336.58 196.57L1293.06 203.942L1333.55 221.515L1291.59 207.819L1319.27 242.195L1288.49 210.568L1297.02 253.873L1284.46 211.561L1271.9 253.873L1280.43 210.568L1249.65 242.195L1277.33 207.819L1235.37 221.515L1275.86 203.942L1232.34 196.57L1276.36 199.826L1241.25 173.075L1278.72 196.414L1260.06 156.412L1282.39 194.487L1284.46 150.398Z" fill="#FFD198" fill-opacity="0.5"/>
<path d="M482.154 238.231L484.02 277.911L504.112 243.643L487.324 279.645L521.04 258.64L489.444 282.716L529.06 279.785L489.894 286.42L526.334 302.236L488.57 289.909L513.487 320.848L485.777 292.384L493.462 331.358L482.154 293.277L470.847 331.358L478.531 292.384L450.822 320.848L475.738 289.909L437.975 302.236L474.415 286.42L435.249 279.785L474.865 282.716L443.268 258.64L476.984 279.645L460.196 243.643L480.289 277.911L482.154 238.231Z" fill="#FFD198" fill-opacity="0.3"/>
<path d="M740.56 150.398L742.633 194.487L764.958 156.412L746.304 196.414L783.766 173.075L748.659 199.826L792.677 196.57L749.159 203.942L789.648 221.515L747.689 207.819L775.374 242.195L744.585 210.568L753.124 253.873L740.56 211.561L727.995 253.873L736.534 210.568L705.746 242.195L733.43 207.819L691.471 221.515L731.96 203.942L688.442 196.57L732.46 199.826L697.353 173.075L734.815 196.414L716.162 156.412L738.486 194.487L740.56 150.398Z" fill="#FFD198" fill-opacity="0.3"/>
<path d="M971.665 238.231L973.53 277.911L993.623 243.643L976.834 279.645L1010.55 258.64L978.954 282.716L1018.57 279.785L979.404 286.42L1015.84 302.236L978.081 289.909L1003 320.848L975.288 292.384L982.972 331.358L971.665 293.277L960.357 331.358L968.041 292.384L940.332 320.848L965.248 289.909L927.485 302.236L963.925 286.42L924.759 279.785L964.375 282.716L932.779 258.64L966.495 279.645L949.706 243.643L969.799 277.911L971.665 238.231Z" fill="#FFD198" fill-opacity="0.3"/>
<path d="M114.55 382.816L116.416 422.496L136.508 388.228L119.72 424.23L153.436 403.225L121.84 427.301L161.456 424.371L122.29 431.006L158.73 446.821L120.966 434.495L145.883 465.433L118.173 436.969L125.858 475.943L114.55 437.862L103.243 475.943L110.927 436.969L83.2177 465.433L108.134 434.495L70.3708 446.821L106.811 431.006L67.6448 424.371L107.261 427.301L75.6643 403.225L109.38 424.23L92.5921 388.228L112.685 422.496L114.55 382.816Z" fill="#FFD198" fill-opacity="0.8"/>
<path d="M258.191 319.448L259.294 342.904L271.17 322.648L261.247 343.929L281.177 331.512L262.5 345.744L285.917 344.012L262.766 347.934L284.306 357.283L261.983 349.996L276.712 368.284L260.332 351.459L264.875 374.497L258.191 351.987L251.507 374.497L256.049 351.459L239.67 368.284L254.398 349.996L232.076 357.283L253.616 347.934L230.464 344.012L253.882 345.744L235.205 331.512L255.135 343.929L245.211 322.648L257.088 342.904L258.191 319.448Z" fill="#FFD198" fill-opacity="0.3"/>
<path d="M788.441 291.099L789.544 314.554L801.42 294.298L791.497 315.579L811.427 303.162L792.75 317.394L816.167 315.662L793.016 319.584L814.556 328.933L792.233 321.646L806.962 339.934L790.582 323.109L795.125 346.147L788.441 323.637L781.757 346.147L786.299 323.109L769.92 339.934L784.648 321.646L762.326 328.933L783.866 319.584L760.714 315.662L784.132 317.394L765.455 303.162L785.385 315.579L775.461 294.298L787.338 314.554L788.441 291.099Z" fill="#FFD198" fill-opacity="0.8"/>
<path d="M1211.59 307.899L1212.69 331.355L1224.57 311.098L1214.65 332.38L1234.58 319.963L1215.9 334.195L1239.32 332.462L1216.16 336.385L1237.7 345.733L1215.38 338.447L1230.11 356.735L1213.73 339.91L1218.27 362.947L1211.59 340.438L1204.91 362.947L1209.45 339.91L1193.07 356.735L1207.8 338.447L1185.47 345.733L1207.01 336.385L1183.86 332.462L1207.28 334.195L1188.6 319.963L1208.53 332.38L1198.61 311.098L1210.49 331.355L1211.59 307.899Z" fill="#FFD198" fill-opacity="0.3"/>
<path d="M1081.39 113.648L1082.49 137.103L1094.37 116.847L1084.45 138.128L1104.38 125.712L1085.7 139.944L1109.12 138.211L1085.97 142.133L1107.51 151.482L1085.18 144.196L1099.91 162.484L1083.53 145.659L1088.07 168.696L1081.39 146.186L1074.71 168.696L1079.25 145.659L1062.87 162.484L1077.6 144.196L1055.28 151.482L1076.82 142.133L1053.66 138.211L1077.08 139.944L1058.4 125.712L1078.33 138.128L1068.41 116.847L1080.29 137.103L1081.39 113.648Z" fill="#FFD198" fill-opacity="0.8"/>
<path d="M1093.57 382.816L1095.44 422.496L1115.53 388.228L1098.74 424.23L1132.46 403.225L1100.86 427.301L1140.48 424.371L1101.31 431.006L1137.75 446.821L1099.99 434.495L1124.9 465.433L1097.19 436.969L1104.88 475.943L1093.57 437.862L1082.26 475.943L1089.95 436.969L1062.24 465.433L1087.16 434.495L1049.39 446.821L1085.83 431.006L1046.67 424.371L1086.28 427.301L1054.69 403.225L1088.4 424.23L1071.61 388.228L1091.71 422.496L1093.57 382.816Z" fill="#FFD198" fill-opacity="0.8"/>
<path d="M1401.01 396.098L1403.08 440.187L1425.41 402.112L1406.75 442.114L1444.22 418.775L1409.11 445.526L1453.13 442.27L1409.61 449.642L1450.1 467.215L1408.14 453.519L1435.82 487.895L1405.04 456.269L1413.57 499.573L1401.01 457.261L1388.45 499.573L1396.98 456.269L1366.2 487.895L1393.88 453.519L1351.92 467.215L1392.41 449.642L1348.89 442.27L1392.91 445.526L1357.8 418.775L1395.27 442.114L1376.61 402.112L1398.94 440.187L1401.01 396.098Z" fill="#FFD198" fill-opacity="0.3"/>
<path d="M332.11 460.149L334.183 504.238L356.508 466.162L337.855 506.165L375.317 482.825L340.21 509.577L384.228 506.321L340.71 513.693L381.199 531.265L339.239 517.57L366.924 551.945L336.136 520.319L344.674 563.623L332.11 521.311L319.546 563.623L328.085 520.319L297.296 551.945L324.981 517.57L283.022 531.265L323.511 513.693L279.993 506.321L324.011 509.577L288.904 482.825L326.366 506.165L307.712 466.162L330.037 504.238L332.11 460.149Z" fill="#FFD198" fill-opacity="0.3"/>
<path d="M604.061 382.816L605.926 422.496L626.019 388.228L609.23 424.23L642.947 403.225L611.35 427.301L650.966 424.371L611.8 431.006L648.24 446.821L610.477 434.495L635.393 465.433L607.684 436.969L615.368 475.943L604.061 437.862L592.753 475.943L600.437 436.969L572.728 465.433L597.644 434.495L559.881 446.821L596.321 431.006L557.155 424.371L596.771 427.301L565.175 403.225L598.891 424.23L582.102 388.228L602.195 422.496L604.061 382.816Z" fill="#FFD198" fill-opacity="0.3"/>
<path d="M876.01 460.149L878.083 504.238L900.408 466.162L881.755 506.165L919.217 482.825L884.11 509.577L928.127 506.321L884.61 513.693L925.099 531.265L883.139 517.57L910.824 551.945L880.036 520.319L888.574 563.623L876.01 521.311L863.446 563.623L871.985 520.319L841.196 551.945L868.881 517.57L826.922 531.265L867.411 513.693L823.893 506.321L867.911 509.577L832.804 482.825L870.266 506.165L851.612 466.162L873.937 504.238L876.01 460.149Z" fill="#FFD198" fill-opacity="0.3"/>
<path d="M196.66 622.898L198.733 666.987L221.058 628.911L202.404 668.914L239.866 645.574L204.759 672.326L248.777 669.07L205.259 676.442L245.748 694.014L203.789 680.319L231.474 714.695L200.685 683.068L209.224 726.372L196.66 684.06L184.096 726.372L192.634 683.068L161.846 714.695L189.531 680.319L147.571 694.014L188.06 676.442L144.542 669.07L188.56 672.326L153.453 645.574L190.915 668.914L172.262 628.911L194.587 666.987L196.66 622.898Z" fill="#FFD198" fill-opacity="0.5"/>
<path d="M1284.46 622.898L1286.53 666.987L1308.86 628.911L1290.2 668.914L1327.67 645.574L1292.56 672.326L1336.58 669.07L1293.06 676.442L1333.55 694.014L1291.59 680.319L1319.27 714.695L1288.48 683.068L1297.02 726.372L1284.46 684.06L1271.89 726.372L1280.43 683.068L1249.65 714.695L1277.33 680.319L1235.37 694.014L1275.86 676.442L1232.34 669.07L1276.36 672.326L1241.25 645.574L1278.71 668.914L1260.06 628.911L1282.39 666.987L1284.46 622.898Z" fill="#FFD198" fill-opacity="0.3"/>
<path d="M482.154 710.73L484.02 750.41L504.112 716.142L487.324 752.145L521.04 731.139L489.443 755.216L529.059 752.285L489.893 758.92L526.333 774.735L488.57 762.409L513.486 793.347L485.777 764.883L493.461 803.857L482.154 765.776L470.846 803.857L478.531 764.883L450.821 793.347L475.738 762.409L437.974 774.735L474.414 758.92L435.248 752.285L474.864 755.216L443.268 731.139L476.984 752.145L460.196 716.142L480.288 750.41L482.154 710.73Z" fill="#FFD198" fill-opacity="0.3"/>
<path d="M740.559 622.898L742.632 666.987L764.957 628.911L746.303 668.914L783.766 645.574L748.659 672.326L792.676 669.07L749.158 676.442L789.647 694.014L747.688 680.319L775.373 714.695L744.585 683.068L753.123 726.372L740.559 684.06L727.995 726.372L736.533 683.068L705.745 714.695L733.43 680.319L691.471 694.014L731.96 676.442L688.442 669.07L732.459 672.326L697.352 645.574L734.815 668.914L716.161 628.911L738.486 666.987L740.559 622.898Z" fill="#FFD198" fill-opacity="0.5"/>
<path d="M971.664 710.73L973.53 750.41L993.622 716.142L976.834 752.145L1010.55 731.139L978.954 755.216L1018.57 752.285L979.403 758.92L1015.84 774.735L978.08 762.409L1003 793.347L975.287 764.883L982.972 803.857L971.664 765.776L960.356 803.857L968.041 764.883L940.332 793.347L965.248 762.409L927.485 774.735L963.925 758.92L924.759 752.285L964.374 755.216L932.778 731.139L966.494 752.145L949.706 716.142L969.798 750.41L971.664 710.73Z" fill="#FFD198" fill-opacity="0.5"/>
<path d="M114.55 855.316L116.416 894.996L136.508 860.728L119.72 896.73L153.436 875.725L121.839 899.801L161.455 896.87L122.289 903.505L158.729 919.321L120.966 906.994L145.882 937.933L118.173 909.469L125.857 948.443L114.55 910.362L103.242 948.443L110.927 909.469L83.2173 937.933L108.134 906.994L70.3703 919.321L106.81 903.505L67.6443 896.87L107.26 899.801L75.6638 875.725L109.38 896.73L92.5916 860.728L112.684 894.996L114.55 855.316Z" fill="#FFD198" fill-opacity="0.3"/>
<path d="M258.19 791.948L259.293 815.403L271.17 795.147L261.246 816.429L281.176 804.012L262.499 818.244L285.917 816.511L262.765 820.433L284.305 829.782L261.983 822.496L276.711 840.784L260.332 823.959L264.874 846.996L258.19 824.486L251.506 846.996L256.049 823.959L239.669 840.784L254.398 822.496L232.075 829.782L253.615 820.433L230.464 816.511L253.881 818.244L235.204 804.012L255.134 816.429L245.211 795.147L257.087 815.403L258.19 791.948Z" fill="#FFD198" fill-opacity="0.8"/>
<path d="M227.53 988.299L228.632 1011.75L240.509 991.498L230.586 1012.78L250.516 1000.36L231.839 1014.59L255.256 1012.86L232.104 1016.78L253.645 1026.13L231.322 1018.85L246.051 1037.13L229.671 1020.31L234.214 1043.35L227.53 1020.84L220.846 1043.35L225.388 1020.31L209.009 1037.13L223.737 1018.85L201.415 1026.13L222.955 1016.78L199.803 1012.86L223.221 1014.59L204.544 1000.36L224.474 1012.78L214.55 991.498L226.427 1011.75L227.53 988.299Z" fill="#FFD198" fill-opacity="0.3"/>
<path d="M1465.48 594.548L1466.58 618.003L1478.46 597.747L1468.54 619.028L1488.47 606.612L1469.79 620.844L1493.21 619.111L1470.05 623.033L1491.59 632.382L1469.27 625.096L1484 643.384L1467.62 626.558L1472.16 649.596L1465.48 627.086L1458.8 649.596L1463.34 626.558L1446.96 643.384L1461.69 625.096L1439.36 632.382L1460.9 623.033L1437.75 619.111L1461.17 620.844L1442.49 606.612L1462.42 619.028L1452.5 597.747L1464.38 618.003L1465.48 594.548Z" fill="#FFD198" fill-opacity="0.8"/>
<path d="M29.0799 598.747L30.1828 622.202L42.0596 601.946L32.1359 623.227L52.0659 610.811L33.3889 625.043L56.8063 623.31L33.6548 627.232L55.1949 636.581L32.8726 629.295L47.6009 647.583L31.2216 630.757L35.764 653.795L29.0799 631.285L22.3958 653.795L26.9383 630.757L10.5589 647.583L25.2872 629.295L2.9649 636.581L24.5051 627.232L1.35354 623.31L24.7709 625.043L6.09396 610.811L26.0239 623.227L16.1002 601.946L27.977 622.202L29.0799 598.747Z" fill="#FFD198" fill-opacity="0.3"/>
<path d="M788.44 763.598L789.543 787.053L801.42 766.797L791.496 788.079L811.426 775.662L792.749 789.894L816.167 788.161L793.015 792.084L814.555 801.432L792.233 794.146L806.961 812.434L790.582 795.609L795.124 818.646L788.44 796.136L781.756 818.646L786.299 795.609L769.919 812.434L784.648 794.146L762.325 801.432L783.865 792.084L760.714 788.161L784.131 789.894L765.454 775.662L785.384 788.079L775.461 766.797L787.337 787.053L788.44 763.598Z" fill="#FFD198" fill-opacity="0.3"/>
<path d="M1211.59 780.399L1212.69 803.854L1224.57 783.598L1214.65 804.879L1234.58 792.463L1215.9 806.694L1239.32 804.962L1216.16 808.884L1237.7 818.233L1215.38 810.946L1230.11 829.234L1213.73 812.409L1218.27 835.447L1211.59 812.937L1204.91 835.447L1209.45 812.409L1193.07 829.234L1207.8 810.946L1185.47 818.233L1207.01 808.884L1183.86 804.962L1207.28 806.694L1188.6 792.463L1208.53 804.879L1198.61 783.598L1210.49 803.854L1211.59 780.399Z" fill="#FFD198" fill-opacity="0.3"/>
<path d="M1081.39 586.147L1082.49 609.603L1094.37 589.347L1084.45 610.628L1104.38 598.211L1085.7 612.443L1109.12 610.711L1085.96 614.633L1107.5 623.982L1085.18 616.695L1099.91 634.983L1083.53 618.158L1088.07 641.196L1081.39 618.686L1074.71 641.196L1079.25 618.158L1062.87 634.983L1077.6 616.695L1055.27 623.982L1076.82 614.633L1053.66 610.711L1077.08 612.443L1058.4 598.211L1078.33 610.628L1068.41 589.347L1080.29 609.603L1081.39 586.147Z" fill="#FFD198" fill-opacity="0.3"/>
<path d="M1401.01 868.598L1403.08 912.687L1425.41 874.611L1406.75 914.614L1444.22 891.274L1409.11 918.026L1453.13 914.77L1409.61 922.142L1450.1 939.715L1408.14 926.019L1435.82 960.395L1405.04 928.768L1413.57 972.072L1401.01 929.76L1388.45 972.072L1396.98 928.768L1366.2 960.395L1393.88 926.019L1351.92 939.715L1392.41 922.142L1348.89 914.77L1392.91 918.026L1357.8 891.274L1395.27 914.614L1376.61 874.611L1398.94 912.687L1401.01 868.598Z" fill="#FFD198" fill-opacity="0.8"/>
<rect x="0.995117" y="1285.64" width="142.721" height="439.059" fill="#13766C"/>
<rect x="119.748" y="1356.46" width="102.411" height="375.869" fill="#13766C"/>
<rect x="407.369" y="1329.22" width="142.721" height="439.059" fill="#13766C"/>
<rect x="1134.05" y="1345.56" width="142.721" height="376.959" fill="#13766C"/>
<rect x="1382.45" y="1290" width="142.721" height="394.39" fill="#13766C"/>
<path d="M1134.05 1292.72L1276.77 1345.56H1134.05V1292.72Z" fill="#13766C"/>
<rect x="6.44238" y="1263.85" width="78.4422" height="21.7895" fill="#13766C"/>
<rect x="3.17432" y="1280.19" width="137.274" height="21.7895" fill="#13766C"/>
<rect x="166.596" y="1345.56" width="47.9369" height="21.7895" fill="#13766C"/>
<rect x="417.175" y="1323.77" width="123.111" height="10.8948" fill="#13766C"/>
<rect x="442.233" y="1297.62" width="71.9054" height="31.5948" fill="#13766C"/>
<rect x="457.486" y="1271.48" width="41.4001" height="52.2948" fill="#13766C"/>
<rect x="471.648" y="1245.33" width="13.0737" height="52.2948" fill="#13766C"/>
<rect x="173.132" y="1334.67" width="34.8632" height="21.7895" fill="#13766C"/>
<rect x="12.9785" y="1252.96" width="66.458" height="21.7895" fill="#13766C"/>
<rect x="16.2476" y="1247.51" width="59.9212" height="21.7895" fill="#13766C"/>
<line x1="1484.32" y1="1292.18" x2="1484.32" y2="1259.49" stroke="#13766C" stroke-width="3.26843"/>
<line x1="1495.21" y1="1292.18" x2="1495.21" y2="1222.45" stroke="#13766C" stroke-width="3.26843"/>
<line x1="1507.19" y1="1304.16" x2="1507.19" y2="1234.44" stroke="#13766C" stroke-width="3.26843"/>
<rect x="89.2427" y="1288.91" width="7.62633" height="10.8948" fill="#158075"/>
<rect x="100.137" y="1288.91" width="7.62633" height="10.8948" fill="#158075"/>
<rect x="111.031" y="1288.91" width="7.62633" height="10.8948" fill="#158075"/>
<rect x="121.927" y="1288.91" width="7.62633" height="10.8948" fill="#158075"/>
<rect x="132.821" y="1288.91" width="7.62633" height="10.8948" fill="#158075"/>
<rect x="100.137" y="1303.07" width="7.62633" height="10.8948" fill="#158075"/>
<rect x="111.031" y="1303.07" width="7.62633" height="10.8948" fill="#158075"/>
<rect x="121.927" y="1303.07" width="7.62633" height="10.8948" fill="#158075"/>
<rect x="132.821" y="1303.07" width="7.62633" height="10.8948" fill="#158075"/>
<rect x="111.031" y="1317.23" width="7.62633" height="10.8948" fill="#158075"/>
<rect x="121.927" y="1317.23" width="7.62633" height="10.8948" fill="#158075"/>
<rect x="132.821" y="1317.23" width="7.62633" height="10.8948" fill="#158075"/>
<rect x="121.927" y="1331.4" width="7.62633" height="10.8948" fill="#158075"/>
<rect x="132.822" y="1331.4" width="7.62633" height="10.8948" fill="#158075"/>
<rect x="132.821" y="1345.56" width="7.62633" height="10.8948" fill="#158075"/>
<line x1="478.186" y1="1251.87" x2="478.186" y2="1232.26" stroke="#13766C" stroke-width="2.17895"/>
<rect x="222.159" y="1419.65" width="154.706" height="269.1" fill="#13766C"/>
<path d="M575.148 1431.63H690.633V1677.85H575.148V1431.63Z" fill="#13766C"/>
<path d="M1020.74 1367.35H1136.23V1688.75H1020.74V1367.35Z" fill="#13766C"/>
<path d="M1272.41 1410.93H1387.9V1732.32H1272.41V1410.93Z" fill="#13766C"/>
<path d="M883.471 1432.72H998.955V1754.12H883.471V1432.72Z" fill="#13766C"/>
<rect x="230.874" y="1383.69" width="134.005" height="39.2211" fill="#13766C"/>
<rect x="251.575" y="1356.46" width="91.516" height="39.2211" fill="#13766C"/>
<rect x="592.58" y="1407.66" width="80.6212" height="32.6843" fill="#13766C"/>
<rect x="598.028" y="1395.68" width="69.7264" height="32.6843" fill="#13766C"/>
<rect x="925.96" y="1393.5" width="65.3685" height="39.2211" fill="#13766C"/>
<rect x="945.57" y="1377.16" width="41.4001" height="39.2211" fill="#13766C"/>
<rect x="1033.82" y="1328.13" width="45.758" height="39.2211" fill="#13766C"/>
<rect x="1054.52" y="1296.54" width="17.4316" height="39.2211" fill="#13766C"/>
<rect x="1297.47" y="1371.71" width="45.758" height="39.2211" fill="#13766C"/>
<rect x="-26.2417" y="1656.06" width="1568.84" height="129.648" fill="#0D685F"/>
<rect x="-26.2417" y="1489.37" width="145.99" height="291.979" fill="#0D685F"/>
<rect x="119.749" y="1522.05" width="117.663" height="259.295" fill="#0D685F"/>
<rect x="291.886" y="1522.05" width="117.663" height="259.295" fill="#0D685F"/>
<rect x="407.371" y="1571.08" width="107.858" height="210.269" fill="#0D685F"/>
<rect x="570.792" y="1589.6" width="87.1581" height="191.748" fill="#0D685F"/>
<rect x="657.949" y="1577.62" width="87.1581" height="203.732" fill="#0D685F"/>
<rect x="777.792" y="1538.4" width="87.1581" height="242.953" fill="#0D685F"/>
<rect x="862.771" y="1480.66" width="93.6949" height="259.295" fill="#0D685F"/>
<rect x="1306.19" y="1506.8" width="93.6949" height="274.548" fill="#0D685F"/>
<rect x="1215.76" y="1538.4" width="93.6949" height="242.953" fill="#0D685F"/>
<rect x="1417.31" y="1480.66" width="125.29" height="300.695" fill="#0D685F"/>
<line x1="-29.5098" y1="1485.56" x2="123.017" y2="1485.56" stroke="#0D685F" stroke-width="7.62633"/>
<line x1="288.617" y1="1520.42" x2="412.817" y2="1520.42" stroke="#0D685F" stroke-width="3.26843"/>
<line x1="773.434" y1="1535.67" x2="869.307" y2="1535.67" stroke="#0D685F" stroke-width="5.44738"/>
<line x1="1210.31" y1="1535.67" x2="1306.19" y2="1535.67" stroke="#0D685F" stroke-width="5.44738"/>
<rect x="1318.17" y="1447.97" width="69.7264" height="66.458" fill="#0D685F"/>
<rect x="1345.41" y="1419.64" width="15.2527" height="66.458" fill="#0D685F"/>
<rect x="1353.04" y="1394.59" width="1.08948" height="66.458" fill="#0D685F"/>
<circle cx="1086.66" cy="1538.94" r="85.5238" stroke="#0D685F" stroke-width="2.17895"/>
<circle cx="1086.66" cy="1538.94" r="59.3764" stroke="#0D685F" stroke-width="2.17895"/>
<path d="M1087.75 1438.16L1087.75 1639.72" stroke="#0D685F" stroke-width="2.17895" stroke-linecap="round"/>
<circle cx="1087.75" cy="1435.44" r="8.17107" fill="#0D685F"/>
<circle cx="1087.75" cy="1642.44" r="8.17107" fill="#0D685F"/>
<path d="M1049.18 1445.83L1126.31 1632.05" stroke="#0D685F" stroke-width="2.17895" stroke-linecap="round"/>
<circle cx="1048.14" cy="1443.32" r="8.17107" transform="rotate(-22.5 1048.14 1443.32)" fill="#0D685F"/>
<circle cx="1127.35" cy="1634.56" r="8.17107" transform="rotate(-22.5 1127.35 1634.56)" fill="#0D685F"/>
<path d="M1126.31 1445.83L1049.18 1632.04" stroke="#0D685F" stroke-width="2.17895" stroke-linecap="round"/>
<circle cx="1127.35" cy="1443.32" r="8.17107" transform="rotate(22.5 1127.35 1443.32)" fill="#0D685F"/>
<circle cx="1048.14" cy="1634.56" r="8.17107" transform="rotate(22.5 1048.14 1634.56)" fill="#0D685F"/>
<path d="M994.642 1500.37L1180.85 1577.5" stroke="#0D685F" stroke-width="2.17895" stroke-linecap="round"/>
<circle cx="992.126" cy="1499.33" r="8.17107" transform="rotate(-67.5 992.126 1499.33)" fill="#0D685F"/>
<circle cx="1183.37" cy="1578.55" r="8.17107" transform="rotate(-67.5 1183.37 1578.55)" fill="#0D685F"/>
<path d="M1180.85 1500.37L994.642 1577.5" stroke="#0D685F" stroke-width="2.17895" stroke-linecap="round"/>
<circle cx="1183.37" cy="1499.33" r="8.17107" transform="rotate(67.5 1183.37 1499.33)" fill="#0D685F"/>
<circle cx="992.125" cy="1578.55" r="8.17107" transform="rotate(67.5 992.125 1578.55)" fill="#0D685F"/>
<path d="M986.972 1538.94L1188.52 1538.94" stroke="#0D685F" stroke-width="2.17895" stroke-linecap="round"/>
<circle cx="984.247" cy="1538.94" r="8.17107" transform="rotate(-90 984.247 1538.94)" fill="#0D685F"/>
<circle cx="1191.25" cy="1538.94" r="8.17107" transform="rotate(-90 1191.25 1538.94)" fill="#0D685F"/>
<path d="M1016.49 1467.68L1159.01 1610.2" stroke="#0D685F" stroke-width="2.17895" stroke-linecap="round"/>
<circle cx="1014.56" cy="1465.75" r="8.17107" transform="rotate(-45 1014.56 1465.75)" fill="#0D685F"/>
<circle cx="1160.93" cy="1612.13" r="8.17107" transform="rotate(-45 1160.93 1612.13)" fill="#0D685F"/>
<path d="M1159.01 1467.68L1016.49 1610.2" stroke="#0D685F" stroke-width="2.17895" stroke-linecap="round"/>
<circle cx="1160.93" cy="1465.75" r="8.17107" transform="rotate(45 1160.93 1465.75)" fill="#0D685F"/>
<circle cx="1014.56" cy="1612.13" r="8.17107" transform="rotate(45 1014.56 1612.13)" fill="#0D685F"/>
<line x1="1088.15" y1="1543.29" x2="993.365" y2="1709.98" stroke="#0D685F" stroke-width="2.17895"/>
<line x1="1088.15" y1="1542.22" x2="1181.85" y2="1708.91" stroke="#0D685F" stroke-width="2.17895"/>
<rect x="1422.76" y="1457.77" width="56.6527" height="33.7737" fill="#0D685F"/>
<rect x="1427.12" y="1440.34" width="47.9369" height="33.7737" fill="#0D685F"/>
<rect x="1492.49" y="1456.68" width="19.6106" height="33.7737" fill="#0D685F"/>
<rect x="1430.39" y="1435.98" width="41.4001" height="33.7737" fill="#0D685F"/>
<rect x="300.601" y="1502.44" width="50.1159" height="19.6106" fill="#0D685F"/>
<rect x="1223.39" y="1546.02" width="5.44738" height="14.1632" fill="#0F786E"/>
<rect x="869.307" y="1490.46" width="5.44738" height="14.1632" fill="#0F786E"/>
<rect x="880.203" y="1490.46" width="5.44738" height="14.1632" fill="#0F786E"/>
<rect x="869.307" y="1508.98" width="5.44738" height="14.1632" fill="#0F786E"/>
<rect x="869.307" y="1527.5" width="5.44738" height="14.1632" fill="#0F786E"/>
<rect x="880.203" y="1508.98" width="5.44738" height="14.1632" fill="#0F786E"/>
<rect x="891.097" y="1490.46" width="5.44738" height="14.1632" fill="#0F786E"/>
<rect x="1241.91" y="1546.02" width="5.44738" height="14.1632" fill="#0F786E"/>
<rect x="1260.43" y="1546.02" width="5.44738" height="14.1632" fill="#0F786E"/>
<rect x="1278.95" y="1546.02" width="5.44738" height="14.1632" fill="#0F786E"/>
<rect x="1297.47" y="1546.02" width="5.44738" height="14.1632" fill="#0F786E"/>
<rect x="1223.39" y="1571.08" width="5.44738" height="14.1632" fill="#0F786E"/>
<rect x="1241.91" y="1571.08" width="5.44738" height="14.1632" fill="#0F786E"/>
<rect x="1260.43" y="1571.08" width="5.44738" height="14.1632" fill="#0F786E"/>
<rect x="1278.95" y="1571.08" width="5.44738" height="14.1632" fill="#0F786E"/>
<rect x="1297.47" y="1571.08" width="5.44738" height="14.1632" fill="#0F786E"/>
<rect x="1223.39" y="1596.14" width="5.44738" height="14.1632" fill="#0F786E"/>
<rect x="1241.91" y="1596.14" width="5.44738" height="14.1632" fill="#0F786E"/>
<rect x="1260.43" y="1596.14" width="5.44738" height="14.1632" fill="#0F786E"/>
<rect x="1278.95" y="1596.14" width="5.44738" height="14.1632" fill="#0F786E"/>
<rect x="1297.47" y="1596.14" width="5.44738" height="14.1632" fill="#0F786E"/>
<rect x="1223.39" y="1621.2" width="5.44738" height="14.1632" fill="#0F786E"/>
<rect x="1241.91" y="1621.2" width="5.44738" height="14.1632" fill="#0F786E"/>
<rect x="1260.43" y="1621.2" width="5.44738" height="14.1632" fill="#0F786E"/>
<rect x="1278.95" y="1621.2" width="5.44738" height="14.1632" fill="#0F786E"/>
<rect x="1297.47" y="1621.2" width="5.44738" height="14.1632" fill="#0F786E"/>
<rect x="125.196" y="1528.59" width="4.3579" height="18.5211" fill="#0F786E"/>
<rect x="134.457" y="1528.59" width="4.3579" height="18.5211" fill="#0F786E"/>
<rect x="143.716" y="1528.59" width="4.3579" height="18.5211" fill="#0F786E"/>
<rect x="152.977" y="1528.59" width="4.3579" height="18.5211" fill="#0F786E"/>
<rect x="162.238" y="1528.59" width="4.3579" height="18.5211" fill="#0F786E"/>
<rect x="171.499" y="1528.59" width="4.3579" height="18.5211" fill="#0F786E"/>
<rect x="180.758" y="1528.59" width="4.3579" height="18.5211" fill="#0F786E"/>
<rect x="190.02" y="1528.59" width="4.3579" height="18.5211" fill="#0F786E"/>
<rect x="199.28" y="1528.59" width="4.3579" height="18.5211" fill="#0F786E"/>
<rect x="208.541" y="1528.59" width="4.3579" height="18.5211" fill="#0F786E"/>
<rect x="217.801" y="1528.59" width="4.3579" height="18.5211" fill="#0F786E"/>
<rect x="227.062" y="1528.59" width="4.3579" height="18.5211" fill="#0F786E"/>
<rect x="125.196" y="1550.38" width="4.3579" height="18.5211" fill="#0F786E"/>
<rect x="134.457" y="1550.38" width="4.3579" height="18.5211" fill="#0F786E"/>
<rect x="143.716" y="1550.38" width="4.3579" height="18.5211" fill="#0F786E"/>
<rect x="152.977" y="1550.38" width="4.3579" height="18.5211" fill="#0F786E"/>
<rect x="162.238" y="1550.38" width="4.3579" height="18.5211" fill="#0F786E"/>
<rect x="171.499" y="1550.38" width="4.3579" height="18.5211" fill="#0F786E"/>
<rect x="180.758" y="1550.38" width="4.3579" height="18.5211" fill="#0F786E"/>
<rect x="190.02" y="1550.38" width="4.3579" height="18.5211" fill="#0F786E"/>
<rect x="199.28" y="1550.38" width="4.3579" height="18.5211" fill="#0F786E"/>
<rect x="208.541" y="1550.38" width="4.3579" height="18.5211" fill="#0F786E"/>
<rect x="217.801" y="1550.38" width="4.3579" height="18.5211" fill="#0F786E"/>
<rect x="227.062" y="1550.38" width="4.3579" height="18.5211" fill="#0F786E"/>
<rect x="125.196" y="1572.17" width="4.3579" height="18.5211" fill="#0F786E"/>
<rect x="134.457" y="1572.17" width="4.3579" height="18.5211" fill="#0F786E"/>
<rect x="143.716" y="1572.17" width="4.3579" height="18.5211" fill="#0F786E"/>
<rect x="152.977" y="1572.17" width="4.3579" height="18.5211" fill="#0F786E"/>
<rect x="162.238" y="1572.17" width="4.3579" height="18.5211" fill="#0F786E"/>
<rect x="171.499" y="1572.17" width="4.3579" height="18.5211" fill="#0F786E"/>
<rect x="180.758" y="1572.17" width="4.3579" height="18.5211" fill="#0F786E"/>
<rect x="190.02" y="1572.17" width="4.3579" height="18.5211" fill="#0F786E"/>
<rect x="199.28" y="1572.17" width="4.3579" height="18.5211" fill="#0F786E"/>
<rect x="208.541" y="1572.17" width="4.3579" height="18.5211" fill="#0F786E"/>
<rect x="217.801" y="1572.17" width="4.3579" height="18.5211" fill="#0F786E"/>
<rect x="227.062" y="1572.17" width="4.3579" height="18.5211" fill="#0F786E"/>
<rect x="125.196" y="1593.96" width="4.3579" height="18.5211" fill="#0F786E"/>
<rect x="134.457" y="1593.96" width="4.3579" height="18.5211" fill="#0F786E"/>
<rect x="143.716" y="1593.96" width="4.3579" height="18.5211" fill="#0F786E"/>
<rect x="152.977" y="1593.96" width="4.3579" height="18.5211" fill="#0F786E"/>
<rect x="162.238" y="1593.96" width="4.3579" height="18.5211" fill="#0F786E"/>
<rect x="171.499" y="1593.96" width="4.3579" height="18.5211" fill="#0F786E"/>
<rect x="180.758" y="1593.96" width="4.3579" height="18.5211" fill="#0F786E"/>
<rect x="190.02" y="1593.96" width="4.3579" height="18.5211" fill="#0F786E"/>
<rect x="199.28" y="1593.96" width="4.3579" height="18.5211" fill="#0F786E"/>
<rect x="208.541" y="1593.96" width="4.3579" height="18.5211" fill="#0F786E"/>
<rect x="217.801" y="1593.96" width="4.3579" height="18.5211" fill="#0F786E"/>
<rect x="227.062" y="1593.96" width="4.3579" height="18.5211" fill="#0F786E"/>
<rect x="162.238" y="1615.75" width="4.3579" height="18.5211" fill="#0F786E"/>
<rect x="171.499" y="1615.75" width="4.3579" height="18.5211" fill="#0F786E"/>
<rect x="180.758" y="1615.75" width="4.3579" height="18.5211" fill="#0F786E"/>
<rect x="190.02" y="1615.75" width="4.3579" height="18.5211" fill="#0F786E"/>
<rect x="199.28" y="1615.75" width="4.3579" height="18.5211" fill="#0F786E"/>
<rect x="208.541" y="1615.75" width="4.3579" height="18.5211" fill="#0F786E"/>
<rect x="217.801" y="1615.75" width="4.3579" height="18.5211" fill="#0F786E"/>
<rect x="227.062" y="1615.75" width="4.3579" height="18.5211" fill="#0F786E"/>
<rect x="171.499" y="1637.54" width="4.3579" height="18.5211" fill="#0F786E"/>
<rect x="180.758" y="1637.54" width="4.3579" height="18.5211" fill="#0F786E"/>
<rect x="190.02" y="1637.54" width="4.3579" height="18.5211" fill="#0F786E"/>
<rect x="199.28" y="1637.54" width="4.3579" height="18.5211" fill="#0F786E"/>
<rect x="208.541" y="1637.54" width="4.3579" height="18.5211" fill="#0F786E"/>
<rect x="217.801" y="1637.54" width="4.3579" height="18.5211" fill="#0F786E"/>
<rect x="227.062" y="1637.54" width="4.3579" height="18.5211" fill="#0F786E"/>
<rect x="-26.2422" y="1548.2" width="66.458" height="237.506" fill="#045954"/>
<rect x="40.2158" y="1617.93" width="51.2054" height="167.779" fill="#045954"/>
<rect x="119.749" y="1657.15" width="65.3685" height="128.558" fill="#045954"/>
<rect x="185.116" y="1617.93" width="65.3685" height="167.779" fill="#045954"/>
<rect x="250.485" y="1697.46" width="65.3685" height="88.2475" fill="#045954"/>
<rect x="315.853" y="1586.33" width="61.0106" height="199.374" fill="#045954"/>
<rect x="376.864" y="1641.9" width="61.0106" height="143.811" fill="#045954"/>
<rect x="437.874" y="1709.45" width="43.579" height="76.2633" fill="#045954"/>
<rect x="481.453" y="1669.14" width="43.579" height="116.574" fill="#045954"/>
<rect x="553.359" y="1709.45" width="43.579" height="76.2633" fill="#045954"/>
<rect x="596.938" y="1641.9" width="81.7107" height="143.811" fill="#045954"/>
<rect x="678.648" y="1726.88" width="57.7422" height="58.8317" fill="#045954"/>
<rect x="736.391" y="1683.3" width="117.663" height="102.411" fill="#045954"/>
<rect x="871.485" y="1657.15" width="76.2633" height="128.558" fill="#045954"/>
<rect x="966.271" y="1586.33" width="76.2633" height="199.374" fill="#045954"/>
<rect x="1070.86" y="1657.15" width="120.932" height="128.558" fill="#045954"/>
<rect x="1220.12" y="1669.14" width="37.0422" height="116.574" fill="#045954"/>
<rect x="1257.16" y="1586.33" width="98.0528" height="199.374" fill="#045954"/>
<rect x="1355.21" y="1697.46" width="98.0528" height="88.2475" fill="#045954"/>
<rect x="1442.37" y="1548.2" width="100.232" height="237.506" fill="#045954"/>
<rect x="1029.46" y="1697.46" width="67.5475" height="76.2633" fill="#045954"/>
<rect x="837.712" y="1709.45" width="67.5475" height="64.2791" fill="#045954"/>
<rect x="-26.2422" y="1762.83" width="1568.84" height="22.879" fill="#045954"/>
<line x1="376.864" y1="1639.17" x2="442.233" y2="1639.17" stroke="#045954" stroke-width="5.44738"/>
<line x1="478.185" y1="1666.41" x2="528.301" y2="1666.41" stroke="#045954" stroke-width="5.44738"/>
<line x1="592.579" y1="1639.17" x2="684.095" y2="1639.17" stroke="#045954" stroke-width="5.44738"/>
<line x1="868.218" y1="1654.43" x2="951.018" y2="1654.43" stroke="#045954" stroke-width="5.44738"/>
<line x1="963.001" y1="1583.61" x2="1045.8" y2="1583.61" stroke="#045954" stroke-width="5.44738"/>
<line x1="966.271" y1="1580.34" x2="1041.44" y2="1580.34" stroke="#045954" stroke-width="5.44738"/>
<line x1="1010.94" y1="1571.63" x2="1038.17" y2="1571.63" stroke="#045954" stroke-width="11.9842"/>
<line x1="1327.98" y1="1580.34" x2="1355.21" y2="1580.34" stroke="#045954" stroke-width="11.9842"/>
<line x1="1438.01" y1="1542.21" x2="1546.96" y2="1542.21" stroke="#045954" stroke-width="11.9842"/>
<rect x="322.389" y="1578.71" width="18.5211" height="10.8948" fill="#045954"/>
<rect x="484.722" y="1656.06" width="18.5211" height="10.8948" fill="#045954"/>
<line x1="1509.92" y1="1548.2" x2="1509.92" y2="1506.8" stroke="#045954" stroke-width="2.17895"/>
<line x1="1341.59" y1="1577.62" x2="1341.59" y2="1554.74" stroke="#045954" stroke-width="1.08948"/>
<path d="M136.089 1690.92L178.547 1766.1H93.6313L136.089 1690.92Z" fill="#045954"/>
<path d="M947.749 1701.82L990.207 1776.99H905.291L947.749 1701.82Z" fill="#045954"/>
<path d="M1220.12 1669.14L1275.07 1765.01H1190.16L1220.12 1669.14Z" fill="#045954"/>
<path d="M852.965 1634.82V1683.3H736.391L852.965 1634.82Z" fill="#045954"/>
<line x1="738.57" y1="1734.5" x2="738.57" y2="1675.67" stroke="#045954" stroke-width="4.3579"/>
<line x1="851.874" y1="1688.75" x2="851.874" y2="1629.91" stroke="#045954" stroke-width="4.3579"/>
<line x1="795.223" y1="1709.45" x2="795.223" y2="1650.61" stroke="#045954" stroke-width="4.3579"/>
<line x1="766.897" y1="1721.43" x2="766.897" y2="1662.6" stroke="#045954" stroke-width="4.3579"/>
<line x1="823.549" y1="1697.46" x2="823.549" y2="1638.63" stroke="#045954" stroke-width="4.3579"/>
<rect x="971.718" y="1591.78" width="3.26843" height="10.8948" fill="#046762"/>
<rect x="992.418" y="1591.78" width="3.26843" height="10.8948" fill="#046762"/>
<rect x="1013.12" y="1591.78" width="3.26843" height="10.8948" fill="#046762"/>
<rect x="1033.82" y="1591.78" width="3.26843" height="10.8948" fill="#046762"/>
<rect x="971.718" y="1608.12" width="3.26843" height="10.8948" fill="#046762"/>
<rect x="992.418" y="1608.12" width="3.26843" height="10.8948" fill="#046762"/>
<rect x="1013.12" y="1608.12" width="3.26843" height="10.8948" fill="#046762"/>
<rect x="1033.82" y="1608.12" width="3.26843" height="10.8948" fill="#046762"/>
<rect x="971.718" y="1624.47" width="3.26843" height="10.8948" fill="#046762"/>
<rect x="992.418" y="1624.47" width="3.26843" height="10.8948" fill="#046762"/>
<rect x="1013.12" y="1624.47" width="3.26843" height="10.8948" fill="#046762"/>
<rect x="1033.82" y="1624.47" width="3.26843" height="10.8948" fill="#046762"/>
<rect x="971.718" y="1640.81" width="3.26843" height="10.8948" fill="#046762"/>
<rect x="992.418" y="1640.81" width="3.26843" height="10.8948" fill="#046762"/>
<rect x="1013.12" y="1640.81" width="3.26843" height="10.8948" fill="#046762"/>
<rect x="1033.82" y="1640.81" width="3.26843" height="10.8948" fill="#046762"/>
<rect x="971.718" y="1657.15" width="3.26843" height="10.8948" fill="#046762"/>
<rect x="992.418" y="1657.15" width="3.26843" height="10.8948" fill="#046762"/>
<rect x="1013.12" y="1657.15" width="3.26843" height="10.8948" fill="#046762"/>
<rect x="1033.82" y="1657.15" width="3.26843" height="10.8948" fill="#046762"/>
<rect x="971.718" y="1673.49" width="3.26843" height="10.8948" fill="#046762"/>
<rect x="992.418" y="1673.49" width="3.26843" height="10.8948" fill="#046762"/>
<rect x="1013.12" y="1673.49" width="3.26843" height="10.8948" fill="#046762"/>
<rect x="1033.82" y="1673.49" width="3.26843" height="10.8948" fill="#046762"/>
<rect x="971.718" y="1689.83" width="3.26843" height="10.8948" fill="#046762"/>
<rect x="992.418" y="1689.83" width="3.26843" height="10.8948" fill="#046762"/>
<rect x="1013.12" y="1689.83" width="3.26843" height="10.8948" fill="#046762"/>
<rect x="1033.82" y="1689.83" width="3.26843" height="10.8948" fill="#046762"/>
<rect x="971.718" y="1706.17" width="3.26843" height="10.8948" fill="#046762"/>
<rect x="992.418" y="1706.17" width="3.26843" height="10.8948" fill="#046762"/>
<rect x="1013.12" y="1706.17" width="3.26843" height="10.8948" fill="#046762"/>
<rect x="1033.82" y="1706.17" width="3.26843" height="10.8948" fill="#046762"/>
<rect x="971.718" y="1722.52" width="3.26843" height="10.8948" fill="#046762"/>
<rect x="992.418" y="1722.52" width="3.26843" height="10.8948" fill="#046762"/>
<rect x="1013.12" y="1722.52" width="3.26843" height="10.8948" fill="#046762"/>
<rect x="971.718" y="1738.86" width="3.26843" height="10.8948" fill="#046762"/>
<rect x="992.418" y="1738.86" width="3.26843" height="10.8948" fill="#046762"/>
<rect x="1013.12" y="1738.86" width="3.26843" height="10.8948" fill="#046762"/>
<rect x="1033.82" y="1722.52" width="3.26843" height="10.8948" fill="#046762"/>
<rect x="749.464" y="1686.57" width="6.53685" height="10.8948" fill="#046762"/>
<rect x="777.792" y="1686.57" width="6.53685" height="10.8948" fill="#046762"/>
<rect x="806.117" y="1686.57" width="6.53685" height="10.8948" fill="#046762"/>
<rect x="834.444" y="1686.57" width="6.53685" height="10.8948" fill="#046762"/>
<rect x="749.464" y="1711.63" width="6.53685" height="10.8948" fill="#046762"/>
<rect x="777.792" y="1711.63" width="6.53685" height="10.8948" fill="#046762"/>
<rect x="806.117" y="1711.63" width="6.53685" height="10.8948" fill="#046762"/>
<rect x="834.444" y="1711.63" width="6.53685" height="10.8948" fill="#046762"/>
<rect x="749.464" y="1736.68" width="6.53685" height="10.8948" fill="#046762"/>
<rect x="777.792" y="1736.68" width="6.53685" height="10.8948" fill="#046762"/>
<rect x="806.117" y="1736.68" width="6.53685" height="10.8948" fill="#046762"/>
<rect x="834.444" y="1736.68" width="6.53685" height="10.8948" fill="#046762"/>
<rect x="1450" y="1554.74" width="6.53685" height="16.3421" fill="#046762"/>
<rect x="1459.8" y="1554.74" width="5.44738" height="16.3421" fill="#046762"/>
<rect x="1468.52" y="1554.74" width="4.3579" height="16.3421" fill="#046762"/>
<rect x="1262.61" y="1591.78" width="5.44738" height="9.80528" fill="#046762"/>
<rect x="1277.86" y="1591.78" width="4.3579" height="9.80528" fill="#046762"/>
<rect x="1292.02" y="1591.78" width="3.26843" height="9.80528" fill="#046762"/>
<rect x="1305.1" y="1591.78" width="2.17895" height="9.80528" fill="#046762"/>
<rect x="1317.08" y="1591.78" width="1.08948" height="9.80528" fill="#046762"/>
<rect x="1262.61" y="1608.12" width="5.44738" height="9.80528" fill="#046762"/>
<rect x="1277.86" y="1608.12" width="4.3579" height="9.80528" fill="#046762"/>
<rect x="1292.02" y="1608.12" width="3.26843" height="9.80528" fill="#046762"/>
<rect x="1305.1" y="1608.12" width="2.17895" height="9.80528" fill="#046762"/>
<rect x="1317.08" y="1608.12" width="1.08948" height="9.80528" fill="#046762"/>
<rect x="1262.61" y="1624.47" width="5.44738" height="9.80528" fill="#046762"/>
<rect x="1277.86" y="1624.47" width="4.3579" height="9.80528" fill="#046762"/>
<rect x="1292.02" y="1624.47" width="3.26843" height="9.80528" fill="#046762"/>
<rect x="1305.1" y="1624.47" width="2.17895" height="9.80528" fill="#046762"/>
<rect x="1317.08" y="1624.47" width="1.08948" height="9.80528" fill="#046762"/>
<rect x="1262.61" y="1640.81" width="5.44738" height="9.80528" fill="#046762"/>
<rect x="1277.86" y="1640.81" width="4.3579" height="9.80528" fill="#046762"/>
<rect x="1292.02" y="1640.81" width="3.26843" height="9.80528" fill="#046762"/>
<rect x="1305.1" y="1640.81" width="2.17895" height="9.80528" fill="#046762"/>
<rect x="1317.08" y="1640.81" width="1.08948" height="9.80528" fill="#046762"/>
<rect x="319.121" y="1589.6" width="4.3579" height="6.53685" fill="#046762"/>
<rect x="325.658" y="1589.6" width="4.3579" height="6.53685" fill="#046762"/>
<rect x="319.121" y="1599.41" width="4.3579" height="6.53685" fill="#046762"/>
<rect x="319.121" y="1609.21" width="4.3579" height="6.53685" fill="#046762"/>
<rect x="325.658" y="1599.41" width="4.3579" height="6.53685" fill="#046762"/>
<rect x="332.196" y="1589.6" width="4.3579" height="6.53685" fill="#046762"/>
<rect x="784.327" y="1547.11" width="5.44738" height="8.71581" fill="#158075"/>
<rect x="794.132" y="1547.11" width="5.44738" height="8.71581" fill="#158075"/>
<rect x="784.327" y="1560.19" width="5.44738" height="8.71581" fill="#158075"/>
<rect x="784.327" y="1573.26" width="5.44738" height="8.71581" fill="#158075"/>
<rect x="794.132" y="1560.19" width="5.44738" height="8.71581" fill="#158075"/>
<rect x="803.938" y="1547.11" width="5.44738" height="8.71581" fill="#158075"/>
</g>
<defs>
<clipPath id="clip0_192_381">
<rect width="1516.2" height="1786.05" fill="white"/>
</clipPath>
</defs>
</svg>
