<svg width="40" height="40" viewBox="0 0 40 40" fill="none" xmlns="http://www.w3.org/2000/svg">
<path d="M7.35056 7.05078C6.48628 7.05078 5.6574 7.39411 5.04627 8.00525C4.43513 8.61639 4.0918 9.44527 4.0918 10.3095V18.4565H14.0799C14.8294 15.5887 17.4202 13.5683 20.3856 13.5683C21.829 13.5722 23.2305 14.0539 24.3712 14.9382C25.512 15.8225 26.3278 17.0596 26.6913 18.4565H36.6795V10.3095C36.6795 9.44527 36.3361 8.61639 35.725 8.00525C35.1138 7.39411 34.285 7.05078 33.4207 7.05078H7.35056ZM20.3856 16.8271C19.5213 16.8271 18.6925 17.1704 18.0813 17.7815C17.4702 18.3927 17.1269 19.2216 17.1269 20.0858C17.1269 20.9501 17.4702 21.779 18.0813 22.3901C18.6925 23.0013 19.5213 23.3446 20.3856 23.3446C21.2499 23.3446 22.0788 23.0013 22.6899 22.3901C23.3011 21.779 23.6444 20.9501 23.6444 20.0858C23.6444 19.2216 23.3011 18.3927 22.6899 17.7815C22.0788 17.1704 21.2499 16.8271 20.3856 16.8271ZM4.0918 21.7152V29.8621C4.0918 30.7264 4.43513 31.5553 5.04627 32.1664C5.6574 32.7776 6.48628 33.1209 7.35056 33.1209H33.4207C34.285 33.1209 35.1138 32.7776 35.725 32.1664C36.3361 31.5553 36.6795 30.7264 36.6795 29.8621V21.7152H26.6913C26.3278 23.1121 25.512 24.3492 24.3712 25.2335C23.2305 26.1178 21.829 26.5995 20.3856 26.6034C18.9423 26.5995 17.5408 26.1178 16.4 25.2335C15.2593 24.3492 14.4435 23.1121 14.0799 21.7152H4.0918Z" fill="#CEB89C"/>
</svg>
