<svg width="1512" height="3021" viewBox="0 0 1512 3021" fill="none" xmlns="http://www.w3.org/2000/svg" preserveAspectRatio="none">
<g clip-path="url(#clip0_1666_1015)">
<rect width="1512" height="3021" fill="#FFBE6C" fill-opacity="0.4"/>
<g clip-path="url(#clip1_1666_1015)">
<rect width="3492.72" height="1940.4" transform="matrix(0 -1 1 0 -123.9 3491.46)" fill="white"/>
<g clip-path="url(#clip2_1666_1015)">
<path d="M-123.902 -2.70996L-123.902 3490.01H1816.5L1816.5 -2.70996H-123.902Z" fill="#F5AE55"/>
<g opacity="0.66" filter="url(#filter0_f_1666_1015)">
<ellipse cx="802.722" cy="658.352" rx="1405.43" ry="1203.3" fill="#F7C74F" fill-opacity="0.75"/>
</g>
<path d="M243.318 3490C243.318 3490 199.417 3273.41 55.0996 3217.14C-83.639 3163.53 -123.902 2943.05 -123.902 2943.05" stroke="#F18C0E" stroke-opacity="0.2" stroke-width="7.875" stroke-miterlimit="10"/>
<path d="M330.636 3490C330.636 3490 278.731 3209.86 97.0607 3137.58C-77.0902 3068.45 -123.902 2783.7 -123.902 2783.7" stroke="#F18C0E" stroke-opacity="0.2" stroke-width="7.875" stroke-miterlimit="10"/>
<path d="M417.954 3490C417.954 3490 358.044 3146.31 138.779 3057.78C-70.5414 2973.37 -123.902 2624.34 -123.902 2624.34" stroke="#F18C0E" stroke-opacity="0.2" stroke-width="7.875" stroke-miterlimit="10"/>
<path d="M505.515 3490C505.515 3490 437.358 3083 180.983 2978.22C-64.235 2878.29 -123.902 2464.99 -123.902 2464.99" stroke="#F18C0E" stroke-opacity="0.2" stroke-width="7.875" stroke-miterlimit="10"/>
<path d="M592.833 3490C592.833 3490 516.672 3019.46 222.702 2898.42C-57.6862 2783.21 -123.902 2305.63 -123.902 2305.63" stroke="#F18C0E" stroke-opacity="0.2" stroke-width="7.875" stroke-miterlimit="10"/>
<path d="M680.151 3490C680.151 3490 595.986 2955.91 264.663 2818.63C-51.1373 2688.13 -123.902 2146.52 -123.902 2146.52" stroke="#F18C0E" stroke-opacity="0.2" stroke-width="7.875" stroke-miterlimit="10"/>
<path d="M767.712 3490C767.712 3490 675.543 2892.6 306.624 2739.07C-44.831 2592.81 -123.902 1987.16 -123.902 1987.16" stroke="#F18C0E" stroke-opacity="0.2" stroke-width="7.875" stroke-miterlimit="10"/>
<path d="M855.029 3490C855.029 3490 754.614 2829.06 348.585 2659.27C-38.2822 2497.73 -123.902 1827.81 -123.902 1827.81" stroke="#F18C0E" stroke-opacity="0.2" stroke-width="7.875" stroke-miterlimit="10"/>
<path d="M942.347 3490C942.347 3490 833.928 2765.51 390.304 2579.71C-31.7333 2402.65 -123.902 1668.45 -123.902 1668.45" stroke="#F18C0E" stroke-opacity="0.2" stroke-width="7.875" stroke-miterlimit="10"/>
<path d="M1029.91 3490C1029.91 3490 913.484 2702.2 432.507 2499.91C-25.4271 2307.57 -123.902 1509.34 -123.902 1509.34" stroke="#F18C0E" stroke-opacity="0.2" stroke-width="7.875" stroke-miterlimit="10"/>
<path d="M1117.23 3490C1117.23 3490 992.798 2638.65 474.469 2420.36C-18.8782 2212.49 -123.902 1349.99 -123.902 1349.99" stroke="#F18C0E" stroke-opacity="0.2" stroke-width="7.875" stroke-miterlimit="10"/>
<path d="M1204.79 3490C1204.79 3490 1072.11 2575.11 516.43 2340.56C-12.3293 2117.41 -123.902 1190.63 -123.902 1190.63" stroke="#F18C0E" stroke-opacity="0.2" stroke-width="7.875" stroke-miterlimit="10"/>
<path d="M1292.1 3490C1292.1 3490 1151.43 2511.8 558.391 2261C-6.02307 2022.33 -123.902 1031.27 -123.902 1031.27" stroke="#F18C0E" stroke-opacity="0.2" stroke-width="7.875" stroke-miterlimit="10"/>
<path d="M1379.42 3490C1379.42 3490 1230.74 2448.25 600.109 2181.2C0.525797 1927.25 -123.902 871.919 -123.902 871.919" stroke="#F18C0E" stroke-opacity="0.2" stroke-width="7.875" stroke-miterlimit="10"/>
<path d="M1466.98 3490C1466.98 3490 1310.05 2384.7 642.313 2101.41C7.07466 1832.17 -123.902 712.807 -123.902 712.807" stroke="#F18C0E" stroke-opacity="0.2" stroke-width="7.875" stroke-miterlimit="10"/>
<path d="M1554.3 3490C1554.3 3490 1389.37 2321.4 684.032 2021.85C13.381 1737.09 -123.902 553.451 -123.902 553.451" stroke="#F18C0E" stroke-opacity="0.2" stroke-width="7.875" stroke-miterlimit="10"/>
<path d="M1641.62 3490C1641.62 3490 1468.68 2257.85 725.993 1942.05C19.9298 1642.02 -123.902 394.096 -123.902 394.096" stroke="#F18C0E" stroke-opacity="0.2" stroke-width="7.875" stroke-miterlimit="10"/>
<path d="M1729.18 3490C1729.18 3490 1548.24 2194.3 767.954 1862.49C26.4787 1546.94 -123.902 234.741 -123.902 234.741" stroke="#F18C0E" stroke-opacity="0.2" stroke-width="7.875" stroke-miterlimit="10"/>
<path d="M1816.5 3490C1816.5 3490 1627.31 2131 809.915 1782.69C32.785 1451.86 -123.902 75.6272 -123.902 75.6272" stroke="#F18C0E" stroke-opacity="0.2" stroke-width="7.875" stroke-miterlimit="10"/>
<path d="M1449.28 6.26133C1449.28 6.26133 1493.18 222.858 1637.5 279.13C1775.99 332.734 1816.5 553.454 1816.5 553.454" stroke="#F18C0E" stroke-opacity="0.2" stroke-width="7.875" stroke-miterlimit="10"/>
<path d="M1361.96 6.26163C1361.96 6.26163 1413.86 286.407 1595.53 358.687C1769.69 427.814 1816.5 712.567 1816.5 712.567" stroke="#F18C0E" stroke-opacity="0.2" stroke-width="7.875" stroke-miterlimit="10"/>
<path d="M1274.4 6.26285C1274.4 6.26285 1334.31 349.956 1553.57 438.487C1763.14 523.137 1816.5 871.924 1816.5 871.924" stroke="#F18C0E" stroke-opacity="0.2" stroke-width="7.875" stroke-miterlimit="10"/>
<path d="M1187.08 6.26339C1187.08 6.26339 1255.24 413.262 1511.61 518.044C1756.59 617.974 1816.5 1031.04 1816.5 1031.04" stroke="#F18C0E" stroke-opacity="0.2" stroke-width="7.875" stroke-miterlimit="10"/>
<path d="M1099.76 6.26292C1099.76 6.26292 1175.92 476.81 1469.89 597.842C1750.28 713.296 1816.5 1190.63 1816.5 1190.63" stroke="#F18C0E" stroke-opacity="0.2" stroke-width="7.875" stroke-miterlimit="10"/>
<path d="M1012.2 6.26328C1012.2 6.26328 1096.37 540.358 1427.69 677.642C1743.73 808.376 1816.5 1349.99 1816.5 1349.99" stroke="#F18C0E" stroke-opacity="0.2" stroke-width="7.875" stroke-miterlimit="10"/>
<path d="M924.883 6.26338C924.883 6.26338 1017.05 603.664 1385.97 757.198C1737.18 903.456 1816.5 1509.35 1816.5 1509.35" stroke="#F18C0E" stroke-opacity="0.2" stroke-width="7.875" stroke-miterlimit="10"/>
<path d="M837.566 6.26166C837.566 6.26166 937.982 667.21 1344.01 836.995C1730.88 998.534 1816.5 1668.46 1816.5 1668.46" stroke="#F18C0E" stroke-opacity="0.2" stroke-width="7.875" stroke-miterlimit="10"/>
<path d="M750.006 6.26206C750.006 6.26206 858.426 730.759 1302.05 916.552C1724.33 1093.61 1816.5 1827.81 1816.5 1827.81" stroke="#F18C0E" stroke-opacity="0.2" stroke-width="7.875" stroke-miterlimit="10"/>
<path d="M662.688 6.26313C662.688 6.26313 779.111 794.066 1260.09 996.352C1718.02 1188.69 1816.5 1987.17 1816.5 1987.17" stroke="#F18C0E" stroke-opacity="0.2" stroke-width="7.875" stroke-miterlimit="10"/>
<path d="M575.369 6.2603C575.369 6.2603 699.797 857.611 1218.13 1075.91C1711.47 1283.77 1816.5 2146.52 1816.5 2146.52" stroke="#F18C0E" stroke-opacity="0.2" stroke-width="7.875" stroke-miterlimit="10"/>
<path d="M487.809 6.26377C487.809 6.26377 620.483 921.162 1176.17 1155.71C1704.92 1378.85 1816.5 2305.64 1816.5 2305.64" stroke="#F18C0E" stroke-opacity="0.2" stroke-width="7.875" stroke-miterlimit="10"/>
<path d="M400.49 6.26167C400.49 6.26167 541.169 984.466 1134.2 1235.26C1698.62 1473.93 1816.5 2464.99 1816.5 2464.99" stroke="#F18C0E" stroke-opacity="0.2" stroke-width="7.875" stroke-miterlimit="10"/>
<path d="M313.172 6.25882C313.172 6.25882 461.855 1048.01 1092.48 1315.06C1692.07 1569.01 1816.5 2624.34 1816.5 2624.34" stroke="#F18C0E" stroke-opacity="0.2" stroke-width="7.875" stroke-miterlimit="10"/>
<path d="M225.613 6.26098C225.613 6.26098 382.543 1111.56 1050.28 1394.86C1685.52 1664.09 1816.5 2783.7 1816.5 2783.7" stroke="#F18C0E" stroke-opacity="0.2" stroke-width="7.875" stroke-miterlimit="10"/>
<path d="M138.295 6.26122C138.295 6.26122 303.229 1174.87 1008.56 1474.42C1679.21 1759.17 1816.5 2943.06 1816.5 2943.06" stroke="#F18C0E" stroke-opacity="0.2" stroke-width="7.875" stroke-miterlimit="10"/>
<path d="M50.9766 6.26177C50.9766 6.26177 223.915 1238.42 966.603 1554.22C1672.67 1854.25 1816.5 3102.17 1816.5 3102.17" stroke="#F18C0E" stroke-opacity="0.2" stroke-width="7.875" stroke-miterlimit="10"/>
<path d="M-36.584 6.26397C-36.584 6.26397 144.358 1301.97 924.642 1633.77C1666.12 1949.57 1816.5 3261.53 1816.5 3261.53" stroke="#F18C0E" stroke-opacity="0.2" stroke-width="7.875" stroke-miterlimit="10"/>
<path d="M-123.902 6.26196C-123.902 6.26196 65.2866 1365.27 882.68 1713.57C1659.81 2044.65 1816.5 3420.88 1816.5 3420.88" stroke="#F18C0E" stroke-opacity="0.2" stroke-width="7.875" stroke-miterlimit="10"/>
<g filter="url(#filter1_d_1666_1015)">
<circle cx="173.634" cy="209.649" r="63.6949" fill="white"/>
<ellipse cx="96.4292" cy="232.809" rx="63.6949" ry="40.5331" fill="white"/>
<ellipse cx="173.634" cy="259.831" rx="63.6949" ry="40.5331" fill="white"/>
<ellipse cx="264.996" cy="218.656" rx="48.2537" ry="40.5331" fill="white"/>
<ellipse cx="286.871" cy="266.266" rx="70.1287" ry="34.0993" fill="white"/>
<ellipse cx="33.3767" cy="272.699" rx="70.1287" ry="34.0993" fill="white"/>
<ellipse cx="109.939" cy="272.699" rx="46.3235" ry="34.0993" fill="white"/>
</g>
<g filter="url(#filter2_d_1666_1015)">
<circle cx="63.6949" cy="63.6949" r="63.6949" transform="matrix(-1 0 0 1 346.807 238.352)" fill="white"/>
<ellipse cx="63.6949" cy="40.5331" rx="63.6949" ry="40.5331" transform="matrix(-1 0 0 1 424.014 284.675)" fill="white"/>
<ellipse cx="63.6949" cy="40.5331" rx="63.6949" ry="40.5331" transform="matrix(-1 0 0 1 346.807 311.695)" fill="white"/>
<ellipse cx="48.2537" cy="40.5331" rx="48.2537" ry="40.5331" transform="matrix(-1 0 0 1 240.006 270.521)" fill="white"/>
<ellipse cx="59.85" cy="34.125" rx="59.85" ry="34.125" transform="matrix(-1 0 0 1 240.449 324.451)" fill="white"/>
<ellipse cx="48.3" cy="34.125" rx="48.3" ry="34.125" transform="matrix(-1 0 0 1 449.398 330.75)" fill="white"/>
<ellipse cx="43.575" cy="23.625" rx="43.575" ry="23.625" transform="matrix(-1 0 0 1 488.248 351.752)" fill="white"/>
<ellipse cx="46.3235" cy="34.0993" rx="46.3235" ry="34.0993" transform="matrix(-1 0 0 1 393.131 330.997)" fill="white"/>
</g>
<g filter="url(#filter3_d_1666_1015)">
<circle cx="1391.63" cy="242.198" r="63.6949" fill="white"/>
<ellipse cx="1314.43" cy="265.361" rx="63.6949" ry="40.5331" fill="white"/>
<ellipse cx="1391.78" cy="303.453" rx="63.525" ry="51.45" fill="white"/>
<ellipse cx="1483" cy="251.204" rx="48.2537" ry="40.5331" fill="white"/>
<ellipse cx="1494.15" cy="309.753" rx="59.85" ry="45.15" fill="white"/>
<ellipse cx="1273.65" cy="305.028" rx="48.3" ry="34.125" fill="white"/>
<ellipse cx="1230.07" cy="315.527" rx="43.575" ry="23.625" fill="white"/>
<ellipse cx="1327.94" cy="305.25" rx="46.3235" ry="34.0993" fill="white"/>
</g>
<g filter="url(#filter4_d_1666_1015)">
<circle cx="1214.19" cy="348.25" r="63.6949" fill="white"/>
<ellipse cx="1136.98" cy="371.41" rx="63.6949" ry="40.5331" fill="white"/>
<ellipse cx="1214.19" cy="398.432" rx="63.6949" ry="40.5331" fill="white"/>
<ellipse cx="1305.54" cy="357.256" rx="48.2537" ry="40.5331" fill="white"/>
<ellipse cx="1327.42" cy="404.867" rx="70.1287" ry="34.0993" fill="white"/>
<ellipse cx="1073.93" cy="411.299" rx="70.1287" ry="34.0993" fill="white"/>
<ellipse cx="1150.49" cy="411.299" rx="46.3235" ry="34.0993" fill="white"/>
</g>
</g>
</g>
</g>
<defs>
<filter id="filter0_f_1666_1015" x="-1127.7" y="-1069.95" width="3860.85" height="3456.6" filterUnits="userSpaceOnUse" color-interpolation-filters="sRGB">
<feFlood flood-opacity="0" result="BackgroundImageFix"/>
<feBlend mode="normal" in="SourceGraphic" in2="BackgroundImageFix" result="shape"/>
<feGaussianBlur stdDeviation="262.5" result="effect1_foregroundBlur_1666_1015"/>
</filter>
<filter id="filter1_d_1666_1015" x="-36.752" y="140.704" width="393.752" height="166.094" filterUnits="userSpaceOnUse" color-interpolation-filters="sRGB">
<feFlood flood-opacity="0" result="BackgroundImageFix"/>
<feColorMatrix in="SourceAlpha" type="matrix" values="0 0 0 0 0 0 0 0 0 0 0 0 0 0 0 0 0 0 127 0" result="hardAlpha"/>
<feOffset dy="-5.25"/>
<feComposite in2="hardAlpha" operator="out"/>
<feColorMatrix type="matrix" values="0 0 0 0 0 0 0 0 0 0 0 0 0 0 0 0 0 0 0.1 0"/>
<feBlend mode="normal" in2="BackgroundImageFix" result="effect1_dropShadow_1666_1015"/>
<feBlend mode="normal" in="SourceGraphic" in2="effect1_dropShadow_1666_1015" result="shape"/>
</filter>
<filter id="filter2_d_1666_1015" x="120.75" y="234.152" width="367.498" height="165.044" filterUnits="userSpaceOnUse" color-interpolation-filters="sRGB">
<feFlood flood-opacity="0" result="BackgroundImageFix"/>
<feColorMatrix in="SourceAlpha" type="matrix" values="0 0 0 0 0 0 0 0 0 0 0 0 0 0 0 0 0 0 127 0" result="hardAlpha"/>
<feOffset dy="-4.2"/>
<feComposite in2="hardAlpha" operator="out"/>
<feColorMatrix type="matrix" values="0 0 0 0 0 0 0 0 0 0 0 0 0 0 0 0 0 0 0.1 0"/>
<feBlend mode="normal" in2="BackgroundImageFix" result="effect1_dropShadow_1666_1015"/>
<feBlend mode="normal" in="SourceGraphic" in2="effect1_dropShadow_1666_1015" result="shape"/>
</filter>
<filter id="filter3_d_1666_1015" x="1186.5" y="174.303" width="367.5" height="180.6" filterUnits="userSpaceOnUse" color-interpolation-filters="sRGB">
<feFlood flood-opacity="0" result="BackgroundImageFix"/>
<feColorMatrix in="SourceAlpha" type="matrix" values="0 0 0 0 0 0 0 0 0 0 0 0 0 0 0 0 0 0 127 0" result="hardAlpha"/>
<feOffset dy="-4.2"/>
<feComposite in2="hardAlpha" operator="out"/>
<feColorMatrix type="matrix" values="0 0 0 0 0 0 0 0 0 0 0 0 0 0 0 0 0 0 0.1 0"/>
<feBlend mode="normal" in2="BackgroundImageFix" result="effect1_dropShadow_1666_1015"/>
<feBlend mode="normal" in="SourceGraphic" in2="effect1_dropShadow_1666_1015" result="shape"/>
</filter>
<filter id="filter4_d_1666_1015" x="1003.8" y="279.305" width="393.75" height="166.094" filterUnits="userSpaceOnUse" color-interpolation-filters="sRGB">
<feFlood flood-opacity="0" result="BackgroundImageFix"/>
<feColorMatrix in="SourceAlpha" type="matrix" values="0 0 0 0 0 0 0 0 0 0 0 0 0 0 0 0 0 0 127 0" result="hardAlpha"/>
<feOffset dy="-5.25"/>
<feComposite in2="hardAlpha" operator="out"/>
<feColorMatrix type="matrix" values="0 0 0 0 0 0 0 0 0 0 0 0 0 0 0 0 0 0 0.1 0"/>
<feBlend mode="normal" in2="BackgroundImageFix" result="effect1_dropShadow_1666_1015"/>
<feBlend mode="normal" in="SourceGraphic" in2="effect1_dropShadow_1666_1015" result="shape"/>
</filter>
<clipPath id="clip0_1666_1015">
<rect width="1512" height="3021" fill="white"/>
</clipPath>
<clipPath id="clip1_1666_1015">
<rect width="3492.72" height="1940.4" fill="white" transform="matrix(0 -1 1 0 -123.9 3491.46)"/>
</clipPath>
<clipPath id="clip2_1666_1015">
<rect width="3494.18" height="1945.25" fill="white" transform="matrix(0 -1 1 0 -126.326 3491.46)"/>
</clipPath>
</defs>
</svg>
