<svg width="536" height="239" viewBox="0 0 536 239" fill="none" xmlns="http://www.w3.org/2000/svg">
<path d="M0.140625 6.74023H249.528V98.895H0.140625V66.8158C0.140625 66.8158 14.077 58.2424 14.077 50.4846C14.077 41.7357 0.140625 34.7366 0.140625 34.7366V6.74023Z" fill="#5BB9B3"/>
<rect x="52.6445" y="6.74023" width="403.613" height="222.443" fill="#5BB9B3"/>
<path d="M0.140625 137.028H249.528V229.183H0.140625V197.104C0.140625 197.104 14.077 188.53 14.077 180.773C14.077 172.024 0.140625 165.025 0.140625 165.025V137.028Z" fill="#5BB9B3"/>
<path d="M0.140625 73.4736H249.528V165.628H0.140625V133.549C0.140625 133.549 14.077 124.976 14.077 117.218C14.077 108.469 0.140625 101.47 0.140625 101.47V73.4736Z" fill="#5BB9B3"/>
<path d="M0.140625 6.74023H249.528V98.895H0.140625V66.8158C0.140625 66.8158 14.077 58.2424 14.077 50.4846C14.077 41.7357 0.140625 34.7366 0.140625 34.7366V6.74023Z" fill="#5BB9B3"/>
<path d="M535.012 137.028H288.906V229.183H535.012V197.104C535.012 197.104 521.259 188.53 521.259 180.773C521.259 172.024 535.012 165.025 535.012 165.025V137.028Z" fill="#5BB9B3"/>
<path d="M535.012 73.4736H288.906V165.628H535.012V133.549C535.012 133.549 521.259 124.976 521.259 117.218C521.259 108.469 535.012 101.47 535.012 101.47V73.4736Z" fill="#5BB9B3"/>
<path d="M535.012 6.74023H288.906V98.895H535.012V66.8158C535.012 66.8158 521.259 58.2424 521.259 50.4846C521.259 41.7357 535.012 34.7366 535.012 34.7366V6.74023Z" fill="#5BB9B3"/>
<rect x="52.5508" y="6.82812" width="302.376" height="222.075" fill="#5BB9B3"/>
<path d="M449.961 7.77148L449.961 230.237" stroke="#F3E7D7" stroke-width="9.53325" stroke-dasharray="19.07 19.07"/>
<rect x="51.2119" y="33.3301" width="352.402" height="165.292" rx="4.76663" fill="white" stroke="#F3E7D7" stroke-width="9.53325"/>
<path d="M489.186 159.564C489.396 157.438 490.945 155.784 493.491 155.784C496.641 155.784 498.584 158.015 498.584 161.664V169.513H480.209V161.953C480.209 158.304 482.02 156.047 484.986 156.047C487.375 156.047 488.793 157.438 489.186 159.564ZM483.28 162.898V165.26H487.743V162.898C487.743 161.27 486.903 160.299 485.511 160.299C484.12 160.299 483.28 161.244 483.28 162.898ZM495.355 165.26V162.609C495.355 161.034 494.463 160.063 492.94 160.063C491.575 160.063 490.683 161.087 490.683 162.609V165.26H495.355ZM486.85 138.747C489.528 138.747 491.706 140.085 492.756 142.185L498.584 138.957V143.787L493.491 146.674V148.905H498.584V153.158H480.209V145.335C480.209 141.503 482.991 138.747 486.85 138.747ZM483.674 145.992V148.905H490.026V145.992C490.026 144.285 488.688 143.052 486.85 143.052C485.013 143.052 483.674 144.285 483.674 145.992ZM499.109 127.216C499.109 133.384 494.62 137.033 489.396 137.033C484.173 137.033 479.684 133.384 479.684 127.216C479.684 121.047 484.173 117.398 489.396 117.398C494.62 117.398 499.109 121.047 499.109 127.216ZM495.303 127.216C495.303 123.724 492.599 121.834 489.396 121.834C486.194 121.834 483.49 123.724 483.49 127.216C483.49 130.733 486.194 132.623 489.396 132.597C492.599 132.623 495.303 130.733 495.303 127.216ZM498.584 110.868V114.936H480.209V110.579L492.1 104.2H480.209V100.131H498.584V104.489L486.693 110.868H498.584ZM498.584 83.0114V98.0001L483.779 89.2851V96.8714H480.209V82.5389L495.014 91.1751V83.0114H498.584ZM498.584 69.0433V80.2783H480.209V69.0433H483.621V76.0258H487.795V69.0433H491.129V76.0258H495.171V69.0433H498.584Z" fill="#F3E7D7"/>
<path d="M259.988 81.5273H253.982H253.713V95.9603C255.54 98.7698 256.919 99.7424 259.988 100.443C262.779 101.017 264.407 101.061 267.339 100.443C269.926 99.561 271.135 98.6345 272.718 95.9603V81.5273H266.801V93.7192C266.455 94.6999 266.024 95.0952 264.919 95.6018C263.848 95.8328 263.214 95.8334 262.05 95.6018C260.948 95.2082 260.462 94.8409 259.988 93.7192V81.5273Z" fill="#5BB9B3"/>
<path fill-rule="evenodd" clip-rule="evenodd" d="M228.973 71.4863V100.89H243.226C247.716 100.06 249.548 98.8378 251.205 94.8839C251.626 92.6521 251.605 91.453 251.205 89.3259C250.323 86.5723 249.188 85.5909 246.454 84.485C247.895 83.2737 248.342 82.4372 248.695 80.8095C249.117 78.7302 249.053 77.7037 248.695 75.5204C247.207 73.0576 246.081 72.0634 243.585 71.4863H228.973ZM235.606 75.6099V95.0631H242.868C244.344 94.4425 244.917 93.9148 245.467 92.6427C245.758 91.4248 245.757 90.7199 245.467 89.505C244.853 88.293 244.265 87.8675 242.868 87.5328H237.758V82.0644H241.075C242.084 81.4701 242.467 81.0608 242.868 80.1819C243.026 79.0277 243.041 78.38 242.868 77.2235C242.402 76.3303 242.001 75.9856 241.075 75.6099H235.606Z" fill="#5BB9B3"/>
<path d="M193.471 169.022V164.27M193.471 164.27V159.34H196.877L198.132 161.043V163.195L196.877 164.27H194.995M193.471 164.27H194.995M198.67 169.022L194.995 164.27" stroke="#5BB9B3" stroke-width="1.07575"/>
<path d="M253.533 169.201V164.45M253.533 164.45V159.52H256.94L258.195 161.223V163.374L256.94 164.45H255.057M253.533 164.45H255.057M258.733 169.201L255.057 164.45" stroke="#5BB9B3" stroke-width="1.07575"/>
<path d="M265.188 159.161V168.843" stroke="#5BB9B3" stroke-width="1.07575"/>
<path d="M212.556 161.044C211.714 160.04 211.158 159.585 209.867 159.161H207.267C206.067 159.608 205.507 159.999 204.757 161.044C204.304 163.047 204.28 164.125 204.757 166.064C205.495 167.184 206.008 167.717 207.267 168.305C208.526 168.467 209.235 168.489 210.494 168.305C211.444 167.722 211.926 167.366 212.556 166.602V163.912H209.867" stroke="#5BB9B3" stroke-width="1.07575"/>
<path d="M218.572 159.34L221.889 163.822M221.889 163.822V168.932M221.889 163.822L225.116 159.34" stroke="#5BB9B3" stroke-width="1.07575"/>
<path d="M239.729 168.484V159.52H244.39C245.567 160.536 246.073 161.141 246.631 162.388C246.82 163.826 246.826 164.67 246.631 166.153C245.934 167.28 245.4 167.714 244.39 168.484H239.729Z" stroke="#5BB9B3" stroke-width="1.07575"/>
<path fill-rule="evenodd" clip-rule="evenodd" d="M155.998 70.5908V100.622H162.453V75.7006H166.756C168.225 76.4192 168.844 76.9904 169.445 78.4797C169.656 79.6971 169.669 80.362 169.445 81.5276C168.746 82.5855 168.147 83.0388 166.756 83.5895H163.797V91.1197L169.804 100.264H178.051L169.445 88.0718C173.116 86.8975 174.565 85.7945 175.72 82.7827C176.136 80.5905 176.23 79.3007 175.72 76.6867C174.338 73.0093 172.794 71.7255 168.997 70.5908H155.998ZM183.25 92.1955H196.877V88.0718C195.26 83.7276 193.521 82.316 189.436 81.0794C187.616 80.7995 186.607 80.8161 184.774 81.0794C180.333 82.3123 178.701 83.8419 177.244 88.0718C176.92 90.2941 176.95 91.4833 177.244 93.5402C178.774 97.5118 180.244 99.1298 184.147 100.622C186.55 101.048 187.885 101.054 190.243 100.622C193.078 99.6384 194.38 98.8151 196.159 96.7674L191.677 94.1677C191.535 94.3209 191.407 94.4759 191.279 94.6314C190.854 95.1483 190.426 95.6695 189.436 96.1399C187.949 96.5467 187.105 96.5562 185.581 96.1399C184.63 95.7873 184.114 95.4195 183.25 94.1677V92.1955ZM183.43 88.11H191.588C190.846 86.2956 190.241 85.5457 188.809 84.6138C187.792 84.3458 187.225 84.3029 186.209 84.6138C184.665 85.5944 184.119 86.4164 183.43 88.11Z" fill="#5BB9B3"/>
<path fill-rule="evenodd" clip-rule="evenodd" d="M213.969 83.8586C212.707 82.6011 211.919 82.0972 210.204 81.5278C208.449 81.2145 207.478 81.2472 205.721 81.5278C201.782 83.1385 200.442 84.6691 199.267 88.2512C198.959 90.4601 198.941 91.6573 199.267 93.63C200.145 97.3077 201.516 98.7809 205.094 100.533C207.086 100.885 208.215 100.915 210.204 100.533C211.948 100.061 212.79 99.6121 213.969 98.3812V100.533H220.065V69.3359H214.148L213.969 83.8586ZM209.518 95.3333C212.043 95.3333 214.09 93.2863 214.09 90.7613C214.09 88.2363 212.043 86.1894 209.518 86.1894C206.993 86.1894 204.946 88.2363 204.946 90.7613C204.946 93.2863 206.993 95.3333 209.518 95.3333Z" fill="#5BB9B3"/>
<rect x="275.945" y="68.7979" width="6.27522" height="31.3761" fill="#5BB9B3"/>
<rect x="286.164" y="68.7979" width="6.27522" height="31.3761" fill="#5BB9B3"/>
<circle cx="296.205" cy="69.8736" r="2.59973" stroke="#5BB9B3" stroke-width="0.537876"/>
<path d="M295.398 71.4874V69.9634M296.653 69.9634L297.191 69.6049L297.102 68.4395H295.398V69.9634M296.653 69.9634H295.398M296.653 69.9634L297.371 71.3978" stroke="#5BB9B3" stroke-width="0.537876"/>
<path d="M161.378 159.34H156.537V163.867M161.378 168.394H156.537V163.867M156.537 163.867H161.378" stroke="#5BB9B3" stroke-width="1.07575"/>
<path d="M187.374 159.34H182.533V163.867M187.374 168.394H182.533V163.867M182.533 163.867H187.374" stroke="#5BB9B3" stroke-width="1.07575"/>
<path d="M167.652 168.753V160.057L175.362 167.857V159.071" stroke="#5BB9B3" stroke-width="1.07575"/>
<path d="M272.359 168.843V160.147L280.069 167.946V159.161" stroke="#5BB9B3" stroke-width="1.07575"/>
<path d="M287.42 158.892V163.822M287.42 168.753V163.822M287.42 163.822H288.854M288.854 163.822L292.978 159.071M288.854 163.822L293.247 168.753" stroke="#5BB9B3" stroke-width="1.07575"/>
<path d="M220.275 143.562L221.261 144.19H222.427L222.875 143.562V142.755L221.889 141.769L219.469 138.99L217.945 135.763L217.138 132.267L216.421 128.412L215.076 125.543L211.669 121.868L201.988 114.248L200.912 113.8H199.657L198.402 113.979L197.416 114.427L193.74 117.655H192.306L190.692 118.461L186.479 120.882H185.582L184.417 121.151L179.128 124.109L177.604 124.468H176.618L174.825 125.006L174.018 125.723L171.418 127.426L169.536 128.771L167.026 129.667H165.771L164.336 129.219L163.35 128.054V126.709L163.978 125.723L168.281 120.523V117.655L166.129 116.041L162.992 115.144L160.75 113.889L160.482 114.248L160.213 115.503V116.489L160.482 117.655L161.109 118.461L161.737 118.999L162.543 119.448L163.35 119.896L164.695 120.523L163.978 121.151L162.992 122.227L162.185 123.033L161.468 123.751L160.93 124.826L160.661 125.543V127.157L160.75 129.219L161.468 130.564L162.543 131.729L164.336 132.536H168.281V133.881V135.404L168.819 137.108L168.55 138.632H166.667L165.233 138.99L164.695 139.707V140.514L164.336 142.038L163.171 143.024M220.275 143.562L217.138 139.707M220.275 143.562L220.544 144.817L220.275 145.445H218.751L215.076 142.755H214.359L213.821 143.562H210.325L208.89 144.19L208.173 144.817L207.187 145.086H205.753L205.036 144.19L204.408 141.769L203.781 141.411V140.245L207.187 135.494L204.049 137.915H201.45M201.45 137.915L201.181 136.122M201.45 137.915L202.884 140.604V143.024V144.548L198.76 146.79L194.906 148.045H192.754L192.037 147.596L191.499 146.79L191.32 145.624L190.334 144.817L188.899 144.19L188.451 143.024V142.038L189.527 141.411H192.395L194.278 144.19L194.906 144.548H195.892L197.416 143.293L197.685 142.755L192.395 138.363V137.646L192.754 139.707L187.196 139.17H180.742M201.181 136.122L201.988 133.97V130.653M201.181 136.122L198.76 137.646V138.363L200.374 140.604L200.733 141.142V142.307M180.742 139.17L179.666 138.363L179.038 137.108M180.742 139.17L179.845 142.038L176.887 144.817L176.349 144.997H171.06L169.805 145.445L168.819 146.252L167.474 147.238H164.336L163.171 148.493L162.185 149.031H159.406M179.038 137.108L179.666 133.432M179.038 137.108L178.142 139.707L177.245 141.142L176.349 142.307L175.004 142.576H170.612H169.805L168.55 143.024L167.474 143.652L166.04 144.817M159.406 144.19H158.151L157.254 144.817L156.537 147.238V148.224L157.523 149.031H159.406M159.406 144.19L160.123 145.445M159.406 144.19V143.293L159.944 142.576L160.661 141.859L162.185 142.038L163.171 143.024M160.123 145.445L159.406 149.031M160.123 145.445L162.185 144.817L163.171 143.024M200.374 120.165L202.167 121.868L203.153 123.302L203.781 125.006M209.966 133.701L210.325 132.536L211.042 131.908L212.655 133.701L213.911 135.404V136.391M211.311 140.604L210.325 141.411" stroke="#5BB9B3" stroke-width="0.89646"/>
<path d="M229.24 143.562L228.254 144.19H227.089L226.641 143.562V142.755L227.627 141.769L230.047 138.99L231.571 135.763L232.378 132.267L233.095 128.412L234.44 125.543L237.846 121.868L247.528 114.248L248.604 113.8H249.859L251.114 113.979L252.1 114.427L255.775 117.655H257.21L258.823 118.461L263.037 120.882H263.933L265.099 121.151L270.388 124.109L271.912 124.468H272.898L274.691 125.006L275.498 125.723L278.097 127.426L279.98 128.771L282.49 129.667H283.745L285.179 129.219L286.165 128.054V126.709L285.538 125.723L281.235 120.523V117.655L283.386 116.041L286.524 115.144L288.765 113.889L289.034 114.248L289.303 115.503V116.489L289.034 117.655L288.407 118.461L287.779 118.999L286.972 119.448L286.165 119.896L284.821 120.523L285.538 121.151L286.524 122.227L287.331 123.033L288.048 123.751L288.586 124.826L288.855 125.543V127.157L288.765 129.219L288.048 130.564L286.972 131.729L285.179 132.536H281.235V133.881V135.404L280.697 137.108L280.966 138.632H282.849L284.283 138.99L284.821 139.707V140.514L285.179 142.038L286.345 143.024M229.24 143.562L232.378 139.707M229.24 143.562L228.971 144.817L229.24 145.445H230.764L234.44 142.755H235.157L235.695 143.562H239.191L240.625 144.19L241.342 144.817L242.329 145.086H243.763L244.48 144.19L245.108 141.769L245.735 141.411V140.245L242.329 135.494L245.466 137.915H248.066M248.066 137.915L248.335 136.122M248.066 137.915L246.632 140.604V143.024V144.548L250.755 146.79L254.61 148.045H256.762L257.479 147.596L258.017 146.79L258.196 145.624L259.182 144.817L260.616 144.19L261.065 143.024V142.038L259.989 141.411H257.12L255.238 144.19L254.61 144.548H253.624L252.1 143.293L251.831 142.755L257.12 138.363V137.646L256.762 139.707L262.32 139.17H268.774M248.335 136.122L247.528 133.97V130.653M248.335 136.122L250.755 137.646V138.363L249.142 140.604L248.783 141.142V142.307M268.774 139.17L269.85 138.363L270.477 137.108M268.774 139.17L269.671 142.038L272.629 144.817L273.167 144.997H278.456L279.711 145.445L280.697 146.252L282.042 147.238H285.179L286.345 148.493L287.331 149.031H290.11M270.477 137.108L269.85 133.432M270.477 137.108L271.374 139.707L272.27 141.142L273.167 142.307L274.511 142.576H278.904H279.711L280.966 143.024L282.042 143.652L283.476 144.817M290.11 144.19H291.365L292.261 144.817L292.979 147.238V148.224L291.992 149.031H290.11M290.11 144.19L289.393 145.445M290.11 144.19V143.293L289.572 142.576L288.855 141.859L287.331 142.038L286.345 143.024M289.393 145.445L290.11 149.031M289.393 145.445L287.331 144.817L286.345 143.024M249.142 120.165L247.349 121.868L246.363 123.302L245.735 125.006M239.55 133.701L239.191 132.536L238.474 131.908L236.86 133.701L235.605 135.404V136.391M238.205 140.604L239.191 141.411" stroke="#5BB9B3" stroke-width="0.89646"/>
<path fill-rule="evenodd" clip-rule="evenodd" d="M246.77 143.861C242.104 150.817 234.169 155.395 225.164 155.395C215.804 155.395 207.599 150.448 203.021 143.027V140.783L201.587 138.093H204.186L207.324 135.673L203.917 140.424V141.59L204.545 141.948L205.172 144.369L205.89 145.265H207.324L208.31 144.996L209.027 144.369L210.462 143.741H213.958L214.496 142.934H215.213L218.888 145.624H220.412L220.681 144.996L220.412 143.741L221.398 144.369H222.564L223.012 143.741V142.934L222.026 141.948L219.605 139.169L218.081 135.942L217.275 132.446L216.557 128.591L215.213 125.722L211.806 122.047L203.289 115.343C207.915 108.159 215.984 103.4 225.164 103.4C234.225 103.4 242.203 108.036 246.856 115.065L237.984 122.047L234.578 125.723L233.233 128.591L232.516 132.446L231.709 135.942L230.185 139.17L227.765 141.949L226.778 142.935V143.742L227.227 144.369H228.392L229.378 143.742L229.109 144.997L229.378 145.624H230.902L234.578 142.935H235.295L235.833 143.742H239.329L240.763 144.369L241.48 144.997L242.467 145.266H243.901L244.618 144.369L245.246 141.949L245.873 141.59V140.425L242.467 135.673L245.604 138.094H248.204L246.77 140.783V143.204V143.861Z" fill="#5BB9B3"/>
</svg>
