<svg width="431" height="322" viewBox="0 0 431 322" fill="none" xmlns="http://www.w3.org/2000/svg">
<g clip-path="url(#clip0_398_1671)">
<path d="M14.951 173.987C17.8773 166.89 21.7494 160.417 25.7871 153.922C40.1197 139.434 60.6973 131.423 82.4932 133.898L103.85 134.24C119.029 135.927 133.923 137.09 149.356 136.135C153.63 135.869 157.894 135.521 162.158 135.172L338.555 137.94C340.188 138.787 342.183 139.168 344.507 138.833C346.603 138.532 348.669 138.309 350.751 138.129L381.474 138.609C389.347 139.302 397.211 140.239 405.159 140.983C414.882 141.897 424.062 141.889 433.534 139.428L484.471 140.257C489.774 141.97 494.527 145.045 498.895 148.789C503.896 157.483 509.343 169.8 511.618 185.288C514.786 206.797 510.456 224.986 505.908 237.132C504.806 238.673 503.669 240.169 502.388 241.506C498.005 246.103 491.672 248.245 485.595 250.621C460.09 251.885 434.585 253.149 409.1 254.416C408.285 254.237 407.49 254.061 406.673 253.902C398.8 252.352 391.45 252.924 383.547 253.859C375.043 254.865 366.597 255.388 358.396 256.94C304.286 259.629 250.177 262.318 196.069 264.987C181.411 263.036 166.915 260.758 152.192 263.633C144.38 265.17 137.103 267.179 129.051 266.791C122.196 266.463 116.209 266.035 109.731 268.874C109.43 269.001 109.127 269.148 108.864 269.301C96.7787 269.9 84.6929 270.499 72.6071 271.099C72.9232 271.014 73.2369 270.949 73.5352 270.842C71.2337 270.813 68.9266 270.66 66.6137 270.384C42.3182 267.489 22.532 252.259 12.7016 231.71C10.2611 222.75 8.92723 213.575 7.82898 204.306C7.90633 202.459 8.00619 200.594 8.12378 198.752C10.3171 190.446 11.6505 181.997 14.9735 173.969L14.951 173.987Z" fill="#805335"/>
<path d="M20.4052 175.104C21.0235 174.709 21.579 174.326 22.0541 173.934C25.8017 170.729 28.3876 167.345 30.9413 164.06C33.4726 160.792 35.8003 157.52 34.5419 154.045L34.5266 154.003C44.188 144.649 56.6834 139.244 70.1175 139.825C91.5252 140.765 109.225 156.725 116.295 178.7C116.245 179.632 116.193 180.585 116.203 181.524C116.224 187.34 117.585 192.867 119.535 198.24C119.565 199.875 119.574 201.508 119.498 203.171C118.834 218.329 113.498 231.952 105.229 242.287C104.597 242.966 104.023 243.673 103.47 244.382C102.716 245.231 101.947 246.036 101.157 246.84C96.9625 249.175 93.1288 252.247 89.6115 255.744C82.084 260.028 73.5929 262.3 64.7047 261.914C51.2528 261.31 39.2394 254.799 30.4229 244.57C29.6972 242.443 28.316 240.341 25.6887 238.253C20.224 229.851 16.6386 219.714 15.5655 208.694C15.8956 207.978 16.2031 207.281 16.4527 206.556C17.3059 204.189 19.0158 201.823 15.788 199.296C15.6391 199.177 15.4476 199.072 15.2762 198.97C15.2906 198.849 15.2872 198.706 15.2815 198.583C15.648 190.203 17.4467 182.299 20.3779 175.162L20.4052 175.104Z" fill="#B36D42"/>
<path d="M26.7297 179.204C27.2579 178.88 27.7258 178.548 28.1334 178.209C31.3134 175.488 33.5104 172.629 35.6824 169.807C37.8272 167.044 39.8134 164.242 38.7364 161.298C38.7364 161.298 38.7388 161.278 38.721 161.256C46.9309 153.3 57.5341 148.709 68.9379 149.212C87.119 150.012 102.15 163.553 108.146 182.217C108.112 183.009 108.057 183.818 108.064 184.615C108.087 189.554 109.24 194.26 110.901 198.803C110.939 200.195 110.937 201.581 110.872 202.981C110.298 215.845 105.777 227.422 98.7549 236.193C98.218 236.761 97.7189 237.354 97.2577 237.973C96.6212 238.692 95.9669 239.389 95.295 240.064C91.7339 242.047 88.4853 244.658 85.5001 247.627C79.1096 251.271 71.9053 253.187 64.3363 252.856C52.9125 252.351 42.721 246.812 35.2298 238.127C34.6291 236.322 33.4331 234.547 31.2195 232.754C26.5836 225.613 23.5295 217.008 22.6243 207.66C22.8997 207.06 23.1551 206.458 23.3903 205.854C24.1199 203.84 25.563 201.829 22.8198 199.687C22.7087 199.592 22.5349 199.51 22.3836 199.411C22.3956 199.31 22.3898 199.187 22.4018 199.087C22.7179 191.985 24.2344 185.251 26.7321 179.184L26.7297 179.204Z" fill="#DCA771"/>
<path d="M479.912 147.689C471.442 149.27 458.029 151.425 441.339 152.659C390.901 156.377 378.318 146.596 325.483 146.296C278.335 146.021 274.942 152.756 230.613 150.226C200.426 148.505 175.983 143.592 159.635 139.563" fill="#744228"/>
<path d="M367.763 168.408C360.722 169.976 349.597 172.097 335.761 173.182C294.002 176.466 283.822 165.869 240.152 164.826C201.201 163.896 198.25 171.03 161.662 167.73C136.74 165.474 116.677 159.921 103.243 155.403" fill="#744228"/>
<path d="M497.483 194.167C491.166 192.231 481.189 189.512 468.68 187.674C430.933 182.115 421.099 192.06 381.384 190.692C345.956 189.468 343.659 182.218 310.24 183.477C287.476 184.334 268.94 188.734 256.5 192.473" fill="#744228"/>
<path d="M395.281 222.317C387.989 219.49 376.425 215.541 361.969 212.921C318.262 204.999 306.796 219.91 260.771 218.259C219.724 216.773 217.133 206 178.401 208.197C152.033 209.685 130.485 216.418 116.037 222.121" fill="#744228"/>
<path d="M511.446 217.865L441.311 211.77L405.194 217.522" fill="#744228"/>
<path d="M504.26 167.947L410.561 168.896L373.797 161.088" fill="#744228"/>
<path d="M348.416 257.32L181.441 242.927L114.734 249.826" fill="#744228"/>
<path d="M501.695 240.629C494.816 242.216 483.927 244.406 470.396 245.67C429.472 249.482 419.294 239.722 376.423 239.508C338.18 239.315 335.417 246.064 299.462 243.614C274.98 241.941 255.16 237.09 241.91 233.083" fill="#744228"/>
<path d="M284.741 190.844L190.782 197.065L154.278 183.984" fill="#744228"/>
<path d="M99.7491 220.831C99.2908 221.082 98.8929 221.341 98.5552 221.606C95.7914 223.745 93.8651 226.045 91.9637 228.307C90.067 230.528 88.3313 232.769 89.0943 235.267C89.0943 235.267 89.0919 235.287 89.0895 235.307C81.953 241.616 72.9584 245.032 63.4923 244.189C48.3956 242.839 36.3844 231.004 32.1011 215.257C32.1802 214.593 32.219 213.924 32.2579 213.256C32.4227 209.135 31.6489 205.187 30.4336 201.351C30.4496 200.19 30.5057 199.034 30.6247 197.865C31.5709 187.187 35.78 177.714 41.9627 170.68C42.4249 170.225 42.8693 169.747 43.2759 169.245C43.8329 168.679 44.41 168.116 44.9824 167.592C48.0186 166.078 50.8131 164.024 53.4175 161.683C58.8707 158.885 64.943 157.569 71.2218 158.114C80.7081 158.959 88.9847 163.964 94.8838 171.459C95.3146 172.979 96.2328 174.516 98.0255 176.076C101.621 182.196 103.833 189.476 104.229 197.275C103.966 197.774 103.725 198.255 103.522 198.761C102.835 200.413 101.561 202.036 103.765 203.91C103.858 203.982 103.989 204.079 104.103 204.154C104.093 204.235 104.081 204.335 104.072 204.416C103.553 210.31 102.014 215.858 99.7314 220.808L99.7491 220.831Z" fill="#B36D42"/>
<path d="M42.3488 186.778C42.697 186.595 43.0073 186.387 43.2549 186.192C45.3233 184.583 46.7731 182.858 48.198 181.172C49.6205 179.506 50.9021 177.823 50.2837 175.995C50.2837 175.995 50.2837 175.995 50.2861 175.975C55.6429 171.248 62.4613 168.634 69.6975 169.191C81.239 170.077 90.5844 178.779 94.0705 190.433C94.033 190.918 93.9932 191.424 93.9759 191.911C93.8979 194.961 94.568 197.897 95.5339 200.745C95.5338 201.602 95.5136 202.456 95.4507 203.326C94.8731 211.253 91.7882 218.31 87.1832 223.575C86.836 223.921 86.5089 224.27 86.1995 224.641C85.7799 225.08 85.3652 225.48 84.9303 225.876C82.6306 227.03 80.5291 228.575 78.567 230.32C74.4388 232.438 69.8296 233.46 65.0189 233.09C57.7627 232.531 51.3631 228.893 46.759 223.367C46.4034 222.243 45.6809 221.117 44.2876 219.972C41.4605 215.453 39.6736 210.08 39.2434 204.276C39.4297 203.911 39.616 203.545 39.7621 203.175C40.255 201.949 41.2154 200.738 39.5041 199.351C39.4308 199.281 39.3149 199.226 39.2393 199.176C39.2465 199.116 39.2561 199.035 39.2633 198.975C39.5823 194.587 40.6641 190.473 42.3488 186.778Z" fill="#DCA771"/>
<path d="M62.0431 207.749L73.0129 158.837L70.8179 133.098" fill="#744228"/>
<path d="M107.508 239.767L98.0679 237.337L69.7337 212.705" fill="#744228"/>
<path d="M22.1346 232.469L35.4431 226.916L58.1436 211.875" fill="#744228"/>
</g>
<g clip-path="url(#clip1_398_1671)">
<path d="M162.855 77.8953C165.392 71.7407 168.751 66.1261 172.252 60.4933C184.683 47.9285 202.529 40.9802 221.432 43.127L239.954 43.424C253.119 44.8868 266.036 45.8957 279.421 45.0673C283.128 44.8369 286.826 44.5346 290.524 44.2324L443.509 46.6327C444.925 47.3676 446.655 47.6976 448.671 47.4071C450.489 47.1462 452.281 46.9529 454.086 46.7965L480.732 47.2125C487.559 47.814 494.379 48.6268 501.273 49.2715C509.705 50.0642 517.666 50.0578 525.882 47.9234L570.058 48.642C574.657 50.1278 578.78 52.7951 582.568 56.0417C586.905 63.5818 591.629 74.2639 593.602 87.6961C596.35 106.351 592.594 122.126 588.65 132.659C587.695 133.996 586.708 135.294 585.597 136.453C581.796 140.44 576.303 142.297 571.033 144.358C548.913 145.455 526.793 146.551 504.691 147.649C503.984 147.494 503.294 147.341 502.585 147.204C495.758 145.859 489.383 146.356 482.529 147.166C475.154 148.039 467.829 148.492 460.716 149.838C413.788 152.171 366.86 154.503 319.934 156.818C307.222 155.126 294.649 153.15 281.88 155.644C275.105 156.977 268.794 158.719 261.811 158.382C255.866 158.098 250.673 157.727 245.055 160.188C244.794 160.299 244.531 160.427 244.303 160.559C233.822 161.078 223.34 161.598 212.858 162.118C213.132 162.045 213.404 161.989 213.663 161.896C211.667 161.87 209.666 161.738 207.66 161.499C186.589 158.987 169.429 145.779 160.904 127.957C158.787 120.186 157.63 112.229 156.678 104.19C156.745 102.588 156.831 100.971 156.933 99.3735C158.836 92.1702 159.992 84.8426 162.874 77.8799L162.855 77.8953Z" fill="#805335"/>
<path d="M167.587 78.8665C168.123 78.5235 168.605 78.1917 169.017 77.8516C172.267 75.0724 174.509 72.1377 176.724 69.2881C178.92 66.4539 180.938 63.6164 179.847 60.6027L179.834 60.5658C188.213 52.4538 199.05 47.766 210.701 48.2701C229.267 49.0853 244.618 62.9268 250.75 81.9851C250.707 82.7937 250.661 83.6197 250.67 84.4345C250.688 89.4785 251.868 94.2718 253.56 98.9314C253.585 100.35 253.593 101.766 253.527 103.209C252.951 116.355 248.324 128.169 241.152 137.133C240.604 137.722 240.106 138.335 239.626 138.95C238.973 139.686 238.305 140.384 237.621 141.081C233.983 143.107 230.658 145.771 227.608 148.804C221.079 152.519 213.715 154.49 206.006 154.155C194.34 153.631 183.921 147.984 176.275 139.112C175.645 137.268 174.447 135.445 172.169 133.634C167.429 126.347 164.32 117.556 163.389 107.998C163.676 107.378 163.942 106.772 164.159 106.144C164.899 104.091 166.382 102.039 163.582 99.8479C163.453 99.7441 163.287 99.6535 163.138 99.565C163.151 99.4604 163.148 99.3362 163.143 99.2294C163.461 91.9611 165.021 85.1062 167.563 78.9167L167.587 78.8665Z" fill="#B36D42"/>
<path d="M173.071 82.4214C173.529 82.1399 173.935 81.8521 174.288 81.5581C177.046 79.1979 178.951 76.7183 180.835 74.2715C182.695 71.875 184.418 69.4444 183.484 66.8918C183.484 66.8918 183.486 66.8744 183.471 66.8548C190.591 59.955 199.787 55.9738 209.677 56.4095C225.445 57.1036 238.481 68.847 243.681 85.0345C243.652 85.721 243.604 86.4229 243.61 87.1135C243.63 91.3971 244.63 95.4789 246.071 99.4187C246.104 100.626 246.102 101.828 246.046 103.042C245.547 114.199 241.626 124.24 235.536 131.846C235.071 132.339 234.638 132.854 234.238 133.39C233.686 134.014 233.119 134.618 232.536 135.203C229.447 136.923 226.63 139.188 224.041 141.763C218.499 144.923 212.25 146.584 205.686 146.297C195.778 145.86 186.94 141.056 180.443 133.524C179.922 131.958 178.884 130.419 176.965 128.863C172.944 122.67 170.295 115.207 169.51 107.1C169.749 106.58 169.971 106.058 170.175 105.534C170.807 103.787 172.059 102.043 169.68 100.185C169.583 100.103 169.433 100.032 169.301 99.9458C169.312 99.8586 169.307 99.7518 169.317 99.6646C169.591 93.5056 170.907 87.6652 173.073 82.4039L173.071 82.4214Z" fill="#DCA771"/>
<path d="M566.105 55.0879C558.76 56.4591 547.127 58.3277 532.652 59.3976C488.908 62.6224 477.996 54.1395 432.173 53.8791C391.283 53.6406 388.34 59.4816 349.894 57.2877C323.713 55.7949 302.515 51.5347 288.336 48.0404" fill="#744228"/>
<path d="M468.842 73.0566C462.736 74.4164 453.087 76.2562 441.087 77.1965C404.871 80.0448 396.042 70.8548 358.168 69.9497C324.387 69.1432 321.827 75.3306 290.095 72.4686C268.481 70.5116 251.081 65.6958 239.43 61.7774" fill="#744228"/>
<path d="M581.344 95.3998C575.865 93.7208 567.213 91.3627 556.364 89.769C523.627 84.9474 515.098 93.5722 480.655 92.386C449.929 91.3245 447.936 85.0368 418.953 86.1289C399.21 86.8718 383.134 90.6875 372.346 93.9305" fill="#744228"/>
<path d="M492.707 119.809C486.383 117.357 476.354 113.933 463.817 111.66C425.911 104.79 415.967 117.722 376.05 116.29C340.451 115.001 338.204 105.658 304.612 107.563C281.744 108.854 263.056 114.693 250.526 119.639" fill="#744228"/>
<path d="M452.062 150.17L307.248 137.687L249.395 143.67" fill="#744228"/>
<path d="M584.998 135.693C579.031 137.07 569.588 138.969 557.853 140.065C522.361 143.371 513.533 134.907 476.352 134.721C443.185 134.554 440.789 140.407 409.606 138.282C388.373 136.831 371.184 132.624 359.692 129.149" fill="#744228"/>
<path d="M396.839 92.5156L315.35 97.9112L283.691 86.5664" fill="#744228"/>
<path d="M236.399 118.522C236.002 118.74 235.657 118.964 235.364 119.194C232.967 121.049 231.296 123.044 229.647 125.005C228.002 126.932 226.497 128.876 227.159 131.042C227.159 131.042 227.157 131.059 227.155 131.077C220.965 136.549 213.164 139.511 204.955 138.78C191.862 137.609 181.445 127.345 177.73 113.687C177.798 113.112 177.832 112.532 177.866 111.952C178.009 108.378 177.338 104.955 176.284 101.627C176.298 100.62 176.346 99.6176 176.449 98.6039C177.27 89.3434 180.921 81.1278 186.283 75.0267C186.683 74.6322 187.069 74.2182 187.422 73.7826C187.905 73.2918 188.405 72.803 188.901 72.3491C191.535 71.0355 193.958 69.2545 196.217 67.2239C200.947 64.7979 206.213 63.6565 211.658 64.1286C219.886 64.8615 227.064 69.2021 232.18 75.7028C232.553 77.0211 233.35 78.3543 234.905 79.7072C238.022 85.0145 239.941 91.3287 240.285 98.0921C240.056 98.5248 239.847 98.9422 239.671 99.3811C239.076 100.814 237.971 102.221 239.882 103.847C239.963 103.909 240.077 103.994 240.175 104.058C240.167 104.128 240.157 104.215 240.148 104.285C239.698 109.397 238.364 114.209 236.384 118.502L236.399 118.522Z" fill="#B36D42"/>
<path d="M186.617 88.9904C186.919 88.8318 187.188 88.6516 187.403 88.4825C189.197 87.0865 190.454 85.5911 191.69 84.1286C192.924 82.6835 194.035 81.2238 193.499 79.6385C193.499 79.6385 193.499 79.6385 193.501 79.621C198.147 75.5221 204.06 73.2549 210.336 73.7375C220.346 74.5059 228.451 82.0528 231.474 92.1607C231.442 92.5814 231.407 93.0195 231.392 93.4423C231.325 96.0878 231.906 98.6338 232.743 101.104C232.743 101.847 232.726 102.588 232.671 103.342C232.17 110.217 229.495 116.338 225.501 120.904C225.2 121.204 224.916 121.506 224.648 121.828C224.284 122.209 223.924 122.555 223.547 122.9C221.553 123.9 219.73 125.24 218.028 126.753C214.448 128.591 210.451 129.476 206.278 129.156C199.985 128.671 194.435 125.516 190.442 120.723C190.134 119.749 189.507 118.772 188.299 117.779C185.847 113.86 184.297 109.2 183.924 104.166C184.085 103.849 184.247 103.533 184.374 103.212C184.801 102.148 185.634 101.097 184.15 99.8945C184.086 99.8338 183.986 99.7865 183.92 99.7433C183.927 99.6909 183.935 99.6212 183.941 99.5688C184.218 95.763 185.156 92.1951 186.617 88.9904Z" fill="#DCA771"/>
<path d="M203.698 107.177L213.212 64.7568L211.308 42.4343" fill="#744228"/>
<path d="M243.127 134.944L234.94 132.836L210.367 111.474" fill="#744228"/>
<path d="M169.088 128.612L180.63 123.796L200.317 110.752" fill="#744228"/>
</g>
<defs>
<clipPath id="clip0_398_1671">
<rect width="502.069" height="178.685" fill="white" transform="matrix(-0.992972 -0.118347 -0.118347 0.992972 520.188 144.512)"/>
</clipPath>
<clipPath id="clip1_398_1671">
<rect width="435.432" height="154.97" fill="white" transform="matrix(-0.992972 -0.118347 -0.118347 0.992972 601.037 52.332)"/>
</clipPath>
</defs>
</svg>
