<svg width="352" height="542" viewBox="0 0 352 542" fill="none" xmlns="http://www.w3.org/2000/svg">
<path fill-rule="evenodd" clip-rule="evenodd" d="M197.522 0.755859H154.68C154.581 9.29709 147.627 16.1906 139.062 16.1906C130.498 16.1906 123.543 9.29709 123.445 0.755859H80.6027C80.5041 9.29709 73.5496 16.1906 64.985 16.1906C56.4204 16.1906 49.4659 9.29709 49.3673 0.755859H0.749023V39.6068C9.31459 39.6773 16.2365 46.6428 16.2365 55.225C16.2365 63.8072 9.31459 70.7727 0.749023 70.8432V111.796C9.31459 111.867 16.2365 118.832 16.2365 127.414C16.2365 135.997 9.31459 142.962 0.749023 143.033V183.98C9.31459 184.05 16.2365 191.016 16.2365 199.598C16.2365 208.18 9.31459 215.146 0.749023 215.216V256.169C9.31459 256.24 16.2365 263.205 16.2365 271.788C16.2365 280.37 9.31459 287.335 0.749023 287.406V328.357C9.31459 328.427 16.2365 335.393 16.2365 343.975C16.2365 352.557 9.31459 359.523 0.749023 359.593V400.544C9.31459 400.615 16.2365 407.58 16.2365 416.163C16.2365 424.745 9.31459 431.71 0.749023 431.781V472.732C9.31459 472.802 16.2365 479.768 16.2365 488.35C16.2365 496.932 9.31459 503.898 0.749023 503.968V541.506H50.0992C50.0988 541.462 50.0986 541.418 50.0986 541.375C50.0986 532.749 57.0914 525.756 65.7174 525.756C74.3434 525.756 81.3361 532.749 81.3361 541.375C81.3361 541.418 81.336 541.462 81.3356 541.506H124.176C124.176 541.462 124.176 541.418 124.176 541.375C124.176 532.749 131.169 525.756 139.795 525.756C148.421 525.756 155.413 532.749 155.413 541.375C155.413 541.418 155.413 541.462 155.413 541.506H198.253C198.253 541.462 198.253 541.418 198.253 541.375C198.253 532.749 205.246 525.756 213.872 525.756C222.498 525.756 229.49 532.749 229.49 541.375C229.49 541.418 229.49 541.462 229.49 541.506H272.333C272.332 541.462 272.332 541.418 272.332 541.375C272.332 532.749 279.325 525.756 287.951 525.756C296.577 525.756 303.57 532.749 303.57 541.375L303.569 541.437L303.569 541.506H351.449V503.968L351.406 503.969L351.317 503.969C342.691 503.969 335.698 496.976 335.698 488.35C335.698 479.724 342.691 472.731 351.317 472.731C351.361 472.731 351.405 472.731 351.449 472.732V431.781L351.379 431.781L351.317 431.781C342.691 431.781 335.698 424.788 335.698 416.163C335.698 407.536 342.691 400.544 351.317 400.544L351.365 400.544L351.449 400.544V359.593C351.405 359.594 351.361 359.594 351.317 359.594C342.691 359.594 335.698 352.601 335.698 343.975C335.698 335.349 342.691 328.356 351.317 328.356L351.379 328.356L351.449 328.357V287.406C351.405 287.406 351.361 287.406 351.317 287.406C342.691 287.406 335.698 280.413 335.698 271.788C335.698 263.161 342.691 256.169 351.317 256.169C351.361 256.169 351.405 256.169 351.449 256.169V215.216C351.405 215.217 351.361 215.217 351.317 215.217C342.691 215.217 335.698 208.224 335.698 199.598C335.698 190.972 342.691 183.979 351.317 183.979L351.361 183.979L351.449 183.98V143.033C351.405 143.033 351.361 143.033 351.317 143.033C342.691 143.033 335.698 136.04 335.698 127.414C335.698 118.788 342.691 111.796 351.317 111.796C351.361 111.796 351.405 111.796 351.449 111.796V70.8432C351.405 70.8436 351.361 70.8438 351.317 70.8438C342.691 70.8438 335.698 63.851 335.698 55.225C335.698 46.599 342.691 39.6062 351.317 39.6062L351.39 39.6064L351.449 39.6068V0.755859H302.836C302.737 9.29709 295.783 16.1906 287.218 16.1906C278.654 16.1906 271.699 9.29709 271.601 0.755859H228.757C228.658 9.29709 221.704 16.1906 213.139 16.1906C204.575 16.1906 197.62 9.29709 197.522 0.755859Z" fill="#FFF8EF"/>
</svg>
