<svg width="1514" height="960" viewBox="0 0 1514 960" fill="none" xmlns="http://www.w3.org/2000/svg">
<g clip-path="url(#clip0_101_2)">
<rect width="1514" height="960" fill="white"/>
<rect x="1" y="1" width="1512" height="957.6" fill="#F3E7D7"/>
<g filter="url(#filter0_i_101_2)">
<path d="M-1318.17 -34.163C-1197.98 -53.8891 -1001.88 362.955 -795.774 364.242C-521.501 365.955 -390.364 114.69 -182.838 134.365C9.74116 152.622 5.96043 393.268 257.066 454.8C508.171 516.333 596.208 194.477 789.562 259.938C991.972 328.465 987.719 647.183 1260.48 672.111C1520.07 695.836 1680.02 378.974 1941.88 399.076C2203.75 419.178 2493.44 975.179 2317.07 1375.48" stroke="#444545" stroke-width="169.05"/>
</g>
<path d="M-1318.17 -34.163C-1197.98 -53.8891 -1001.88 362.955 -795.774 364.242C-521.501 365.955 -390.364 114.69 -182.838 134.365C9.74116 152.622 5.96043 393.268 257.066 454.8C508.171 516.333 596.208 194.477 789.562 259.938C991.972 328.465 987.719 647.183 1260.48 672.111C1520.07 695.836 1680.02 378.974 1941.88 399.076C2203.75 419.178 2493.44 975.179 2317.07 1375.48" stroke="white" stroke-width="9.39684" stroke-dasharray="56.38 56.38"/>
<rect x="120.652" y="368.05" width="30.4432" height="2.12395" transform="rotate(-38.1104 120.652 368.05)" fill="#333333"/>
<path d="M12.2199 158.717L-42.252 203.545C-43.2052 204.394 -44.9087 204.991 -44.3178 209.197C-43.5791 214.456 -22.5178 242.239 -18.0274 248.758C-13.537 255.276 73.5244 361.01 78.1684 366.077C82.8123 371.144 90.7648 374.317 102.628 374.795C114.492 375.273 125.891 365.668 140.035 354.387C154.179 343.106 154.438 333.915 156.362 324.708C157.901 317.343 152.963 308.146 150.301 304.469C120.616 267.888 64.7898 199.59 54.9544 188.103C44.6913 176.116 29.8834 162.312 24.4891 156.993C20.1737 152.738 14.5115 156.369 12.2199 158.717Z" fill="#EC765A"/>
<rect x="-34.3365" y="207.312" width="66.5536" height="153.751" rx="3.53991" transform="rotate(-39.4187 -34.3365 207.312)" fill="#F69077"/>
<path d="M93.2893 370.97L63.5037 336.291L124.065 286.736L153.266 324.117C154.635 325.294 152.253 332.365 131.777 351.236C111.301 370.106 97.5868 372.254 93.2893 370.97Z" fill="#F69077"/>
<path d="M69.5189 332.49C73.2673 333.455 83.7424 338.628 95.0397 348.49C106.337 358.351 112.584 364.431 114.295 366.239" stroke="#EC765A" stroke-width="2.83193" stroke-linecap="round"/>
<path d="M119.817 290.503C119.845 294.373 122.329 305.789 129.163 319.137C135.997 332.486 140.384 340.019 141.724 342.117" stroke="#EC765A" stroke-width="2.83193" stroke-linecap="round"/>
<path d="M62.8495 335.454C60.3042 329.896 52.8108 315.895 49.3823 309.59C55.749 305.664 70.5031 296.145 78.5861 289.471C86.669 282.798 96.681 272.192 100.677 267.723C103.815 271.74 117.099 281.845 123.35 286.396C121.228 291.347 113.943 304.256 101.773 316.278C89.6031 328.3 70.7532 334.072 62.8495 335.454Z" fill="#545454"/>
<mask id="mask0_101_2" style="mask-type:alpha" maskUnits="userSpaceOnUse" x="68" y="265" width="40" height="70">
<line x1="73.7118" y1="278.735" x2="87.6747" y2="333.41" stroke="#DDDDDD" stroke-width="9.91175"/>
<line x1="88.7751" y1="266.968" x2="102.738" y2="321.644" stroke="#DDDDDD" stroke-width="9.91175"/>
</mask>
<g mask="url(#mask0_101_2)">
<path d="M62.8484 335.456C60.3032 329.898 52.8098 315.897 49.3813 309.591C55.7479 305.666 70.5021 296.147 78.585 289.473C86.668 282.8 96.6799 272.193 100.676 267.724C103.814 271.741 117.098 281.847 123.348 286.398C121.227 291.349 113.942 304.257 101.772 316.28C89.6021 328.302 70.7522 334.073 62.8484 335.456Z" fill="#989898"/>
</g>
<path d="M63.1286 335.235C60.5834 329.677 53.09 315.676 49.6615 309.37C56.0282 305.445 70.7823 295.925 78.8652 289.252C86.9482 282.578 96.9601 271.972 100.956 267.503C104.094 271.52 117.379 281.626 123.629 286.176C121.507 291.128 114.222 304.036 102.052 316.058C89.8823 328.081 71.0324 333.852 63.1286 335.235Z" stroke="#333333" stroke-width="0.707982"/>
<path d="M87.03 370.494C87.03 370.494 87.9135 374.352 92.1247 375.011C96.3359 375.671 94.5967 375.452 99.5989 375.736C104.601 376.02 110.728 374.216 113.166 373.279C113.384 373.195 110.482 370.353 108.746 369.581C106.576 368.616 96.9176 365.372 92.1742 366.717C86.2267 368.404 87.03 370.494 87.03 370.494Z" fill="#F0F0F0"/>
<path fill-rule="evenodd" clip-rule="evenodd" d="M112.961 373.357C112.714 373.152 112.43 372.933 112.134 372.722C111.573 372.321 111.129 372.06 110.969 371.989L110.821 371.923C108.224 370.768 108.21 370.761 100.744 368.803C97.1637 367.864 94.7352 367.942 93.0868 368.286C91.6499 368.585 90.7331 369.09 89.9524 369.519C89.8331 369.585 89.717 369.649 89.6027 369.71C88.9342 370.068 88.065 370.702 87.3358 371.345C87.1108 370.841 87.0313 370.494 87.0313 370.494C87.0313 370.494 86.2279 368.405 92.1755 366.718C96.9189 365.372 106.577 368.617 108.747 369.582C110.483 370.353 113.386 373.195 113.167 373.279C113.101 373.305 113.032 373.331 112.961 373.357Z" fill="black"/>
<path fill-rule="evenodd" clip-rule="evenodd" d="M113.179 373.256C112.438 373.344 111.589 373.458 110.658 373.583C106.855 374.094 101.692 374.787 97.0642 374.659C94.3061 374.583 92.0164 373.953 90.3881 373.167C89.5729 372.774 88.9376 372.349 88.4944 371.948C88.0363 371.533 87.8431 371.199 87.7957 371.002L87.2466 371.135C87.7026 372.26 88.9939 374.52 92.1262 375.011C94.1079 375.322 94.7719 375.437 95.4409 375.503C96.1934 375.576 96.9522 375.586 99.6004 375.736C104.603 376.019 110.729 374.216 113.167 373.279C113.176 373.275 113.18 373.268 113.179 373.256Z" fill="#DCDBD7"/>
<path d="M96.2542 371.314C97.1626 371.597 99.5833 372.083 101.999 371.767" stroke="white" stroke-width="0.707982" stroke-linecap="round"/>
<path d="M154.542 316.262C154.542 316.262 158.071 318.053 157.692 322.298C157.313 326.544 157.521 324.804 156.586 329.726C155.65 334.648 152.417 340.156 150.918 342.294C150.784 342.486 148.729 338.982 148.4 337.111C147.989 334.772 147.179 324.616 149.632 320.339C152.709 314.977 154.542 316.262 154.542 316.262Z" fill="#F0F0F0"/>
<path fill-rule="evenodd" clip-rule="evenodd" d="M151.045 342.114C150.905 341.824 150.761 341.495 150.627 341.156C150.374 340.514 150.228 340.02 150.198 339.848L150.17 339.688C149.677 336.889 149.675 336.874 149.581 329.155C149.537 325.454 150.201 323.117 150.933 321.601C151.571 320.279 152.283 319.512 152.889 318.858C152.981 318.758 153.071 318.661 153.158 318.565C153.667 318.003 154.493 317.314 155.293 316.762C154.86 316.423 154.543 316.262 154.543 316.262C154.543 316.262 152.71 314.977 149.634 320.339C147.181 324.616 147.991 334.772 148.402 337.111C148.73 338.982 150.785 342.486 150.92 342.295C150.96 342.237 151.002 342.177 151.045 342.114Z" fill="black"/>
<path fill-rule="evenodd" clip-rule="evenodd" d="M150.893 342.303C151.158 341.606 151.474 340.809 151.821 339.936C153.237 336.37 155.159 331.528 156.155 327.007C156.749 324.313 156.691 321.938 156.323 320.168C156.139 319.282 155.88 318.563 155.598 318.036C155.307 317.491 155.03 317.223 154.85 317.129L155.111 316.628C156.093 317.343 157.974 319.143 157.692 322.301C157.513 324.299 157.465 324.972 157.367 325.637C157.256 326.384 157.081 327.123 156.586 329.729C155.65 334.651 152.418 340.159 150.918 342.297C150.913 342.305 150.904 342.307 150.893 342.303Z" fill="#DCDBD7"/>
<path d="M153.105 325.408C153.16 326.358 153.045 328.825 152.154 331.092" stroke="white" stroke-width="0.707982" stroke-linecap="round"/>
<line x1="50.2135" y1="327.866" x2="57.6582" y2="324.746" stroke="#333333" stroke-width="2.83193"/>
<path d="M49.9711 331.648C47.5522 334.101 41.9203 332.374 40.0742 331.235C41.2373 330.829 43.4719 329.466 45.2954 328.504C47.5094 327.336 49.8063 326.615 51.698 325.587C51.7744 326.697 52.39 329.195 49.9711 331.648Z" fill="#E66E51"/>
<line y1="-1.41596" x2="8.07224" y2="-1.41596" transform="matrix(-0.598303 0.80127 0.80127 0.598303 122.488 274.94)" stroke="#333333" stroke-width="2.83193"/>
<path d="M125.078 274.772C128.043 273.019 127.731 267.137 127.072 265.07C126.397 266.1 124.533 267.938 123.158 269.475C121.489 271.34 120.234 273.394 118.778 274.981C119.837 275.324 122.112 276.526 125.078 274.772Z" fill="#E66E51"/>
</g>
<defs>
<filter id="filter0_i_101_2" x="-1331.86" y="-119.38" width="3787.51" height="1528.94" filterUnits="userSpaceOnUse" color-interpolation-filters="sRGB">
<feFlood flood-opacity="0" result="BackgroundImageFix"/>
<feBlend mode="normal" in="SourceGraphic" in2="BackgroundImageFix" result="shape"/>
<feColorMatrix in="SourceAlpha" type="matrix" values="0 0 0 0 0 0 0 0 0 0 0 0 0 0 0 0 0 0 127 0" result="hardAlpha"/>
<feOffset dx="14.7" dy="9.45"/>
<feComposite in2="hardAlpha" operator="arithmetic" k2="-1" k3="1"/>
<feColorMatrix type="matrix" values="0 0 0 0 0 0 0 0 0 0 0 0 0 0 0 0 0 0 0.1 0"/>
<feBlend mode="normal" in2="shape" result="effect1_innerShadow_101_2"/>
</filter>
<clipPath id="clip0_101_2">
<rect width="1514" height="960" fill="white"/>
</clipPath>
</defs>
</svg>