<svg width="536" height="239" viewBox="0 0 536 239" fill="none" xmlns="http://www.w3.org/2000/svg">
<path d="M0.804688 6.79004H250.192V98.9448H0.804688V66.8656C0.804688 66.8656 14.741 58.2922 14.741 50.5344C14.741 41.7855 0.804688 34.7864 0.804688 34.7864V6.79004Z" fill="#F5AE55"/>
<rect x="53.3086" y="6.79004" width="403.613" height="222.443" fill="#F5AE55"/>
<path d="M0.804688 137.078H250.192V229.233H0.804688V197.154C0.804688 197.154 14.741 188.58 14.741 180.822C14.741 172.074 0.804688 165.075 0.804688 165.075V137.078Z" fill="#F5AE55"/>
<path d="M0.804688 73.5234H250.192V165.678H0.804688V133.599C0.804688 133.599 14.741 125.026 14.741 117.268C14.741 108.519 0.804688 101.52 0.804688 101.52V73.5234Z" fill="#F5AE55"/>
<path d="M0.804688 6.79004H250.192V98.9448H0.804688V66.8656C0.804688 66.8656 14.741 58.2922 14.741 50.5344C14.741 41.7855 0.804688 34.7864 0.804688 34.7864V6.79004Z" fill="#F5AE55"/>
<path d="M535.676 137.078H289.57V229.233H535.676V197.154C535.676 197.154 521.923 188.58 521.923 180.822C521.923 172.074 535.676 165.075 535.676 165.075V137.078Z" fill="#F5AE55"/>
<path d="M535.676 73.5234H289.57V165.678H535.676V133.599C535.676 133.599 521.923 125.026 521.923 117.268C521.923 108.519 535.676 101.52 535.676 101.52V73.5234Z" fill="#F5AE55"/>
<path d="M535.676 6.79004H289.57V98.9448H535.676V66.8656C535.676 66.8656 521.923 58.2922 521.923 50.5344C521.923 41.7855 535.676 34.7864 535.676 34.7864V6.79004Z" fill="#F5AE55"/>
<rect x="53.2148" y="6.87793" width="302.376" height="222.075" fill="#F5AE55"/>
<path d="M450.625 7.82129L450.625 230.287" stroke="#F3E7D7" stroke-width="9.53325" stroke-dasharray="19.07 19.07"/>
<rect x="51.876" y="33.3799" width="352.402" height="165.292" rx="4.76663" fill="white" stroke="#F3E7D7" stroke-width="9.53325"/>
<path d="M489.588 145.328V135.931H492.791V137.663C497.174 138.608 499.773 141.863 499.773 146.956C499.773 152.836 495.678 156.694 490.139 156.668C484.784 156.668 480.348 153.072 480.348 146.719C480.348 141.784 482.999 138.346 486.569 138.031V142.677C485.047 143.018 483.918 144.462 483.918 146.693C483.918 150.447 486.596 152.258 490.061 152.232C493.499 152.258 496.072 150.158 496.072 146.851C496.072 144.331 494.996 142.677 492.791 142.047V145.328H489.588ZM499.773 124.574C499.773 130.743 495.284 134.391 490.061 134.391C484.837 134.391 480.348 130.743 480.348 124.574C480.348 118.405 484.837 114.756 490.061 114.756C495.284 114.756 499.773 118.405 499.773 124.574ZM495.967 124.574C495.967 121.083 493.263 119.193 490.061 119.193C486.858 119.193 484.154 121.083 484.154 124.574C484.154 128.091 486.858 129.981 490.061 129.955C493.263 129.981 495.967 128.091 495.967 124.574ZM499.248 101.217V112.295H480.873V108.042H495.468V101.217H499.248ZM499.248 91.4962V98.4262H480.873V91.4962C480.873 85.59 485.099 82.125 490.061 82.125C495.022 82.125 499.248 85.5637 499.248 91.4962ZM484.443 94.1737H495.678V91.89C495.678 88.2675 492.974 86.5087 490.061 86.5087C487.147 86.5087 484.443 88.2675 484.443 91.89V94.1737Z" fill="#F3E7D7"/>
<path fill-rule="evenodd" clip-rule="evenodd" d="M287.319 58.543H169V176.862H287.319V58.543ZM187.723 95.0819V125.377C187.723 125.664 187.956 125.897 188.243 125.897H210.087C213.371 126.261 214.142 127.17 213.987 129.797V139.419C214.214 141.784 214.994 142.282 217.108 142.279H238.895C238.932 142.279 238.97 142.275 239.007 142.267C240.626 141.902 241.101 141.31 241.032 139.419V129.797C241.157 126.965 242.02 126.198 244.672 125.897H267.556C267.843 125.897 268.076 125.683 268.076 125.395V93.9708V93.8911C268.076 93.6038 267.843 93.3896 267.556 93.3896H254.944C253.535 93.5421 253.298 94.2111 252.78 95.67C252.689 95.9259 252.589 96.2061 252.473 96.5121L242.462 122.386C241.709 124.319 241.015 125.021 238.951 125.117H218.018C215.508 125.062 214.879 124.199 213.987 122.386L203.712 94.8997C203.636 94.6965 203.442 94.5618 203.225 94.5618H188.243C187.956 94.5618 187.723 94.7946 187.723 95.0819Z" fill="#F5AE55"/>
</svg>
