<svg xmlns="http://www.w3.org/2000/svg" width="94.05" height="86.06" fill="none" viewBox="0 0 94.05 86.06"><path fill="#833711" d="M57.74 1.358 74.18 3.93a15.67 15.67 0 0 1 11.704 8.703l6.203 12.936a14.48 14.48 0 0 1 .143 12.21 14.48 14.48 0 0 0-.903 9.231l.826 3.551a25.25 25.25 0 0 1-5.19 21.882l-1.806 2.17a30.93 30.93 0 0 1-18.83 10.741l-3.356.543c-4.22.682-8.534.496-12.678-.549l-17.402-4.384a10.9 10.9 0 0 1-6.48-4.639 10.9 10.9 0 0 0-5.807-4.445l-3.627-1.166A21.58 21.58 0 0 1 3.094 56.952l-.503-1.52a24.73 24.73 0 0 1-.346-14.415L4.81 31.82a17.25 17.25 0 0 1 7.114-9.764l1.228-.81a11.97 11.97 0 0 0 4.214-4.846 11.97 11.97 0 0 1 6.25-5.923l17.326-7.133A31.4 31.4 0 0 1 57.74 1.358"/><path fill="#E97236" d="M53.941 1.702 67.783 3.97a14.57 14.57 0 0 1 10.887 8.308l5.742 12.536a14.47 14.47 0 0 1 .134 11.749 14.47 14.47 0 0 0-.836 8.862l.76 3.419a25.3 25.3 0 0 1-4.896 21.236l-1.28 1.608a29.6 29.6 0 0 1-18.228 10.763l-1.596.27a31.4 31.4 0 0 1-13.245-.597l-15.084-3.98a10.2 10.2 0 0 1-6.078-4.499 10.2 10.2 0 0 0-5.426-4.303l-3.286-1.106A19.83 19.83 0 0 1 2.77 55.421l-.654-2.069a24.1 24.1 0 0 1-.31-13.466l2.46-9.242a16.26 16.26 0 0 1 6.471-9.198l1.097-.757a11.44 11.44 0 0 0 3.913-4.68 11.44 11.44 0 0 1 5.888-5.773l14.81-6.384a31.4 31.4 0 0 1 17.497-2.15"/><g filter="url(#values-lg-stone-exploration_a)"><g filter="url(#values-lg-stone-exploration_b)"><path fill="#833711" d="m55.273 32.764-14.142 4.04-4.04 14.142 14.141-4.04zm-9.091 6.06a2.92 2.92 0 0 1 2.145.884 2.93 2.93 0 0 1 .885 2.147A2.9 2.9 0 0 1 48.327 44a2.95 2.95 0 0 1-2.145.885A2.9 2.9 0 0 1 44.034 44a2.9 2.9 0 0 1-.882-2.145 2.97 2.97 0 0 1 .883-2.147q.876-.892 2.147-.883m0-17.171q4.19 0 7.879 1.592 3.687 1.591 6.414 4.317t4.317 6.414q1.59 3.69 1.592 7.879.001 4.19-1.592 7.879-1.594 3.689-4.317 6.414-2.724 2.726-6.414 4.317t-7.88 1.592q-4.186 0-7.878-1.592-3.69-1.591-6.414-4.317-2.722-2.725-4.32-6.414-1.595-3.69-1.589-7.879.006-4.19 1.592-7.879 1.585-3.689 4.317-6.414 2.73-2.726 6.414-4.32 3.683-1.593 7.879-1.589"/></g></g><defs><filter id="values-lg-stone-exploration_a" width="49.322" height="49.322" x="21.522" y="17.193" color-interpolation-filters="sRGB" filterUnits="userSpaceOnUse"><feFlood flood-opacity="0" result="BackgroundImageFix"/><feBlend in="SourceGraphic" in2="BackgroundImageFix" result="shape"/><feColorMatrix in="SourceAlpha" result="hardAlpha" values="0 0 0 0 0 0 0 0 0 0 0 0 0 0 0 0 0 0 127 0"/><feOffset dx="1.243" dy="1.657"/><feComposite in2="hardAlpha" k2="-1" k3="1" operator="arithmetic"/><feColorMatrix values="0 0 0 0 0 0 0 0 0 0 0 0 0 0 0 0 0 0 0.25 0"/><feBlend in2="shape" result="effect1_innerShadow_5690_2643"/><feTurbulence baseFrequency="0.2413928210735321 0.2413928210735321" numOctaves="3" seed="7843" type="fractalNoise"/><feDisplacementMap width="100%" height="100%" in="effect1_innerShadow_5690_2643" result="displacedImage" scale=".829" xChannelSelector="R" yChannelSelector="G"/><feMerge result="effect2_texture_5690_2643"><feMergeNode in="displacedImage"/></feMerge></filter><filter id="values-lg-stone-exploration_b" width="40.748" height="40.748" x="25.98" y="21.309" color-interpolation-filters="sRGB" filterUnits="userSpaceOnUse"><feFlood flood-opacity="0" result="BackgroundImageFix"/><feColorMatrix in="SourceAlpha" result="hardAlpha" values="0 0 0 0 0 0 0 0 0 0 0 0 0 0 0 0 0 0 127 0"/><feOffset dx=".341" dy="-.341"/><feComposite in2="hardAlpha" operator="out"/><feColorMatrix values="0 0 0 0 0.886275 0 0 0 0 0.435294 0 0 0 0 0.211765 0 0 0 1 0"/><feBlend in2="BackgroundImageFix" result="effect1_dropShadow_5690_2643"/><feBlend in="SourceGraphic" in2="effect1_dropShadow_5690_2643" result="shape"/><feColorMatrix in="SourceAlpha" result="hardAlpha" values="0 0 0 0 0 0 0 0 0 0 0 0 0 0 0 0 0 0 127 0"/><feOffset dx="1.362" dy="1.362"/><feComposite in2="hardAlpha" k2="-1" k3="1" operator="arithmetic"/><feColorMatrix values="0 0 0 0 0.317647 0 0 0 0 0.137255 0 0 0 0 0.0352941 0 0 0 1 0"/><feBlend in2="shape" result="effect2_innerShadow_5690_2643"/></filter></defs></svg>