<svg xmlns="http://www.w3.org/2000/svg" width="94.52" height="86.06" fill="none" viewBox="0 0 94.52 86.06"><path fill="#833711" d="m57.23 1.351 16.36 2.56a15.59 15.59 0 0 1 11.644 8.66l6.172 12.87a14.4 14.4 0 0 1 .142 12.15 14.4 14.4 0 0 0-.898 9.185l.822 3.533a25.13 25.13 0 0 1-5.164 21.772L84.51 74.24a30.78 30.78 0 0 1-18.736 10.687l-3.338.54a31.2 31.2 0 0 1-12.615-.545l-17.315-4.363a10.84 10.84 0 0 1-6.447-4.615 10.84 10.84 0 0 0-5.778-4.423l-3.609-1.16A21.47 21.47 0 0 1 2.858 56.667l-.5-1.512a24.6 24.6 0 0 1-.345-14.343l2.551-9.152a17.16 17.16 0 0 1 7.079-9.716l1.221-.806a11.9 11.9 0 0 0 4.194-4.821 11.9 11.9 0 0 1 6.218-5.894l17.239-7.096A31.2 31.2 0 0 1 57.23 1.35"/><path fill="#E97236" d="m62.018 1.477 13.773 2.257A14.49 14.49 0 0 1 86.623 12l5.713 12.474a14.4 14.4 0 0 1 .133 11.69 14.4 14.4 0 0 0-.831 8.817l.756 3.402a25.17 25.17 0 0 1-4.872 21.13l-1.272 1.6a29.46 29.46 0 0 1-18.138 10.71l-1.588.268c-4.385.743-8.878.54-13.179-.594l-15.008-3.96a10.16 10.16 0 0 1-6.048-4.476 10.16 10.16 0 0 0-5.399-4.282l-3.268-1.1a19.73 19.73 0 0 1-12.52-12.751l-.65-2.058a24 24 0 0 1-.31-13.4l2.448-9.195a16.18 16.18 0 0 1 6.44-9.152l1.09-.754a11.4 11.4 0 0 0 3.894-4.656 11.4 11.4 0 0 1 5.858-5.744L44.61 3.617a31.23 31.23 0 0 1 17.41-2.14"/><g filter="url(#values-lg-stone-community_a)"><g filter="url(#values-lg-stone-community_b)"><path fill="#833711" d="M54.032 43.217a8.04 8.04 0 0 1 8.04 8.04v3.015a3.015 3.015 0 0 1-3.015 3.015H34.936a3.015 3.015 0 0 1-3.015-3.015v-3.015a8.04 8.04 0 0 1 8.04-8.04zm12.06 0a6.03 6.03 0 0 1 6.03 6.03v3.015a3.015 3.015 0 0 1-3.015 3.015h-3.015v-4.02a10.05 10.05 0 0 0-4.02-8.04zM46.996 23.116a9.045 9.045 0 1 1 0 18.09 9.045 9.045 0 0 1 0-18.09m17.086 6.03a6.03 6.03 0 1 1 0 12.062 6.03 6.03 0 0 1 0-12.062"/></g></g><defs><filter id="values-lg-stone-community_a" width="49.075" height="49.075" x="27.485" y="16.669" color-interpolation-filters="sRGB" filterUnits="userSpaceOnUse"><feFlood flood-opacity="0" result="BackgroundImageFix"/><feBlend in="SourceGraphic" in2="BackgroundImageFix" result="shape"/><feColorMatrix in="SourceAlpha" result="hardAlpha" values="0 0 0 0 0 0 0 0 0 0 0 0 0 0 0 0 0 0 127 0"/><feOffset dx="1.243" dy="1.657"/><feComposite in2="hardAlpha" k2="-1" k3="1" operator="arithmetic"/><feColorMatrix values="0 0 0 0 0 0 0 0 0 0 0 0 0 0 0 0 0 0 0.25 0"/><feBlend in2="shape" result="effect1_innerShadow_5690_2783"/><feTurbulence baseFrequency="0.2413928210735321 0.2413928210735321" numOctaves="3" seed="7843" type="fractalNoise"/><feDisplacementMap width="100%" height="100%" in="effect1_innerShadow_5690_2783" result="displacedImage" scale=".829" xChannelSelector="R" yChannelSelector="G"/><feMerge result="effect2_texture_5690_2783"><feMergeNode in="displacedImage"/></feMerge></filter><filter id="values-lg-stone-community_b" width="40.528" height="34.497" x="31.921" y="22.79" color-interpolation-filters="sRGB" filterUnits="userSpaceOnUse"><feFlood flood-opacity="0" result="BackgroundImageFix"/><feColorMatrix in="SourceAlpha" result="hardAlpha" values="0 0 0 0 0 0 0 0 0 0 0 0 0 0 0 0 0 0 127 0"/><feOffset dx=".324" dy="-.324"/><feComposite in2="hardAlpha" operator="out"/><feColorMatrix values="0 0 0 0 0.886275 0 0 0 0 0.435294 0 0 0 0 0.211765 0 0 0 1 0"/><feBlend in2="BackgroundImageFix" result="effect1_dropShadow_5690_2783"/><feBlend in="SourceGraphic" in2="effect1_dropShadow_5690_2783" result="shape"/><feColorMatrix in="SourceAlpha" result="hardAlpha" values="0 0 0 0 0 0 0 0 0 0 0 0 0 0 0 0 0 0 127 0"/><feOffset dx="1.297" dy="1.297"/><feComposite in2="hardAlpha" k2="-1" k3="1" operator="arithmetic"/><feColorMatrix values="0 0 0 0 0.317647 0 0 0 0 0.137255 0 0 0 0 0.0352941 0 0 0 1 0"/><feBlend in2="shape" result="effect2_innerShadow_5690_2783"/></filter></defs></svg>