<svg xmlns="http://www.w3.org/2000/svg" width="1104" height="797" fill="none" viewBox="0 0 1104 797"><path fill="url(#a)" d="M50.048 384.573c.413-17.994-16.21-51.301-86.017-40.576-87.259 13.405-100.049-17.704-106.987-47.27-11.042-47.061-14.455-113.079-177.429-115.065-92.779-1.13-128.151-8.054-138.03-14.229l-1.573-6.704c-2.247 1.821-2.43 4.201 1.573 6.704l84.484 360.049c2.856-12.788-5.511-47.407 62.5-58.089 56.404-8.859 62.212 8.094 119.034.345 56.821-7.749 59.429-47.775 153.893-74.148 75.571-21.099 86.5-15.08 88.552-11.017"/><mask id="c" width="1121" height="585" x="-480" y="174" maskUnits="userSpaceOnUse" style="mask-type:alpha"><path fill="url(#b)" d="M-479.645 174.153h1119.75v584.704h-1119.75z"/></mask><g mask="url(#c)"><path fill="url(#d)" d="M-26.65 700.32c-.865 2.456-1.56 6.446-.68 8.373 1.363 4.878 2.028 9.827 2.674 11.573 2.185 2.94 6.87 12.457 6.87 12.457s11.646 20.316 20.23 29.946c3.604 4.042 9.337 10.047 18.655 11.089 15.77 1.762 30.532.265 54.792-.304 31.918-.75 63.265-.733 88.721 8.449 35.677 12.868 62.086 25.243 76.329 32.132 14.992 7.251 29.738 14.861 43.405 15.038 11.491.148 28.478-.637 43.279-13.643 16.792-14.756 23.507-33.002 23.507-33.002s1.874-15.842 6.43-28.642c2.85-8.007 10.147-16.252 21.283-23.053 7.816-4.774 21.846-12.453 43.594-13.304 20.724-.81 42.554-.956 63.604 5.465 37.593 11.467 54.531 20.621 72.134 26.562 13.406 4.525 32.653 11.589 50.893 3.598 11.977-5.247 17.061-11.707 24.538-21.915 14.616-19.957 12.355-29.105 11.837-60.448-.387-23.443-2.553-41.764-9.838-52.505-7.777-11.467-43.478-29.351-48.212-51.261-.548-2.536-2.784-8.298-.456-9.572 5.211-2.85 13.032 4.185 18.2-1.55s-12.035-16.497-26.349-20.462c-2.125-.588-5.107-1.267-8.438-1.037-11.905.819-15.554 10.178-19.863 22.041-2.265 6.237-1.782 15.592 4.757 22.331 15.511 15.984 36.584 27.987 41.267 41.055 3.115 8.695 5.782 17.776 2.277 26.733-3.701 9.457-8.169 18.377-14.233 22.831-9.883 7.257-24.92 13.783-41.116 12.282-27.437-2.544-40.05-13.908-48.43-22.214-19.448-19.274-55.538-48.285-78.696-51.427-7.822-1.062-19.594.093-35.844 8.976-21.648 11.833-44.109 32.404-64.108 52.162-12.044 11.899-19.134 17.91-29.235 20.378-17.211 4.204-38.824 2.825-60.848 4.905-22.315 2.106-40.021 4.246-54.814 2.19-19.341-2.689-36.103-5.893-46.597-10.286-19.379-8.115-45.383-19.474-71.85-15.085-34.921 5.791-73.804 12.51-79.668 29.144"/></g><g fill="#FFD391"><path d="M520.638 732.127c-1.449-.839-3.087-1.483-4.569-2.314-1.898-1.064-4.042-1.977-5.448-3.717-.933-1.229-1.672-2.607-2.419-3.958-.516-.933-.928-2.071-1.447-3.025-.341-.628-.893-2.799-2.009-2.057.086.075.12.078.146.173-.106.23-.145.24-.371.369-.091-.012-.107-.027-.183-.081-.268.496-.452 1.006-.694 1.514-.163.343-.375.692-.533 1.031-.664 1.428-1.431 2.813-2.231 4.169-.165.289-.438.59-.598.876-1.132 2.03-3.242 3.037-5.206 4.111-1.034.566-2.209 1.116-3.288 1.64-.719.349-1.605.681-2.265 1.15-.302 1.341.778 1.407 1.725 1.894.321.165.652.321.976.479a54 54 0 0 1 3.874 2.059c.925.539 1.365.773 2.225 1.435.429.327.821.7 1.169 1.111.342.412.647.899.934 1.35.967 1.525 1.816 3.171 2.559 4.818.155.344.374.71.545 1.063.302.619.475 1.353.984 1.842.333.322.91.187 1.169-.16.469-.573.616-1.35.967-1.963.489-.854.859-1.763 1.311-2.627q.715-1.356 1.545-2.645c.449-.708.905-1.459 1.508-2.044.916-.889 2.119-1.561 3.223-2.176a78 78 0 0 1 3.887-2.012c.92-.439 1.959-.71 2.586-1.458.048-.391.045-.472-.072-.847"/><path d="M504.745 717.055c-.08.086-.364.381-.408.461.076.054.092.069.183.082.226-.13.265-.14.371-.37-.026-.095-.059-.098-.146-.173"/></g><g fill="#FFD391"><path d="M549.415 715.503c-.925-.535-1.971-.947-2.918-1.478-1.211-.679-2.58-1.262-3.478-2.373-.596-.785-1.068-1.665-1.545-2.527-.329-.596-.593-1.323-.924-1.932-.218-.401-.57-1.787-1.283-1.314.055.048.077.05.093.111-.068.146-.092.153-.237.236-.058-.008-.068-.018-.116-.052-.171.316-.289.642-.444.967-.104.218-.239.441-.34.658a31 31 0 0 1-1.424 2.662c-.106.185-.28.377-.382.559-.723 1.297-2.07 1.94-3.324 2.626-.661.361-1.411.712-2.1 1.047-.46.223-1.025.434-1.446.734-.193.856.496.898 1.101 1.209.205.106.416.205.623.307a34 34 0 0 1 2.474 1.314c.59.344.872.493 1.421.917q.412.313.746.709c.218.263.414.574.596.862.618.974 1.16 2.025 1.635 3.076.099.22.239.454.348.679.193.396.303.864.628 1.176.213.206.581.12.747-.102.299-.365.393-.862.617-1.253.312-.546.549-1.126.837-1.677a22 22 0 0 1 .987-1.689c.287-.453.578-.932.963-1.306.585-.568 1.353-.997 2.058-1.389q1.222-.678 2.482-1.285c.587-.281 1.25-.453 1.651-.931.031-.25.029-.301-.046-.541"/><path d="M539.268 705.879c-.051.055-.232.243-.26.294.048.035.058.044.116.052.145-.082.169-.089.237-.236-.016-.06-.038-.062-.093-.11"/></g><g fill="#FFD391" clip-path="url(#e)"><path d="M144.437 748.038c-.738-.427-1.572-.755-2.326-1.178-.966-.542-2.057-1.006-2.773-1.892-.475-.626-.851-1.327-1.231-2.015-.263-.475-.473-1.054-.737-1.54-.173-.32-.454-1.424-1.022-1.047.044.038.061.04.074.088-.054.117-.074.122-.189.188-.047-.006-.054-.014-.093-.041-.136.252-.23.512-.353.771-.083.174-.191.352-.272.524a25 25 0 0 1-1.135 2.122c-.084.148-.223.301-.305.446-.576 1.034-1.65 1.546-2.649 2.093-.527.288-1.125.568-1.674.835-.366.177-.817.346-1.153.585-.154.683.396.716.878.964.163.084.332.163.497.244q1.007.484 1.971 1.048c.471.274.696.393 1.133.731q.328.25.595.565c.174.21.33.457.475.687.493.776.925 1.614 1.303 2.453.079.175.191.361.278.54.154.316.241.689.501.938.169.164.463.096.595-.081.238-.292.313-.687.492-.999.249-.435.437-.898.667-1.337q.363-.69.787-1.347c.228-.36.46-.742.767-1.04.467-.453 1.079-.795 1.641-1.108q.974-.54 1.978-1.024c.468-.224.997-.361 1.316-.742a.75.75 0 0 0-.036-.431"/><path d="M136.347 740.366c-.041.044-.185.194-.208.235.039.027.047.035.094.042.115-.066.134-.072.188-.189-.013-.048-.03-.049-.074-.088"/></g><g fill="#FFD391"><path d="M625.581 590.529c-.738-.427-1.572-.755-2.326-1.178-.966-.542-2.057-1.006-2.773-1.892-.475-.625-.851-1.327-1.231-2.015-.263-.475-.473-1.054-.737-1.539-.174-.32-.454-1.425-1.023-1.048.044.039.061.04.075.088-.054.117-.074.122-.189.188-.047-.006-.054-.014-.093-.041-.137.253-.23.512-.354.771-.083.174-.19.352-.271.525a25 25 0 0 1-1.135 2.122c-.085.147-.224.3-.305.446-.576 1.033-1.65 1.545-2.65 2.092-.526.288-1.124.568-1.673.835-.367.178-.817.346-1.153.585-.154.683.396.716.878.964.163.084.332.164.497.244q1.007.484 1.971 1.048c.471.275.695.393 1.133.731q.328.25.595.565c.174.21.33.458.475.687.493.777.925 1.614 1.303 2.453.079.175.191.361.277.541.154.315.242.688.502.937.169.164.462.096.595-.081.238-.291.313-.687.492-.999.248-.435.437-.898.667-1.337q.363-.69.787-1.346c.228-.361.46-.743.767-1.041.466-.453 1.079-.795 1.641-1.108q.974-.54 1.978-1.024c.468-.223.997-.361 1.316-.742a.76.76 0 0 0-.036-.431"/><path d="M617.49 582.857c-.041.044-.186.194-.208.235.039.027.047.035.093.041.115-.066.135-.071.189-.188-.013-.049-.03-.05-.074-.088"/></g><g fill="#FFD391"><path d="M421.46 638.172c-.738-.427-1.572-.755-2.327-1.178-.965-.542-2.057-1.006-2.772-1.892-.475-.626-.851-1.327-1.232-2.015-.262-.475-.472-1.054-.736-1.54-.174-.32-.455-1.424-1.023-1.047.044.038.061.04.074.088-.054.117-.073.122-.189.188-.046-.006-.054-.014-.093-.041-.136.252-.23.512-.353.771-.083.174-.191.352-.271.524a25 25 0 0 1-1.136 2.122c-.084.148-.223.301-.304.446-.577 1.034-1.65 1.546-2.65 2.093-.526.288-1.124.568-1.674.835-.366.177-.817.346-1.153.585-.154.683.396.716.878.964q.248.124.497.244 1.007.484 1.972 1.048c.471.274.695.393 1.133.731q.327.25.595.565c.174.21.329.457.475.687.493.776.924 1.614 1.303 2.453.079.175.19.361.277.541.154.315.242.688.501.937.17.164.463.096.595-.081.239-.292.314-.687.492-.999.249-.435.438-.898.667-1.337q.364-.69.787-1.347c.229-.36.461-.742.768-1.04.466-.453 1.078-.795 1.64-1.108q.975-.54 1.979-1.024c.468-.224.997-.361 1.316-.742a.76.76 0 0 0-.036-.431"/><path d="M413.368 630.5c-.04.044-.185.194-.207.235.038.027.046.035.093.042.115-.066.134-.072.189-.189-.014-.048-.031-.049-.075-.088"/></g><g fill="#FFD391"><g style="mix-blend-mode:overlay"><circle cx="403.92" cy="581.323" r="23.919" opacity=".3"/><circle cx="403.919" cy="581.323" r="19.135" opacity=".4"/><circle cx="403.92" cy="581.323" r="15.308" opacity=".5"/><circle cx="403.92" cy="581.324" r="11.022" opacity=".6"/></g><g clip-path="url(#f)"><path d="M409.64 579.331c-.609-.334-1.296-.591-1.918-.922-.796-.423-1.696-.786-2.286-1.479-.392-.489-.702-1.038-1.015-1.575-.217-.371-.39-.824-.608-1.204-.143-.25-.375-1.114-.843-.819.036.03.05.031.061.069-.044.091-.06.095-.155.147-.039-.005-.045-.011-.077-.032-.112.197-.19.4-.291.602-.069.136-.157.275-.223.41a19 19 0 0 1-.936 1.659c-.069.115-.184.235-.251.348-.475.808-1.36 1.208-2.183 1.635-.434.225-.927.444-1.38.652-.302.139-.673.271-.95.458-.127.533.327.56.724.753q.204.098.41.191.83.378 1.625.82c.388.214.573.307.934.571q.27.196.49.442c.144.164.272.358.392.538.407.607.763 1.261 1.075 1.917.065.137.157.283.229.423.126.246.199.538.413.733.139.128.381.075.49-.064.197-.227.258-.537.406-.781.204-.339.36-.701.549-1.044q.3-.54.648-1.053c.189-.281.38-.58.633-.813.384-.353.888-.621 1.352-.865a33 33 0 0 1 1.63-.8c.386-.175.822-.282 1.085-.58a.56.56 0 0 0-.03-.337"/><path d="M402.97 573.332c-.034.034-.153.151-.171.183.032.022.038.028.076.033.095-.052.111-.056.156-.147-.011-.038-.025-.039-.061-.069"/></g></g><defs><linearGradient id="a" x1="-260.469" x2="-14.073" y1="113.912" y2="412.93" gradientUnits="userSpaceOnUse"><stop stop-color="#FFE3B2" stop-opacity=".9"/><stop offset="1" stop-color="#fff" stop-opacity="0"/></linearGradient><linearGradient id="b" x1="80.231" x2="80.231" y1="174.153" y2="758.857" gradientUnits="userSpaceOnUse"><stop stop-color="#637BB2"/><stop offset=".981" stop-color="#15173B"/></linearGradient><linearGradient id="d" x1="515.721" x2="185.135" y1="479.988" y2="905.68" gradientUnits="userSpaceOnUse"><stop stop-color="#FDEBCC"/><stop offset="1" stop-color="#FDEBCC" stop-opacity="0"/></linearGradient><clipPath id="e"><path fill="#fff" d="m146.368 739.647-18.443-.106-.103 18.021 18.443.106z"/></clipPath><clipPath id="f"><path fill="#fff" d="m411.229 572.772-15.2-.087-.081 14.086 15.2.087z"/></clipPath></defs></svg>