<svg width="412" height="322" viewBox="0 0 412 322" fill="none" xmlns="http://www.w3.org/2000/svg">
<g clip-path="url(#clip0_398_1630)">
<path d="M397.089 173.985C394.163 166.888 390.291 160.415 386.253 153.92C371.92 139.432 351.343 131.421 329.547 133.896L308.19 134.238C293.011 135.925 278.117 137.088 262.684 136.133C258.41 135.867 254.146 135.519 249.882 135.17L73.4848 137.938C71.852 138.785 69.8575 139.166 67.533 138.831C65.437 138.53 63.3706 138.307 61.289 138.127L30.5658 138.607C22.6933 139.3 14.8294 140.237 6.88124 140.981C-2.84158 141.895 -12.0215 141.887 -21.4939 139.426L-72.4305 140.255C-77.7338 141.968 -82.4871 145.044 -86.8548 148.787C-91.8564 157.481 -97.3033 169.798 -99.5778 185.286C-102.746 206.795 -98.416 224.984 -93.8679 237.13C-92.7663 238.671 -91.6293 240.167 -90.3481 241.504C-85.9654 246.101 -79.6316 248.243 -73.5554 250.619C-48.0502 251.883 -22.545 253.147 2.94012 254.414C3.75513 254.235 4.55003 254.059 5.36743 253.9C13.2398 252.35 20.5901 252.922 28.4934 253.857C36.9968 254.863 45.4427 255.386 53.644 256.938C107.754 259.627 161.863 262.316 215.971 264.985C230.629 263.034 245.125 260.756 259.848 263.631C267.66 265.168 274.937 267.177 282.989 266.789C289.844 266.461 295.831 266.033 302.309 268.872C302.61 268.999 302.913 269.146 303.176 269.299C315.261 269.898 327.347 270.497 339.433 271.097C339.117 271.012 338.803 270.947 338.505 270.84C340.806 270.811 343.113 270.658 345.426 270.382C369.722 267.487 389.508 252.257 399.338 231.708C401.779 222.748 403.113 213.573 404.211 204.304C404.134 202.457 404.034 200.592 403.916 198.75C401.723 190.444 400.39 181.995 397.067 173.967L397.089 173.985Z" fill="#805335"/>
<path d="M391.635 175.102C391.017 174.707 390.461 174.324 389.986 173.932C386.238 170.727 383.652 167.344 381.099 164.058C378.567 160.79 376.24 157.518 377.498 154.043L377.513 154.001C367.852 144.647 355.357 139.242 341.923 139.823C320.515 140.763 302.815 156.723 295.745 178.698C295.795 179.63 295.847 180.583 295.837 181.522C295.816 187.338 294.455 192.865 292.505 198.238C292.475 199.873 292.466 201.506 292.542 203.169C293.206 218.327 298.542 231.95 306.811 242.285C307.443 242.964 308.017 243.671 308.571 244.38C309.324 245.229 310.094 246.034 310.883 246.838C315.078 249.173 318.911 252.245 322.429 255.742C329.956 260.026 338.447 262.298 347.335 261.912C360.787 261.308 372.801 254.797 381.617 244.568C382.343 242.441 383.724 240.339 386.351 238.251C391.816 229.849 395.401 219.712 396.474 208.692C396.144 207.976 395.837 207.279 395.587 206.554C394.734 204.187 393.024 201.821 396.252 199.294C396.401 199.175 396.592 199.07 396.764 198.968C396.749 198.848 396.753 198.704 396.759 198.581C396.392 190.201 394.593 182.297 391.662 175.16L391.635 175.102Z" fill="#B36D42"/>
<path d="M385.31 179.203C384.782 178.878 384.314 178.546 383.907 178.207C380.727 175.486 378.53 172.627 376.358 169.805C374.213 167.042 372.227 164.24 373.304 161.296C373.304 161.296 373.301 161.276 373.319 161.254C365.109 153.298 354.506 148.708 343.102 149.21C324.921 150.01 309.89 163.551 303.894 182.216C303.928 183.007 303.983 183.816 303.976 184.613C303.953 189.552 302.8 194.258 301.139 198.801C301.101 200.193 301.103 201.579 301.168 202.979C301.742 215.843 306.263 227.42 313.285 236.191C313.822 236.759 314.321 237.353 314.782 237.971C315.419 238.69 316.073 239.387 316.745 240.062C320.306 242.045 323.555 244.656 326.54 247.625C332.93 251.269 340.135 253.185 347.704 252.854C359.128 252.349 369.319 246.81 376.81 238.125C377.411 236.32 378.607 234.545 380.821 232.752C385.456 225.611 388.51 217.006 389.416 207.658C389.14 207.058 388.885 206.456 388.65 205.852C387.92 203.838 386.477 201.827 389.22 199.685C389.331 199.59 389.505 199.508 389.656 199.409C389.644 199.308 389.65 199.185 389.638 199.085C389.322 191.983 387.806 185.249 385.308 179.182L385.31 179.203Z" fill="#DCA771"/>
<path d="M-67.8721 147.688C-59.4021 149.269 -45.9887 151.423 -29.299 152.657C21.1393 156.375 33.7217 146.594 86.5572 146.294C133.705 146.019 137.098 152.754 181.427 150.224C211.615 148.503 236.057 143.591 252.405 139.562" fill="#744228"/>
<path d="M44.2773 168.406C51.3179 169.974 62.4428 172.095 76.2793 173.18C118.038 176.464 128.218 165.867 171.888 164.824C210.839 163.894 213.79 171.028 250.378 167.728C275.301 165.472 295.363 159.919 308.797 155.401" fill="#744228"/>
<path d="M-85.4426 194.165C-79.1257 192.229 -69.1488 189.51 -56.6396 187.672C-18.893 182.113 -9.05905 192.058 30.6557 190.69C66.0837 189.466 68.3813 182.216 101.8 183.475C124.564 184.332 143.1 188.732 155.54 192.471" fill="#744228"/>
<path d="M16.7592 222.315C24.051 219.488 35.6152 215.539 50.0709 212.919C93.7776 204.997 105.244 219.908 151.269 218.257C192.316 216.771 194.907 205.998 233.639 208.195C260.008 209.683 281.555 216.416 296.003 222.119" fill="#744228"/>
<path d="M-99.4062 217.863L-29.2705 211.768L6.84606 217.52" fill="#744228"/>
<path d="M-92.2197 167.945L1.47875 168.894L38.2433 161.086" fill="#744228"/>
<path d="M63.625 257.318L230.6 242.925L297.307 249.824" fill="#744228"/>
<path d="M-89.6553 240.627C-82.7756 242.214 -71.8873 244.404 -58.3557 245.668C-17.432 249.48 -7.25405 239.72 35.6171 239.506C73.8605 239.313 76.6231 246.062 112.578 243.612C137.06 241.939 156.88 237.088 170.13 233.081" fill="#744228"/>
<path d="M127.299 190.842L221.259 197.063L257.762 183.982" fill="#744228"/>
<path d="M312.291 220.829C312.749 221.08 313.147 221.339 313.485 221.604C316.249 223.743 318.175 226.043 320.076 228.305C321.973 230.526 323.709 232.767 322.946 235.265C322.946 235.265 322.948 235.285 322.951 235.305C330.087 241.615 339.082 245.03 348.548 244.187C363.644 242.837 375.656 231.002 379.939 215.255C379.86 214.591 379.821 213.922 379.782 213.254C379.617 209.133 380.391 205.185 381.606 201.349C381.59 200.188 381.534 199.032 381.415 197.863C380.469 187.185 376.26 177.712 370.077 170.678C369.615 170.223 369.171 169.745 368.764 169.243C368.207 168.677 367.63 168.114 367.058 167.59C364.021 166.076 361.227 164.022 358.623 161.681C353.169 158.883 347.097 157.567 340.818 158.112C331.332 158.957 323.055 163.962 317.156 171.457C316.725 172.977 315.807 174.514 314.015 176.074C310.42 182.194 308.207 189.474 307.811 197.273C308.074 197.772 308.315 198.253 308.518 198.759C309.205 200.411 310.479 202.034 308.275 203.908C308.182 203.98 308.051 204.078 307.937 204.152C307.947 204.233 307.959 204.333 307.968 204.414C308.487 210.308 310.026 215.856 312.309 220.806L312.291 220.829Z" fill="#B36D42"/>
<path d="M369.691 186.776C369.343 186.593 369.033 186.385 368.785 186.19C366.717 184.581 365.267 182.856 363.842 181.17C362.42 179.504 361.138 177.821 361.756 175.993C361.756 175.993 361.756 175.993 361.754 175.973C356.397 171.246 349.579 168.632 342.343 169.189C330.801 170.075 321.456 178.777 317.97 190.431C318.007 190.916 318.047 191.422 318.064 191.909C318.142 194.959 317.472 197.895 316.506 200.743C316.506 201.6 316.526 202.454 316.589 203.324C317.167 211.251 320.252 218.308 324.857 223.573C325.204 223.919 325.531 224.268 325.841 224.639C326.26 225.078 326.675 225.478 327.11 225.875C329.409 227.028 331.511 228.573 333.473 230.318C337.601 232.436 342.21 233.458 347.021 233.088C354.277 232.53 360.677 228.891 365.281 223.365C365.637 222.241 366.359 221.115 367.752 219.97C370.58 215.451 372.366 210.078 372.797 204.274C372.61 203.909 372.424 203.544 372.278 203.173C371.785 201.947 370.825 200.736 372.536 199.349C372.609 199.279 372.725 199.224 372.801 199.174C372.794 199.114 372.784 199.034 372.777 198.973C372.458 194.585 371.376 190.471 369.691 186.776Z" fill="#DCA771"/>
<path d="M349.997 207.747L339.027 158.835L341.222 133.096" fill="#744228"/>
<path d="M304.532 239.766L313.972 237.335L342.306 212.703" fill="#744228"/>
<path d="M389.905 232.467L376.597 226.914L353.896 211.873" fill="#744228"/>
</g>
<g clip-path="url(#clip1_398_1630)">
<path d="M249.181 77.8933C246.643 71.7387 243.285 66.1242 239.783 60.4914C227.352 47.9265 209.506 40.9783 190.603 43.1251L172.081 43.422C158.917 44.8849 145.999 45.8938 132.614 45.0654C128.907 44.8349 125.209 44.5327 121.511 44.2304L-31.4737 46.6308C-32.8899 47.3656 -34.6196 47.6956 -36.6355 47.4052C-38.4534 47.1442 -40.2455 46.9509 -42.0509 46.7946L-68.6964 47.2106C-75.524 47.812 -82.3442 48.6249 -89.2374 49.2696C-97.6698 50.0623 -105.631 50.0559 -113.846 47.9215L-158.023 48.6401C-162.622 50.1259 -166.744 52.7931 -170.533 56.0397C-174.87 63.5799 -179.594 74.2619 -181.567 87.6942C-184.314 106.349 -180.559 122.124 -176.615 132.657C-175.659 133.994 -174.673 135.292 -173.562 136.451C-169.761 140.438 -164.268 142.295 -158.998 144.356C-136.878 145.453 -114.758 146.549 -92.6555 147.647C-91.9486 147.492 -91.2592 147.339 -90.5503 147.202C-83.7228 145.857 -77.3481 146.354 -70.4937 147.164C-63.1189 148.037 -55.7939 148.49 -48.6811 149.836C-1.75309 152.169 45.1749 154.501 92.1009 156.816C104.813 155.124 117.386 153.148 130.155 155.642C136.93 156.975 143.241 158.717 150.224 158.38C156.17 158.096 161.362 157.725 166.98 160.186C167.241 160.297 167.504 160.425 167.732 160.557C178.213 161.076 188.695 161.596 199.177 162.116C198.903 162.043 198.631 161.987 198.372 161.894C200.368 161.868 202.369 161.736 204.375 161.497C225.446 158.985 242.606 145.777 251.131 127.955C253.248 120.184 254.405 112.227 255.357 104.188C255.29 102.586 255.204 100.969 255.102 99.3716C253.199 92.1683 252.043 84.8407 249.161 77.8779L249.181 77.8933Z" fill="#805335"/>
<path d="M244.449 78.8645C243.912 78.5216 243.431 78.1898 243.019 77.8497C239.768 75.0705 237.526 72.1357 235.311 69.2862C233.116 66.452 231.097 63.6144 232.188 60.6008L232.201 60.5638C223.822 52.4518 212.985 47.764 201.334 48.2681C182.768 49.0834 167.417 62.9249 161.285 81.9831C161.329 82.7917 161.374 83.6178 161.365 84.4326C161.347 89.4766 160.167 94.2698 158.476 98.9294C158.45 100.348 158.442 101.764 158.508 103.207C159.084 116.353 163.712 128.167 170.883 137.131C171.431 137.72 171.929 138.333 172.409 138.948C173.063 139.684 173.73 140.383 174.414 141.079C178.052 143.105 181.377 145.769 184.428 148.802C190.956 152.517 198.32 154.488 206.029 154.153C217.695 153.629 228.114 147.982 235.76 139.11C236.39 137.266 237.588 135.443 239.866 133.632C244.606 126.345 247.715 117.554 248.646 107.996C248.36 107.376 248.093 106.77 247.876 106.142C247.137 104.089 245.654 102.037 248.453 99.8459C248.582 99.7421 248.748 99.6515 248.897 99.5631C248.884 99.4584 248.887 99.3342 248.892 99.2275C248.574 91.9592 247.014 85.1042 244.472 78.9148L244.449 78.8645Z" fill="#B36D42"/>
<path d="M238.964 82.4194C238.506 82.1379 238.101 81.8502 237.747 81.5562C234.989 79.1959 233.084 76.7163 231.2 74.2696C229.34 71.8731 227.617 69.4425 228.551 66.8898C228.551 66.8898 228.549 66.8724 228.565 66.8529C221.444 59.953 212.248 55.9718 202.358 56.4076C186.59 57.1016 173.554 68.8451 168.354 85.0325C168.383 85.7191 168.431 86.4209 168.425 87.1116C168.405 91.3951 167.406 95.4769 165.965 99.4168C165.931 100.624 165.933 101.826 165.99 103.04C166.488 114.197 170.409 124.238 176.499 131.844C176.964 132.337 177.397 132.852 177.797 133.388C178.349 134.012 178.917 134.616 179.499 135.202C182.588 136.921 185.405 139.186 187.994 141.761C193.537 144.921 199.785 146.582 206.349 146.295C216.257 145.858 225.096 141.054 231.593 133.522C232.114 131.956 233.151 130.417 235.071 128.861C239.091 122.668 241.74 115.205 242.525 107.098C242.286 106.578 242.065 106.056 241.861 105.532C241.228 103.785 239.976 102.042 242.355 100.184C242.452 100.101 242.602 100.03 242.734 99.9438C242.723 99.8566 242.728 99.7499 242.718 99.6627C242.444 93.5036 241.129 87.6633 238.962 82.402L238.964 82.4194Z" fill="#DCA771"/>
<path d="M-154.07 55.0859C-146.725 56.4571 -135.091 58.3257 -120.617 59.3957C-76.8728 62.6205 -65.9604 54.1375 -20.1375 53.8772C20.7524 53.6387 23.6953 59.4796 62.1408 57.2858C88.3218 55.7929 109.52 51.5327 123.699 48.0384" fill="#744228"/>
<path d="M-56.8057 73.0547C-50.6996 74.4144 -41.0512 76.2542 -29.0511 77.1945C7.16489 80.0428 15.994 70.8529 53.8678 69.9478C87.6492 69.1412 90.2087 75.3286 121.941 72.4666C143.555 70.5096 160.955 65.6938 172.606 61.7755" fill="#744228"/>
<path d="M-169.309 95.3979C-163.83 93.7189 -155.178 91.3608 -144.329 89.767C-111.592 84.9454 -103.063 93.5703 -68.6195 92.3841C-37.8936 91.3226 -35.901 85.0349 -6.91747 86.127C12.8253 86.8698 28.9009 90.6856 39.6895 93.9286" fill="#744228"/>
<path d="M-80.672 119.807C-74.3479 117.355 -64.3186 113.931 -51.7815 111.658C-13.8757 104.788 -3.93136 117.72 35.9849 116.288C71.584 115 73.8316 105.656 107.423 107.561C130.292 108.852 148.979 114.691 161.51 119.637" fill="#744228"/>
<path d="M-40.0264 150.168L104.787 137.685L162.641 143.668" fill="#744228"/>
<path d="M-172.963 135.691C-166.996 137.068 -157.553 138.967 -145.818 140.063C-110.325 143.369 -101.498 134.905 -64.3171 134.719C-31.1495 134.552 -28.7536 140.405 2.42936 138.28C23.662 136.829 40.8511 132.622 52.3428 129.147" fill="#744228"/>
<path d="M15.1963 92.5137L96.6853 97.9092L128.344 86.5644" fill="#744228"/>
<path d="M175.636 118.52C176.033 118.738 176.378 118.962 176.671 119.192C179.068 121.047 180.739 123.042 182.388 125.003C184.033 126.93 185.538 128.874 184.876 131.04C184.876 131.04 184.879 131.057 184.881 131.075C191.07 136.547 198.871 139.509 207.08 138.778C220.173 137.607 230.591 127.343 234.305 113.685C234.237 113.11 234.203 112.53 234.169 111.95C234.026 108.376 234.697 104.953 235.751 101.625C235.738 100.618 235.689 99.6157 235.586 98.6019C234.765 89.3414 231.115 81.1258 225.753 75.0248C225.352 74.6303 224.966 74.2163 224.614 73.7806C224.131 73.2898 223.63 72.8011 223.134 72.3472C220.5 71.0335 218.077 69.2525 215.818 67.222C211.089 64.7959 205.822 63.6546 200.377 64.1267C192.15 64.8596 184.971 69.2001 179.855 75.7008C179.482 77.0191 178.685 78.3524 177.131 79.7052C174.013 85.0125 172.094 91.3267 171.75 98.0901C171.979 98.5229 172.188 98.9402 172.364 99.3792C172.959 100.812 174.064 102.219 172.153 103.845C172.072 103.907 171.958 103.992 171.86 104.056C171.868 104.126 171.879 104.213 171.887 104.283C172.337 109.395 173.671 114.207 175.651 118.5L175.636 118.52Z" fill="#B36D42"/>
<path d="M225.418 88.9884C225.116 88.8298 224.847 88.6496 224.632 88.4806C222.838 87.0846 221.581 85.5892 220.345 84.1266C219.111 82.6815 218 81.2218 218.536 79.6365C218.536 79.6365 218.536 79.6365 218.534 79.6191C213.888 75.5202 207.975 73.2529 201.699 73.7356C191.689 74.504 183.584 82.0509 180.561 92.1587C180.593 92.5794 180.628 93.0176 180.643 93.4404C180.711 96.0859 180.13 98.6318 179.292 101.102C179.292 101.845 179.309 102.586 179.364 103.34C179.865 110.215 182.54 116.336 186.534 120.902C186.835 121.202 187.119 121.504 187.387 121.826C187.751 122.207 188.111 122.554 188.488 122.898C190.483 123.898 192.305 125.238 194.007 126.751C197.587 128.589 201.585 129.475 205.757 129.154C212.05 128.67 217.6 125.514 221.593 120.721C221.902 119.747 222.528 118.77 223.737 117.777C226.188 113.858 227.738 109.198 228.111 104.164C227.95 103.848 227.788 103.531 227.661 103.21C227.234 102.146 226.401 101.095 227.885 99.8925C227.949 99.8319 228.049 99.7845 228.115 99.7413C228.109 99.689 228.1 99.6192 228.094 99.5669C227.817 95.761 226.879 92.1932 225.418 88.9884Z" fill="#DCA771"/>
<path d="M208.338 107.175L198.824 64.7548L200.728 42.4324" fill="#744228"/>
<path d="M168.908 134.942L177.095 132.834L201.668 111.472" fill="#744228"/>
<path d="M242.948 128.61L231.406 123.794L211.719 110.75" fill="#744228"/>
</g>
<defs>
<clipPath id="clip0_398_1630">
<rect width="502.069" height="178.685" fill="white" transform="translate(-108.15 144.51) rotate(-6.7967)"/>
</clipPath>
<clipPath id="clip1_398_1630">
<rect width="435.432" height="154.97" fill="white" transform="translate(-189 52.3301) rotate(-6.7967)"/>
</clipPath>
</defs>
</svg>
