<svg width="504" height="4481" viewBox="0 0 504 4481" fill="none" xmlns="http://www.w3.org/2000/svg">
<g clip-path="url(#clip0_1666_460)">
<rect width="4481" height="504" transform="matrix(0 -1 1 0 0 4481)" fill="white"/>
<g clip-path="url(#clip1_1666_460)">
<path d="M-15.1484 -361L-15.1484 6365.16H680.148L680.148 -361H-15.1484Z" fill="#F5AE55"/>
<g opacity="0.66" filter="url(#filter0_f_1666_460)">
<ellipse cx="254" cy="2095" rx="692" ry="1727" fill="#F7C74F" fill-opacity="0.75"/>
</g>
<path d="M210.395 6439.51C210.395 6439.51 185.974 5646.48 94.1122 5442.31C6.24844 5247.59 -15.1309 4442.27 -15.1309 4442.27" stroke="#F18C0E" stroke-opacity="0.2" stroke-width="2.42683" stroke-miterlimit="10"/>
<path d="M241.681 6439.51C241.681 6439.51 214.392 5522.65 109.06 5286.82C8.59495 5062.33 -15.1309 4131.77 -15.1309 4131.77" stroke="#F18C0E" stroke-opacity="0.2" stroke-width="2.42683" stroke-miterlimit="10"/>
<path d="M272.968 6439.51C272.968 6439.51 242.811 5398.83 124.095 5131.33C10.9415 4877.07 -15.1309 3821.74 -15.1309 3821.74" stroke="#F18C0E" stroke-opacity="0.2" stroke-width="2.42683" stroke-miterlimit="10"/>
<path d="M304.342 6439.51C304.342 6439.51 271.317 5275.48 139.13 4976.32C13.2011 4691.33 -15.1309 3511.23 -15.1309 3511.23" stroke="#F18C0E" stroke-opacity="0.2" stroke-width="2.42683" stroke-miterlimit="10"/>
<path d="M335.629 6439.51C335.629 6439.51 299.649 5151.66 154.165 4820.83C15.5476 4506.07 -15.1309 3200.73 -15.1309 3200.73" stroke="#F18C0E" stroke-opacity="0.2" stroke-width="2.42683" stroke-miterlimit="10"/>
<path d="M366.916 6439.51C366.916 6439.51 328.068 5027.83 169.114 4665.81C17.8941 4320.81 -15.1309 2890.23 -15.1309 2890.23" stroke="#F18C0E" stroke-opacity="0.2" stroke-width="2.42683" stroke-miterlimit="10"/>
<path d="M398.289 6439.51C398.289 6439.51 356.573 4904.48 184.235 4510.33C20.1537 4135.55 -15.1309 2580.2 -15.1309 2580.2" stroke="#F18C0E" stroke-opacity="0.2" stroke-width="2.42683" stroke-miterlimit="10"/>
<path d="M429.576 6439.51C429.576 6439.51 384.992 4780.66 199.271 4355.31C22.5002 3950.29 -15.1309 2269.69 -15.1309 2269.69" stroke="#F18C0E" stroke-opacity="0.2" stroke-width="2.42683" stroke-miterlimit="10"/>
<path d="M460.95 6439.51C460.95 6439.51 413.411 4656.83 214.306 4199.82C24.8467 3765.02 -15.1309 1959.19 -15.1309 1959.19" stroke="#F18C0E" stroke-opacity="0.2" stroke-width="2.42683" stroke-miterlimit="10"/>
<path d="M492.236 6439.51C492.236 6439.51 441.83 4533.48 229.341 4044.81C27.1063 3579.76 -15.1309 1648.68 -15.1309 1648.68" stroke="#F18C0E" stroke-opacity="0.2" stroke-width="2.42683" stroke-miterlimit="10"/>
<path d="M523.523 6439.51C523.523 6439.51 470.249 4409.66 244.289 3889.32C29.4528 3394.5 -15.1309 1338.18 -15.1309 1338.18" stroke="#F18C0E" stroke-opacity="0.2" stroke-width="2.42683" stroke-miterlimit="10"/>
<path d="M554.897 6439.51C554.897 6439.51 498.668 4285.84 259.411 3733.83C31.7993 3209.24 -15.1309 1028.15 -15.1309 1028.15" stroke="#F18C0E" stroke-opacity="0.2" stroke-width="2.42683" stroke-miterlimit="10"/>
<path d="M586.184 6439.51C586.184 6439.51 527.086 4162.49 274.359 3578.82C34.0589 3023.97 -15.1309 717.648 -15.1309 717.648" stroke="#F18C0E" stroke-opacity="0.2" stroke-width="2.42683" stroke-miterlimit="10"/>
<path d="M617.471 6439.51C617.471 6439.51 555.505 4038.66 289.394 3423.33C36.4054 2838.71 -15.1309 407.144 -15.1309 407.144" stroke="#F18C0E" stroke-opacity="0.2" stroke-width="2.42683" stroke-miterlimit="10"/>
<path d="M648.844 6439.51C648.844 6439.51 584.011 3914.84 304.429 3268.31C38.7519 2653.45 -15.1309 96.6406 -15.1309 96.6406" stroke="#F18C0E" stroke-opacity="0.2" stroke-width="2.42683" stroke-miterlimit="10"/>
<path d="M680.131 6439.51C680.131 6439.51 612.343 3791.49 319.464 3112.82C41.0115 2468.19 -15.1309 -213.39 -15.1309 -213.39" stroke="#F18C0E" stroke-opacity="0.2" stroke-width="2.42683" stroke-miterlimit="10"/>
<path d="M485.891 -348.56C485.891 -348.56 507.357 321.126 585.921 493.628C661.01 658.568 680.129 1338.18 680.129 1338.18" stroke="#F18C0E" stroke-opacity="0.2" stroke-width="2.42683" stroke-miterlimit="10"/>
<path d="M454.604 -348.567C454.604 -348.567 479.025 444.469 570.886 648.635C658.663 843.35 680.129 1648.2 680.129 1648.2" stroke="#F18C0E" stroke-opacity="0.2" stroke-width="2.42683" stroke-miterlimit="10"/>
<path d="M423.32 -348.561C423.32 -348.561 450.609 568.298 555.941 804.13C656.407 1029.09 680.133 1959.18 680.133 1959.18" stroke="#F18C0E" stroke-opacity="0.2" stroke-width="2.42683" stroke-miterlimit="10"/>
<path d="M391.943 -348.556C391.943 -348.556 422.1 692.127 540.816 959.623C654.057 1214.36 680.129 2269.69 680.129 2269.69" stroke="#F18C0E" stroke-opacity="0.2" stroke-width="2.42683" stroke-miterlimit="10"/>
<path d="M360.658 -348.557C360.658 -348.557 393.683 815.477 525.87 1114.64C651.712 1399.62 680.131 2580.2 680.131 2580.2" stroke="#F18C0E" stroke-opacity="0.2" stroke-width="2.42683" stroke-miterlimit="10"/>
<path d="M329.371 -348.564C329.371 -348.564 365.351 939.293 510.834 1270.12C649.452 1584.88 680.131 2890.22 680.131 2890.22" stroke="#F18C0E" stroke-opacity="0.2" stroke-width="2.42683" stroke-miterlimit="10"/>
<path d="M297.998 -348.559C297.998 -348.559 336.846 1063.12 495.8 1425.14C647.106 1770.14 680.131 3200.73 680.131 3200.73" stroke="#F18C0E" stroke-opacity="0.2" stroke-width="2.42683" stroke-miterlimit="10"/>
<path d="M266.711 -348.558C266.711 -348.558 308.427 1186.47 480.765 1580.63C644.846 1955.41 680.131 3511.23 680.131 3511.23" stroke="#F18C0E" stroke-opacity="0.2" stroke-width="2.42683" stroke-miterlimit="10"/>
<path d="M235.426 -348.566C235.426 -348.566 280.009 1310.29 465.731 1735.63C642.502 2140.66 680.133 3821.73 680.133 3821.73" stroke="#F18C0E" stroke-opacity="0.2" stroke-width="2.42683" stroke-miterlimit="10"/>
<path d="M204.051 -348.564C204.051 -348.564 251.589 1434.11 450.695 1891.13C640.154 2325.92 680.131 4131.76 680.131 4131.76" stroke="#F18C0E" stroke-opacity="0.2" stroke-width="2.42683" stroke-miterlimit="10"/>
<path d="M172.764 -348.564C172.764 -348.564 223.17 1557.46 435.66 2046.14C637.894 2511.19 680.131 4442.26 680.131 4442.26" stroke="#F18C0E" stroke-opacity="0.2" stroke-width="2.42683" stroke-miterlimit="10"/>
<path d="M141.477 -348.565C141.477 -348.565 194.751 1681.29 420.711 2201.63C635.547 2696.45 680.131 4752.77 680.131 4752.77" stroke="#F18C0E" stroke-opacity="0.2" stroke-width="2.42683" stroke-miterlimit="10"/>
<path d="M110.104 -348.563C110.104 -348.563 166.333 1805.11 405.59 2357.12C633.201 2881.71 680.131 5063.27 680.131 5063.27" stroke="#F18C0E" stroke-opacity="0.2" stroke-width="2.42683" stroke-miterlimit="10"/>
<path d="M78.8164 -348.557C78.8164 -348.557 137.914 1928.47 390.641 2512.14C630.941 3066.98 680.131 5373.78 680.131 5373.78" stroke="#F18C0E" stroke-opacity="0.2" stroke-width="2.42683" stroke-miterlimit="10"/>
<path d="M47.5313 -348.563C47.5313 -348.563 109.496 2052.29 375.608 2667.62C628.596 3252.24 680.133 5683.8 680.133 5683.8" stroke="#F18C0E" stroke-opacity="0.2" stroke-width="2.42683" stroke-miterlimit="10"/>
<path d="M16.1563 -348.564C16.1563 -348.564 80.9894 2176.11 360.572 2822.63C626.249 3437.97 680.131 5994.31 680.131 5994.31" stroke="#F18C0E" stroke-opacity="0.2" stroke-width="2.42683" stroke-miterlimit="10"/>
<path d="M-15.1309 -348.564C-15.1309 -348.564 52.6572 2299.46 345.536 2978.12C623.989 3623.23 680.131 6304.81 680.131 6304.81" stroke="#F18C0E" stroke-opacity="0.2" stroke-width="2.42683" stroke-miterlimit="10"/>
</g>
<g filter="url(#filter1_d_1666_460)">
<circle cx="24.0556" cy="70.2907" r="23.6215" transform="rotate(-3.57817 24.0556 70.2907)" fill="white"/>
<ellipse cx="-3.98442" cy="80.6485" rx="23.6215" ry="15.0319" transform="rotate(-3.57817 -3.98442 80.6485)" fill="white"/>
<ellipse cx="25.2187" cy="88.8623" rx="23.6215" ry="15.0319" transform="rotate(-3.57817 25.2187 88.8623)" fill="white"/>
<ellipse cx="58.0796" cy="71.5078" rx="17.8951" ry="15.0319" transform="rotate(-3.57817 58.0796 71.5078)" fill="white"/>
<ellipse cx="67.2773" cy="88.6241" rx="26.0075" ry="12.6459" transform="rotate(-3.57817 67.2773 88.6241)" fill="white"/>
<ellipse cx="-26.3965" cy="96.8711" rx="26.0075" ry="12.6459" transform="rotate(-3.57817 -26.3965 96.8711)" fill="white"/>
<ellipse cx="1.9409" cy="95.1008" rx="17.1793" ry="12.6459" transform="rotate(-3.57817 1.9409 95.1008)" fill="white"/>
</g>
<g filter="url(#filter2_d_1666_460)">
<circle cx="23.6215" cy="23.6215" r="23.6215" transform="matrix(-0.998051 0.0624103 0.0624103 0.998051 107.023 56.0635)" fill="white"/>
<ellipse cx="23.6215" cy="15.0319" rx="23.6215" ry="15.0319" transform="matrix(-0.998051 0.0624103 0.0624103 0.998051 136.67 71.4219)" fill="white"/>
<ellipse cx="23.6215" cy="15.0319" rx="23.6215" ry="15.0319" transform="matrix(-0.998051 0.0624103 0.0624103 0.998051 108.721 83.21)" fill="white"/>
<ellipse cx="17.8951" cy="15.0319" rx="17.8951" ry="15.0319" transform="matrix(-0.998051 0.0624103 0.0624103 0.998051 68.2363 70.4414)" fill="white"/>
<ellipse cx="22.1957" cy="12.6554" rx="22.1957" ry="12.6554" transform="matrix(-0.998051 0.0624103 0.0624103 0.998051 69.6484 90.3916)" fill="white"/>
<ellipse cx="17.9123" cy="12.6554" rx="17.9123" ry="12.6554" transform="matrix(-0.998051 0.0624103 0.0624103 0.998051 147.135 87.8877)" fill="white"/>
<ellipse cx="16.16" cy="8.76144" rx="16.16" ry="8.76144" transform="matrix(-0.998051 0.0624103 0.0624103 0.998051 162 94.7627)" fill="white"/>
<ellipse cx="17.1793" cy="12.6459" rx="17.1793" ry="12.6459" transform="matrix(-0.998051 0.0624103 0.0624103 0.998051 126.314 89.2822)" fill="white"/>
</g>
<g filter="url(#filter3_d_1666_460)">
<circle cx="495.349" cy="220.939" r="23.6215" transform="rotate(7.74668 495.349 220.939)" fill="white"/>
<ellipse cx="465.821" cy="225.589" rx="23.6215" ry="15.0319" transform="rotate(7.74668 465.821 225.589)" fill="white"/>
<ellipse cx="492.338" cy="243.455" rx="23.5585" ry="19.0805" transform="rotate(7.74668 492.338 243.455)" fill="white"/>
<ellipse cx="448.852" cy="238.127" rx="17.9123" ry="12.6554" transform="rotate(7.74668 448.852 238.127)" fill="white"/>
<ellipse cx="432.314" cy="239.808" rx="16.16" ry="8.76144" transform="rotate(7.74668 432.314 239.808)" fill="white"/>
<ellipse cx="468.791" cy="240.923" rx="17.1793" ry="12.6459" transform="rotate(7.74668 468.791 240.923)" fill="white"/>
</g>
<g filter="url(#filter4_d_1666_460)">
<circle cx="389.891" cy="230.802" r="23.6215" transform="rotate(3.57323 389.891 230.802)" fill="white"/>
<ellipse cx="360.779" cy="237.59" rx="23.6215" ry="15.0319" transform="rotate(3.57323 360.779 237.59)" fill="white"/>
<ellipse cx="388.731" cy="249.374" rx="23.6215" ry="15.0319" transform="rotate(3.57323 388.731 249.374)" fill="white"/>
<ellipse cx="423.498" cy="236.247" rx="17.8951" ry="15.0319" transform="rotate(3.57323 423.498 236.247)" fill="white"/>
<ellipse cx="430.495" cy="254.374" rx="26.0075" ry="12.6459" transform="rotate(3.57323 430.495 254.374)" fill="white"/>
<ellipse cx="336.518" cy="250.896" rx="26.0075" ry="12.6459" transform="rotate(3.57323 336.518 250.896)" fill="white"/>
<ellipse cx="364.858" cy="252.665" rx="17.1793" ry="12.6459" transform="rotate(3.57323 364.858 252.665)" fill="white"/>
</g>
</g>
<defs>
<filter id="filter0_f_1666_460" x="-599.789" y="206.211" width="1707.58" height="3777.58" filterUnits="userSpaceOnUse" color-interpolation-filters="sRGB">
<feFlood flood-opacity="0" result="BackgroundImageFix"/>
<feBlend mode="normal" in="SourceGraphic" in2="BackgroundImageFix" result="shape"/>
<feGaussianBlur stdDeviation="80.8944" result="effect1_foregroundBlur_1666_460"/>
</filter>
<filter id="filter1_d_1666_460" x="-52.3652" y="44.721" width="145.611" height="64.8767" filterUnits="userSpaceOnUse" color-interpolation-filters="sRGB">
<feFlood flood-opacity="0" result="BackgroundImageFix"/>
<feColorMatrix in="SourceAlpha" type="matrix" values="0 0 0 0 0 0 0 0 0 0 0 0 0 0 0 0 0 0 127 0" result="hardAlpha"/>
<feOffset dy="-1.94699"/>
<feComposite in2="hardAlpha" operator="out"/>
<feColorMatrix type="matrix" values="0 0 0 0 0 0 0 0 0 0 0 0 0 0 0 0 0 0 0.1 0"/>
<feBlend mode="normal" in2="BackgroundImageFix" result="effect1_dropShadow_1666_460"/>
<feBlend mode="normal" in="SourceGraphic" in2="effect1_dropShadow_1666_460" result="shape"/>
</filter>
<filter id="filter2_d_1666_460" x="26.1191" y="55.9336" width="136.438" height="61.1816" filterUnits="userSpaceOnUse" color-interpolation-filters="sRGB">
<feFlood flood-opacity="0" result="BackgroundImageFix"/>
<feColorMatrix in="SourceAlpha" type="matrix" values="0 0 0 0 0 0 0 0 0 0 0 0 0 0 0 0 0 0 127 0" result="hardAlpha"/>
<feOffset dy="-1.55759"/>
<feComposite in2="hardAlpha" operator="out"/>
<feColorMatrix type="matrix" values="0 0 0 0 0 0 0 0 0 0 0 0 0 0 0 0 0 0 0.1 0"/>
<feBlend mode="normal" in2="BackgroundImageFix" result="effect1_dropShadow_1666_460"/>
<feBlend mode="normal" in="SourceGraphic" in2="effect1_dropShadow_1666_460" result="shape"/>
</filter>
<filter id="filter3_d_1666_460" x="416.258" y="195.757" width="135.496" height="71.9922" filterUnits="userSpaceOnUse" color-interpolation-filters="sRGB">
<feFlood flood-opacity="0" result="BackgroundImageFix"/>
<feColorMatrix in="SourceAlpha" type="matrix" values="0 0 0 0 0 0 0 0 0 0 0 0 0 0 0 0 0 0 127 0" result="hardAlpha"/>
<feOffset dy="-1.55759"/>
<feComposite in2="hardAlpha" operator="out"/>
<feColorMatrix type="matrix" values="0 0 0 0 0 0 0 0 0 0 0 0 0 0 0 0 0 0 0.1 0"/>
<feBlend mode="normal" in2="BackgroundImageFix" result="effect1_dropShadow_1666_460"/>
<feBlend mode="normal" in="SourceGraphic" in2="effect1_dropShadow_1666_460" result="shape"/>
</filter>
<filter id="filter4_d_1666_460" x="310.549" y="205.233" width="145.916" height="61.8679" filterUnits="userSpaceOnUse" color-interpolation-filters="sRGB">
<feFlood flood-opacity="0" result="BackgroundImageFix"/>
<feColorMatrix in="SourceAlpha" type="matrix" values="0 0 0 0 0 0 0 0 0 0 0 0 0 0 0 0 0 0 127 0" result="hardAlpha"/>
<feOffset dy="-1.94699"/>
<feComposite in2="hardAlpha" operator="out"/>
<feColorMatrix type="matrix" values="0 0 0 0 0 0 0 0 0 0 0 0 0 0 0 0 0 0 0.1 0"/>
<feBlend mode="normal" in2="BackgroundImageFix" result="effect1_dropShadow_1666_460"/>
<feBlend mode="normal" in="SourceGraphic" in2="effect1_dropShadow_1666_460" result="shape"/>
</filter>
<clipPath id="clip0_1666_460">
<rect width="4481" height="504" fill="white" transform="matrix(0 -1 1 0 0 4481)"/>
</clipPath>
<clipPath id="clip1_1666_460">
<rect width="4842" height="697" fill="white" transform="matrix(0 -1 1 0 -16 4481)"/>
</clipPath>
</defs>
</svg>
