<svg width="519" height="239" viewBox="0 0 519 239" fill="none" xmlns="http://www.w3.org/2000/svg">
<path d="M0.576172 6.85645H242.085V99.0112H0.576172V66.932C0.576172 66.932 14.0723 58.3586 14.0723 50.6008C14.0723 41.8519 0.576172 34.8528 0.576172 34.8528V6.85645Z" fill="#EC765A"/>
<rect x="51.4199" y="6.85645" width="390.864" height="222.443" fill="#EC765A"/>
<path d="M0.576172 137.145H242.085V229.299H0.576172V197.22C0.576172 197.22 14.0723 188.647 14.0723 180.889C14.0723 172.14 0.576172 165.141 0.576172 165.141V137.145Z" fill="#EC765A"/>
<path d="M0.576172 73.5898H242.085V165.745H0.576172V133.665C0.576172 133.665 14.0723 125.092 14.0723 117.334C14.0723 108.585 0.576172 101.586 0.576172 101.586V73.5898Z" fill="#EC765A"/>
<path d="M0.576172 6.85645H242.085V99.0112H0.576172V66.932C0.576172 66.932 14.0723 58.3586 14.0723 50.6008C14.0723 41.8519 0.576172 34.8528 0.576172 34.8528V6.85645Z" fill="#EC765A"/>
<path d="M518.549 137.145H280.217V229.299H518.549V197.22C518.549 197.22 505.23 188.647 505.23 180.889C505.23 172.14 518.549 165.141 518.549 165.141V137.145Z" fill="#EC765A"/>
<path d="M518.549 73.5898H280.217V165.745H518.549V133.665C518.549 133.665 505.23 125.092 505.23 117.334C505.23 108.585 518.549 101.586 518.549 101.586V73.5898Z" fill="#EC765A"/>
<path d="M518.549 6.85645H280.217V99.0112H518.549V66.932C518.549 66.932 505.23 58.3586 505.23 50.6008C505.23 41.8519 518.549 34.8528 518.549 34.8528V6.85645Z" fill="#EC765A"/>
<rect x="51.4199" y="6.85645" width="390.864" height="222.443" fill="#EC765A"/>
<path d="M420.154 6.94629L420.154 229.412" stroke="#F3E7D7" stroke-width="9.53325" stroke-dasharray="19.07 19.07"/>
<rect x="49.833" y="33.8565" width="289.175" height="165.243" rx="4.76663" fill="white" stroke="#F3E7D7" stroke-width="9.53325"/>
<path d="M455.076 181.465V173.643C455.076 169.81 457.859 167.054 461.717 167.054C465.576 167.054 468.359 169.836 468.359 173.643V177.213H473.451V181.465H455.076ZM464.894 177.213V174.299C464.894 172.593 463.555 171.359 461.717 171.359C459.88 171.359 458.541 172.593 458.541 174.299V177.213H464.894ZM473.451 153.981V165.059H455.076V160.806H469.671V153.981H473.451ZM473.451 135.53V140.018L471.22 140.648V147.158L473.451 147.788V152.277L455.076 146.056V141.777L473.451 135.53ZM459.722 143.903L467.886 146.213V141.593L459.722 143.903ZM473.451 127.787V132.013H458.856V137.053H455.076V122.721H458.856V127.787H473.451ZM473.451 116.561V120.813H455.076V116.561H473.451ZM473.451 108.926V112.995H455.076V108.637L466.967 102.258H455.076V98.1896H473.451V102.547L461.56 108.926H473.451ZM473.924 87.632C473.924 92.147 471.509 95.0345 467.23 95.0345H455.076V90.8083H466.967C469.067 90.8083 470.249 89.5483 470.249 87.632C470.249 85.6895 469.067 84.4558 466.967 84.4558H455.076V80.2033H467.23C471.509 80.2033 473.924 83.117 473.924 87.632ZM473.451 72.9859V77.0547H455.076V72.1197L468.122 67.2372L455.076 62.3547V57.5247H473.451V61.5934H461.534L473.451 65.6622V68.8122L461.455 72.9859H473.451Z" fill="#F3E7D7"/>
<path d="M131.525 132.69C125.275 134.654 122.129 135.029 115.885 132.914L99.7969 137.606C105.459 143.388 108.987 145.597 115.885 147.773C122.118 149.045 125.625 149.198 131.86 147.773C139.176 144.85 142.718 142.764 147.278 137.606L131.525 132.69Z" fill="#EC765A"/>
<path d="M279.887 130.749V124.288L294.3 115.821V136.097C293.303 138.225 292.492 139.157 290.697 140.442C284.746 145.612 280.521 147.261 271.668 148.351C264.892 148.68 261.104 148.205 254.327 145.678C244.769 141.287 240.979 137.207 237.1 126.962L250.837 121.726C253.663 129.058 256.65 131.9 264.799 134.203H271.668C275.375 133.627 277.172 132.867 279.887 130.749Z" fill="#EC765A"/>
<path d="M108.175 91.7438C108.175 96.0012 104.724 99.4525 100.466 99.4525C96.2091 99.4525 92.7578 96.0012 92.7578 91.7438C92.7578 87.4864 96.2091 84.0352 100.466 84.0352C104.724 84.0352 108.175 87.4864 108.175 91.7438Z" fill="#EC765A"/>
<circle cx="147.388" cy="91.5778" r="7.70866" fill="#EC765A"/>
<path d="M107.728 113.474C107.728 117.732 104.377 121.183 100.243 121.183C96.1091 121.183 92.7578 117.732 92.7578 113.474C92.7578 109.217 96.1091 105.766 100.243 105.766C104.377 105.766 107.728 109.217 107.728 113.474Z" fill="#EC765A"/>
<path d="M185.484 91.8014C185.484 96.0588 182.133 99.5101 177.999 99.5101C173.865 99.5101 170.514 96.0588 170.514 91.8014C170.514 87.5441 173.865 84.0928 177.999 84.0928C182.133 84.0928 185.484 87.5441 185.484 91.8014Z" fill="#EC765A"/>
<path d="M225.712 96.715C222.738 99.7612 217.951 99.9109 215.021 97.0494C212.09 94.188 212.125 89.3988 215.099 86.3526C218.073 83.3064 222.86 83.1566 225.791 86.0181C228.722 88.8796 228.687 93.6688 225.712 96.715Z" fill="#EC765A"/>
<path d="M287.724 99.2174C285.461 102.423 280.913 103.107 277.567 100.745C274.221 98.3831 273.342 93.8693 275.606 90.6633C277.869 87.4573 282.416 86.7733 285.762 89.1354C289.109 91.4976 289.987 96.0114 287.724 99.2174Z" fill="#EC765A"/>
<path d="M280.056 122.124C277.31 124.936 272.757 124.945 269.887 122.143C267.018 119.342 266.918 114.79 269.664 111.977C272.41 109.164 276.963 109.155 279.833 111.957C282.703 114.759 282.803 119.311 280.056 122.124Z" fill="#EC765A"/>
<path d="M292.636 119.864C290.359 122.196 286.608 122.225 284.257 119.93C281.906 117.635 281.845 113.884 284.122 111.552C286.399 109.22 290.15 109.191 292.501 111.486C294.852 113.782 294.912 117.533 292.636 119.864Z" fill="#EC765A"/>
<path d="M215.656 146.648C212.565 143.721 212.343 138.937 215.16 135.963C217.976 132.989 222.765 132.951 225.856 135.879C228.947 138.806 229.17 143.591 226.353 146.564C223.536 149.538 218.747 149.576 215.656 146.648Z" fill="#EC765A"/>
<path d="M185.484 140.735C185.484 144.992 182.133 148.444 177.999 148.444C173.865 148.444 170.514 144.992 170.514 140.735C170.514 136.478 173.865 133.026 177.999 133.026C182.133 133.026 185.484 136.478 185.484 140.735Z" fill="#EC765A"/>
<path d="M92.7578 114.033H107.728C107.854 125.927 110.571 129.939 115.996 132.914L99.7962 137.606C94.2996 130.248 92.8704 125.03 92.7578 114.033Z" fill="#EC765A"/>
<path d="M139.457 113.474C139.457 117.732 142.809 121.183 146.943 121.183C151.076 121.183 154.428 117.732 154.428 113.474C154.428 109.217 151.076 105.766 146.943 105.766C142.809 105.766 139.457 109.217 139.457 113.474Z" fill="#EC765A"/>
<path d="M154.428 114.257H139.457C139.332 126.151 136.502 129.939 131.078 132.914L147.054 137.83C152.551 130.471 154.315 125.254 154.428 114.257Z" fill="#EC765A"/>
<rect x="170.514" y="91.6895" width="14.9704" height="50.2739" fill="#EC765A"/>
<rect x="215.592" y="85.8799" width="14.7371" height="42.2816" transform="rotate(44.3775 215.592 85.8799)" fill="#EC765A"/>
<rect x="226.223" y="136.267" width="14.7371" height="42.2816" transform="rotate(135.731 226.223 136.267)" fill="#EC765A"/>
<rect x="274.414" y="109.788" width="14.3001" height="14.5236" fill="#EC765A"/>
<path d="M235.649 120.067C235.986 122.938 236.307 124.536 237.101 127.217L250.842 121.95C250.073 113.824 250.42 110.186 253.301 106.102C257.368 100.292 260.186 98.6157 268.828 98.3772C272.709 98.8727 275.33 99.3684 278.214 101.074L284.805 88.5616C279.634 85.6298 276.36 84.71 269.947 84.0928C261.257 84.2213 256.952 85.0937 250.619 88.5616C241.873 94.3562 238.596 99.1238 235.649 110.459C235.362 114.198 235.357 116.323 235.649 120.067Z" fill="#EC765A"/>
</svg>
