<svg width="519" height="239" viewBox="0 0 519 239" fill="none" xmlns="http://www.w3.org/2000/svg">
<path d="M0.603516 6.85645H242.113V99.0112H0.603516V66.932C0.603516 66.932 14.0996 58.3586 14.0996 50.6008C14.0996 41.8519 0.603516 34.8528 0.603516 34.8528V6.85645Z" fill="#EC765A"/>
<rect x="51.4473" y="6.85645" width="390.864" height="222.443" fill="#EC765A"/>
<path d="M0.603516 137.145H242.113V229.299H0.603516V197.22C0.603516 197.22 14.0996 188.647 14.0996 180.889C14.0996 172.14 0.603516 165.141 0.603516 165.141V137.145Z" fill="#EC765A"/>
<path d="M0.603516 73.5898H242.113V165.745H0.603516V133.665C0.603516 133.665 14.0996 125.092 14.0996 117.334C14.0996 108.585 0.603516 101.586 0.603516 101.586V73.5898Z" fill="#EC765A"/>
<path d="M0.603516 6.85645H242.113V99.0112H0.603516V66.932C0.603516 66.932 14.0996 58.3586 14.0996 50.6008C14.0996 41.8519 0.603516 34.8528 0.603516 34.8528V6.85645Z" fill="#EC765A"/>
<path d="M518.576 137.145H280.245V229.299H518.576V197.22C518.576 197.22 505.258 188.647 505.258 180.889C505.258 172.14 518.576 165.141 518.576 165.141V137.145Z" fill="#EC765A"/>
<path d="M518.576 73.5898H280.245V165.745H518.576V133.665C518.576 133.665 505.258 125.092 505.258 117.334C505.258 108.585 518.576 101.586 518.576 101.586V73.5898Z" fill="#EC765A"/>
<path d="M518.576 6.85645H280.245V99.0112H518.576V66.932C518.576 66.932 505.258 58.3586 505.258 50.6008C505.258 41.8519 518.576 34.8528 518.576 34.8528V6.85645Z" fill="#EC765A"/>
<rect x="51.4473" y="6.85645" width="390.864" height="222.443" fill="#EC765A"/>
<path d="M420.182 6.94629L420.182 229.412" stroke="#F3E7D7" stroke-width="9.53325" stroke-dasharray="19.07 19.07"/>
<rect x="49.8604" y="33.8565" width="289.175" height="165.243" rx="4.76663" fill="white" stroke="#F3E7D7" stroke-width="9.53325"/>
<path d="M455.104 181.465V173.643C455.104 169.81 457.886 167.054 461.745 167.054C465.604 167.054 468.386 169.836 468.386 173.643V177.213H473.479V181.465H455.104ZM464.921 177.213V174.299C464.921 172.593 463.582 171.359 461.745 171.359C459.907 171.359 458.569 172.593 458.569 174.299V177.213H464.921ZM473.479 153.981V165.059H455.104V160.806H469.699V153.981H473.479ZM473.479 135.53V140.018L471.247 140.648V147.158L473.479 147.788V152.277L455.104 146.056V141.777L473.479 135.53ZM459.75 143.903L467.914 146.213V141.593L459.75 143.903ZM473.479 127.787V132.013H458.884V137.053H455.104V122.721H458.884V127.787H473.479ZM473.479 116.561V120.813H455.104V116.561H473.479ZM473.479 108.926V112.995H455.104V108.637L466.995 102.258H455.104V98.1896H473.479V102.547L461.587 108.926H473.479ZM473.951 87.632C473.951 92.147 471.536 95.0345 467.257 95.0345H455.104V90.8083H466.995C469.095 90.8083 470.276 89.5483 470.276 87.632C470.276 85.6895 469.095 84.4558 466.995 84.4558H455.104V80.2033H467.257C471.536 80.2033 473.951 83.117 473.951 87.632ZM473.479 72.9859V77.0547H455.104V72.1197L468.15 67.2372L455.104 62.3547V57.5247H473.479V61.5934H461.561L473.479 65.6622V68.8122L461.482 72.9859H473.479Z" fill="#F3E7D7"/>
<path d="M85.6319 97.1904H80.7852L88.2755 121.424H92.946L85.6319 97.1904Z" fill="#EC765A"/>
<path d="M109.16 97.1016H104.578L92.7695 136.316H97.6162L109.16 97.1016Z" fill="#EC765A"/>
<path d="M113.566 111.994H109.16L116.562 136.228H121.057L132.689 97.0137H128.106L118.677 128.473L113.566 111.994Z" fill="#EC765A"/>
<path d="M146.437 97.1016H141.59V136.139H146.437V97.1016Z" fill="#EC765A"/>
<path d="M174.987 97.3662H170.141V136.404H174.987V97.3662Z" fill="#EC765A"/>
<rect x="151.459" y="114.285" width="13.5707" height="4.58233" fill="#EC765A"/>
<path fill-rule="evenodd" clip-rule="evenodd" d="M203.364 136.492C214.217 136.492 223.015 127.694 223.015 116.841C223.015 105.988 214.217 97.1895 203.364 97.1895C192.511 97.1895 183.713 105.988 183.713 116.841C183.713 127.694 192.511 136.492 203.364 136.492ZM203.452 132.438C212.017 132.438 218.961 125.494 218.961 116.929C218.961 108.363 212.017 101.419 203.452 101.419C194.886 101.419 187.942 108.363 187.942 116.929C187.942 125.494 194.886 132.438 203.452 132.438Z" fill="#EC765A"/>
<path fill-rule="evenodd" clip-rule="evenodd" d="M250.596 136.139C261.449 136.139 270.248 127.341 270.248 116.488C270.248 105.635 261.449 96.8369 250.596 96.8369C239.743 96.8369 230.945 105.635 230.945 116.488C230.945 127.341 239.743 136.139 250.596 136.139ZM250.684 132.086C259.25 132.086 266.193 125.142 266.193 116.576C266.193 108.011 259.25 101.067 250.684 101.067C242.118 101.067 235.175 108.011 235.175 116.576C235.175 125.142 242.118 132.086 250.684 132.086Z" fill="#EC765A"/>
<rect x="280.117" y="96.8369" width="4.58233" height="39.3023" fill="#EC765A"/>
<path d="M289.811 101.949V97.3662H297.83C303.98 99.2219 306.967 101.093 308.845 107.236C309.503 110.08 309.472 111.709 308.845 114.638C306.555 120.22 303.905 122.018 298.094 123.891H289.811V119.309H298.094C301.224 118.038 302.781 116.902 304.703 113.757C305.226 111.73 305.362 110.584 304.703 108.47C303.474 104.782 301.625 103.414 297.83 101.949H289.811Z" fill="#EC765A"/>
</svg>
