<svg width="519" height="239" viewBox="0 0 519 239" fill="none" xmlns="http://www.w3.org/2000/svg">
<path d="M0.589844 6.52246H242.099V98.6773H0.589844V66.5981C0.589844 66.5981 14.0859 58.0246 14.0859 50.2668C14.0859 41.518 0.589844 34.5189 0.589844 34.5189V6.52246Z" fill="#EC765A"/>
<rect x="51.4336" y="6.52246" width="390.864" height="222.443" fill="#EC765A"/>
<path d="M0.589844 136.811H242.099V228.965H0.589844V196.886C0.589844 196.886 14.0859 188.313 14.0859 180.555C14.0859 171.806 0.589844 164.807 0.589844 164.807V136.811Z" fill="#EC765A"/>
<path d="M0.589844 73.2588H242.099V165.414H0.589844V133.334C0.589844 133.334 14.0859 124.761 14.0859 117.003C14.0859 108.254 0.589844 101.255 0.589844 101.255V73.2588Z" fill="#EC765A"/>
<path d="M0.589844 6.52246H242.099V98.6773H0.589844V66.5981C0.589844 66.5981 14.0859 58.0246 14.0859 50.2668C14.0859 41.518 0.589844 34.5189 0.589844 34.5189V6.52246Z" fill="#EC765A"/>
<path d="M518.562 136.811H280.231V228.965H518.562V196.886C518.562 196.886 505.244 188.313 505.244 180.555C505.244 171.806 518.562 164.807 518.562 164.807V136.811Z" fill="#EC765A"/>
<path d="M518.562 73.2588H280.231V165.414H518.562V133.334C518.562 133.334 505.244 124.761 505.244 117.003C505.244 108.254 518.562 101.255 518.562 101.255V73.2588Z" fill="#EC765A"/>
<path d="M518.562 6.52246H280.231V98.6773H518.562V66.5981C518.562 66.5981 505.244 58.0246 505.244 50.2668C505.244 41.518 518.562 34.5189 518.562 34.5189V6.52246Z" fill="#EC765A"/>
<rect x="51.4336" y="6.52246" width="390.864" height="222.443" fill="#EC765A"/>
<path d="M420.168 6.61523L420.168 229.081" stroke="#F3E7D7" stroke-width="9.53325" stroke-dasharray="19.07 19.07"/>
<rect x="49.8467" y="33.5254" width="289.175" height="165.243" rx="4.76663" fill="white" stroke="#F3E7D7" stroke-width="9.53325"/>
<path d="M455.09 181.134V173.312C455.09 169.479 457.872 166.723 461.731 166.723C465.59 166.723 468.372 169.505 468.372 173.312V176.882H473.465V181.134H455.09ZM464.907 176.882V173.968C464.907 172.262 463.569 171.028 461.731 171.028C459.894 171.028 458.555 172.262 458.555 173.968V176.882H464.907ZM473.465 153.65V164.728H455.09V160.475H469.685V153.65H473.465ZM473.465 135.199V139.687L471.234 140.317V146.827L473.465 147.457V151.946L455.09 145.725V141.446L473.465 135.199ZM459.736 143.572L467.9 145.882V141.262L459.736 143.572ZM473.465 127.456V131.682H458.87V136.722H455.09V122.39H458.87V127.456H473.465ZM473.465 116.23V120.482H455.09V116.23H473.465ZM473.465 108.595V112.664H455.09V108.306L466.981 101.927H455.09V97.8586H473.465V102.216L461.574 108.595H473.465ZM473.937 87.301C473.937 91.816 471.522 94.7035 467.244 94.7035H455.09V90.4772H466.981C469.081 90.4772 470.262 89.2172 470.262 87.301C470.262 85.3585 469.081 84.1247 466.981 84.1247H455.09V79.8722H467.244C471.522 79.8722 473.937 82.7859 473.937 87.301ZM473.465 72.6549V76.7236H455.09V71.7886L468.136 66.9061L455.09 62.0236V57.1936H473.465V61.2624H461.547L473.465 65.3311V68.4811L461.469 72.6549H473.465Z" fill="#F3E7D7"/>
<path d="M242.04 92.6088H238.199C238.061 92.6088 237.949 92.7209 237.949 92.8592V100.936C236.308 99.2948 234.223 98.4742 232.035 98.4742C227.318 98.4742 223.49 102.372 223.49 108.048C223.49 113.621 227.523 117.587 232.138 117.587C234.428 117.587 236.342 116.767 237.949 115.194V116.858C237.949 116.997 238.061 117.109 238.199 117.109H242.04C242.178 117.109 242.29 116.997 242.29 116.858V92.859C242.29 92.7206 242.178 92.6088 242.04 92.6088ZM232.826 113.416C229.914 113.416 227.808 111.125 227.808 108.014C227.808 105.039 229.738 102.646 232.826 102.646C235.773 102.646 237.949 104.8 237.949 107.979C237.949 111.296 235.703 113.416 232.826 113.416ZM221.644 108.014C221.644 113.279 217.576 117.587 212.039 117.587C206.774 117.587 202.604 113.382 202.604 108.048C202.604 102.543 207.048 98.474 212.005 98.474C217.303 98.474 221.644 102.645 221.644 108.014ZM206.923 108.013C206.923 111.169 208.975 113.413 212.07 113.413C215.022 113.413 217.325 111.309 217.325 108.048C217.325 104.892 215.202 102.648 212.07 102.648C209.083 102.648 206.923 104.927 206.923 108.013ZM201.139 127.314H197.298C197.16 127.314 197.048 127.426 197.048 127.565V129.298C195.407 127.656 193.322 126.836 191.134 126.836C186.417 126.836 182.589 130.733 182.589 136.409C182.589 141.983 186.622 145.949 191.237 145.949C193.527 145.949 195.441 145.128 197.048 143.555V145.22C197.048 145.358 197.16 145.47 197.298 145.47H201.139C201.277 145.47 201.389 145.358 201.389 145.22V127.565C201.389 127.426 201.277 127.314 201.139 127.314ZM191.925 141.777C189.012 141.777 186.907 139.486 186.907 136.375C186.907 133.4 188.837 131.007 191.925 131.007C194.872 131.007 197.048 133.161 197.048 136.341C197.048 139.657 194.802 141.777 191.925 141.777ZM157.263 120.92H161.452C161.56 120.92 161.655 120.989 161.689 121.092L167.307 138.05L172.992 121.091C173.027 120.989 173.122 120.92 173.23 120.92H177.35C177.472 120.92 177.576 121.008 177.597 121.129L181.649 145.178C181.674 145.33 181.557 145.47 181.402 145.47H177.397C177.275 145.47 177.17 145.382 177.15 145.261L174.553 129.946L169.381 145.299C169.347 145.401 169.252 145.469 169.144 145.469H165.402C165.295 145.469 165.199 145.4 165.165 145.298L160.06 129.946L157.396 145.262C157.375 145.382 157.271 145.47 157.15 145.47H153.111C152.956 145.47 152.838 145.33 152.864 145.177L157.016 121.128C157.037 121.008 157.141 120.92 157.263 120.92ZM223.275 120.92H227.108C227.293 120.92 227.442 121.07 227.442 121.255V134.802L234.03 127.477C234.123 127.373 234.256 127.314 234.395 127.314H239.301C239.514 127.314 239.626 127.565 239.485 127.723L232.26 135.806C232.145 135.934 232.147 136.13 232.264 136.256L240.425 145.057C240.571 145.214 240.459 145.47 240.245 145.47H235.383C235.246 145.47 235.115 145.412 235.022 145.311L227.443 137.093V145.135C227.443 145.32 227.293 145.47 227.108 145.47H223.275C223.09 145.47 222.94 145.32 222.94 145.135V121.254C222.94 121.07 223.09 120.92 223.275 120.92ZM276.937 133.058V145.219C276.937 145.358 276.825 145.47 276.686 145.47H272.869C272.731 145.47 272.619 145.358 272.619 145.219V136.888C272.619 133.298 272.292 131.007 269.352 131.007C268.008 131.007 266.847 131.623 266.084 132.751C265.104 134.221 265.141 135.862 265.141 137.743V145.22C265.141 145.358 265.028 145.47 264.89 145.47H261.053C260.915 145.47 260.803 145.358 260.803 145.22V127.565C260.803 127.427 260.915 127.314 261.053 127.314H264.587C264.725 127.314 264.837 127.427 264.837 127.565V129.298C265.336 128.798 265.88 128.384 266.452 128.037C267.433 127.48 268.474 127.102 269.515 126.935C269.577 126.926 269.639 126.916 269.701 126.908C269.809 126.893 269.916 126.88 270.024 126.87C270.259 126.85 270.496 126.837 270.734 126.837C270.74 126.837 270.745 126.837 270.751 126.837C274.119 126.853 276.937 129.175 276.937 133.059L276.937 133.058ZM296.697 127.314H300.381C300.565 127.314 300.714 127.464 300.714 127.648V145.136C300.714 145.321 300.565 145.47 300.381 145.47H296.697C296.513 145.47 296.363 145.321 296.363 145.136V127.648C296.363 127.464 296.513 127.314 296.697 127.314ZM300.518 124.687H296.559C296.468 124.687 296.394 124.613 296.394 124.522V121.086C296.394 120.994 296.468 120.92 296.559 120.92H300.518C300.61 120.92 300.684 120.994 300.684 121.086V124.522C300.684 124.613 300.61 124.687 300.518 124.687ZM258.864 136.013C258.542 130.931 254.366 126.848 249.276 126.835C243.414 126.821 239.814 131.409 239.814 136.375L239.871 136.392H239.814C239.822 141.713 243.542 145.939 249.307 145.939C252.978 145.939 255.485 144.806 257.401 142.268C257.527 142.101 257.464 141.86 257.274 141.77L254.018 140.229C253.895 140.171 253.749 140.196 253.649 140.289C252.436 141.409 251.168 141.909 249.307 141.909C249.307 141.909 244.939 142.15 244.217 137.707L244.224 137.709H258.527C258.705 137.709 258.853 137.569 258.86 137.391C258.877 137.022 258.911 136.762 258.864 136.013ZM244.596 134.118C245.455 131.828 247.139 130.699 249.318 130.699C251.663 130.699 253.545 131.998 254.139 134.118H244.596ZM322.128 136.013C321.806 130.931 317.63 126.848 312.54 126.835C306.678 126.821 303.078 131.409 303.078 136.375L303.135 136.392H303.078C303.086 141.713 306.806 145.939 312.571 145.939C316.242 145.939 318.748 144.806 320.665 142.268C320.791 142.101 320.727 141.86 320.538 141.77L317.282 140.229C317.159 140.171 317.013 140.196 316.913 140.289C315.7 141.409 314.432 141.909 312.571 141.909C312.571 141.909 308.203 142.15 307.481 137.707L307.488 137.709H321.791C321.969 137.709 322.117 137.569 322.124 137.391C322.14 137.022 322.175 136.762 322.128 136.013ZM307.86 134.118C308.719 131.828 310.403 130.699 312.582 130.699C314.927 130.699 316.809 131.998 317.403 134.118H307.86ZM200.758 108.014C200.758 113.279 196.69 117.587 191.153 117.587C185.888 117.587 181.718 113.382 181.718 108.048C181.718 102.543 186.162 98.474 191.118 98.474C196.417 98.474 200.758 102.645 200.758 108.014ZM186.037 108.013C186.037 111.169 188.088 113.413 191.184 113.413C194.136 113.413 196.439 111.309 196.439 108.048C196.439 104.892 194.316 102.648 191.184 102.648C188.197 102.648 186.037 104.927 186.037 108.013ZM177.298 117.158H173.239C173.095 117.158 172.968 117.066 172.922 116.93L167.324 100.028L161.657 116.931C161.612 117.066 161.484 117.158 161.341 117.158H157.352C157.189 117.158 157.05 117.041 157.023 116.88L152.999 92.9978C152.965 92.7943 153.122 92.6086 153.328 92.6086H157.164C157.327 92.6086 157.465 92.7261 157.493 92.8865L160.077 108.132L165.23 92.8357C165.276 92.6998 165.403 92.6086 165.547 92.6086H169.168C169.312 92.6086 169.439 92.7006 169.485 92.8369L174.57 108.132L177.223 92.885C177.25 92.7251 177.389 92.6086 177.551 92.6086H181.421C181.628 92.6086 181.785 92.795 181.749 92.9991L177.626 116.881C177.599 117.041 177.46 117.158 177.298 117.158ZM221.021 142.269C219.104 144.806 216.598 145.939 212.926 145.939C207.162 145.939 203.442 141.713 203.434 136.392C203.442 131.071 207.162 126.845 212.926 126.845C216.597 126.845 219.104 127.978 221.021 130.516C221.147 130.682 221.083 130.924 220.894 131.014L217.638 132.555C217.515 132.613 217.369 132.587 217.268 132.495C216.056 131.375 214.788 130.875 212.926 130.875C212.926 130.875 207.733 130.584 207.733 136.392C207.733 142.2 212.926 141.908 212.926 141.908C214.788 141.908 216.056 141.408 217.268 140.289C217.369 140.196 217.515 140.171 217.638 140.229L220.894 141.77C221.083 141.86 221.147 142.102 221.021 142.269ZM293.815 141.857V145.219C293.815 145.358 293.705 145.47 293.566 145.47H279.471C279.278 145.47 279.158 145.262 279.254 145.095L287.226 131.178H280.554C280.416 131.178 280.303 131.065 280.303 130.927V127.565C280.303 127.426 280.416 127.314 280.554 127.314H293.783C293.976 127.314 294.096 127.522 294.001 127.689L286.028 141.607H293.562C293.7 141.607 293.814 141.719 293.815 141.857ZM116.568 102.507C117.036 102.975 117.299 103.61 117.299 104.272C117.299 104.933 117.036 105.568 116.568 106.036L77.1533 145.46C76.6754 145.938 75.9567 146.081 75.3323 145.822C74.708 145.563 74.3008 144.954 74.3008 144.278V94.5245C74.3008 93.7505 74.7667 93.0529 75.4815 92.7566C76.1963 92.4603 77.019 92.624 77.5662 93.1709L89.3624 104.965C90.1602 105.762 91.4533 105.762 92.2511 104.965L103.876 93.339C104.85 92.3649 106.429 92.3649 107.402 93.339L116.568 102.507ZM94.8 136.05C94.3323 135.582 94.0696 134.948 94.0696 134.286C94.0696 133.624 94.3323 132.99 94.8003 132.522L134.215 93.098C134.693 92.62 135.412 92.4769 136.036 92.7358C136.66 92.9946 137.067 93.604 137.067 94.2798V144.033C137.067 144.807 136.602 145.504 135.887 145.801C135.172 146.097 134.349 145.933 133.802 145.386L122.006 133.593C121.208 132.795 119.915 132.795 119.117 133.593L107.493 145.218C106.519 146.192 104.94 146.192 103.966 145.218L94.8 136.05Z" fill="#EC765A"/>
</svg>
